<?xml version="1.0" encoding="utf-8"?>
<!-- Generator: Adobe Illustrator 16.0.0, SVG Export Plug-In . SVG Version: 6.00 Build 0)  -->
<!DOCTYPE svg PUBLIC "-//W3C//DTD SVG 1.1//EN" "http://www.w3.org/Graphics/SVG/1.1/DTD/svg11.dtd">
<svg version="1.1" id="Layer_1" xmlns="http://www.w3.org/2000/svg" xmlns:xlink="http://www.w3.org/1999/xlink" x="0px" y="0px"
	 width="50px" height="50px" viewBox="0 0 50 50" enable-background="new 0 0 50 50" xml:space="preserve">
<g>
	<path fill="#5AA8A5" d="M47.117,0.25H2.883c-1.452,0-2.633,1.18-2.633,2.634v44.231c0,1.454,1.181,2.635,2.633,2.635h44.233
		c1.454,0,2.634-1.181,2.634-2.635V2.884C49.752,1.43,48.571,0.25,47.117,0.25z M35.496,11.5l-3.806,0.002
		c-2.983,0-3.56,1.417-3.56,3.497v4.587h7.113l-0.002,7.187h-7.111v18.437h-7.422V26.772h-6.203v-7.187h6.203v-5.299
		c0-6.147,3.756-9.497,9.242-9.497l5.545,0.01V11.5z"/>
</g>
</svg>
