<?xml version="1.0" encoding="utf-8"?>
<!-- Generator: Adobe Illustrator 16.0.0, SVG Export Plug-In . SVG Version: 6.00 Build 0)  -->
<!DOCTYPE svg PUBLIC "-//W3C//DTD SVG 1.1//EN" "http://www.w3.org/Graphics/SVG/1.1/DTD/svg11.dtd">
<svg version="1.1" id="Layer_1" xmlns="http://www.w3.org/2000/svg" xmlns:xlink="http://www.w3.org/1999/xlink" x="0px" y="0px"
	 width="20px" height="20px" viewBox="0 0 20 20" enable-background="new 0 0 20 20" xml:space="preserve">
<g>
	<g>
		<path fill="#1E3F75" d="M17.533,8.985l-7.252,2.765L3.03,9.025l-0.413,3.783c-0.019,0.155,0.035,0.312,0.147,0.421
			c0.112,0.11,0.269,0.16,0.423,0.139c0.398-0.059,0.803-0.088,1.208-0.088c2.409,0,4.565,1.021,5.364,2.541
			c0.087,0.165,0.258,0.269,0.445,0.269h0.155c0.186,0,0.357-0.104,0.443-0.269c0.801-1.521,2.956-2.54,5.367-2.54
			c0.403,0,0.81,0.03,1.207,0.087c0.023,0.002,0.074,0.005,0.076,0.005c0.277,0,0.521-0.209,0.502-0.502
			C17.951,12.828,17.533,8.985,17.533,8.985z"/>
		<path fill="#1E3F75" d="M19.424,6.138l-8.965-3.374c-0.114-0.044-0.24-0.044-0.354,0L1.115,6.146
			C0.919,6.22,0.79,6.407,0.79,6.616v6.109h1.127V7.37l8.188,3.082c0.114,0.042,0.24,0.042,0.354,0l8.966-3.374
			c0.196-0.074,0.325-0.262,0.325-0.471S19.62,6.211,19.424,6.138z"/>
		<path fill="#178DBE" d="M0.253,16.715c-0.016,0.142,0.031,0.283,0.125,0.39c0.096,0.104,0.232,0.165,0.374,0.165h1.201
			c0.143,0,0.278-0.062,0.374-0.165c0.095-0.106,0.142-0.248,0.126-0.39l-0.329-3.116H0.581L0.253,16.715z"/>
	</g>
</g>
</svg>
