<?xml version="1.0" encoding="utf-8"?>
<!-- Generator: Adobe Illustrator 16.0.0, SVG Export Plug-In . SVG Version: 6.00 Build 0)  -->
<!DOCTYPE svg PUBLIC "-//W3C//DTD SVG 1.1//EN" "http://www.w3.org/Graphics/SVG/1.1/DTD/svg11.dtd">
<svg version="1.1" id="Layer_1" xmlns="http://www.w3.org/2000/svg" xmlns:xlink="http://www.w3.org/1999/xlink" x="0px" y="0px"
	 width="50px" height="50px" viewBox="0 0 50 50" enable-background="new 0 0 50 50" xml:space="preserve">
<g>
	<path fill="#5AA8A5" d="M47.117,0.25H2.884C1.43,0.25,0.25,1.43,0.25,2.883v44.234c0,1.453,1.18,2.633,2.634,2.633h44.233
		c1.453,0,2.633-1.18,2.633-2.633V2.883C49.748,1.43,48.57,0.25,47.117,0.25z M45.471,12.521c-1.117,1.673-2.503,3.119-4.116,4.3
		c0.013,0.325,0.019,0.648,0.019,0.978c0,11.751-8.94,23.905-23.904,23.905c-4.576,0-9.029-1.306-12.881-3.775
		c-0.079-0.051-0.114-0.15-0.081-0.24c0.03-0.09,0.122-0.145,0.215-0.135c0.646,0.077,1.308,0.115,1.965,0.115
		c3.558,0,6.927-1.101,9.776-3.188c-3.418-0.289-6.352-2.602-7.408-5.896c-0.021-0.07-0.006-0.145,0.043-0.198
		c0.047-0.054,0.12-0.076,0.189-0.063c0.946,0.178,1.908,0.189,2.836,0.041c-3.521-1.097-5.998-4.396-5.998-8.152V20.1
		c0.002-0.072,0.041-0.136,0.103-0.171c0.062-0.036,0.14-0.037,0.201-0.001c0.917,0.51,1.937,0.838,2.978,0.962
		c-2.023-1.614-3.213-4.06-3.213-6.675c0-1.512,0.4-2.996,1.155-4.292c0.034-0.059,0.093-0.096,0.161-0.1
		c0.066-0.007,0.132,0.021,0.173,0.076c4.146,5.082,10.24,8.212,16.756,8.614c-0.108-0.547-0.163-1.111-0.163-1.68
		c0-4.708,3.829-8.533,8.533-8.533c2.314,0,4.55,0.95,6.15,2.611c1.809-0.368,3.527-1.031,5.117-1.975
		c0.073-0.043,0.164-0.037,0.229,0.017s0.092,0.142,0.065,0.222c-0.539,1.685-1.59,3.153-3,4.215
		c1.33-0.232,2.619-0.623,3.847-1.166c0.082-0.039,0.18-0.017,0.237,0.054C45.516,12.346,45.521,12.444,45.471,12.521z"/>
</g>
</svg>
