<?xml version="1.0" encoding="utf-8"?>
<!-- Generator: Adobe Illustrator 16.0.0, SVG Export Plug-In . SVG Version: 6.00 Build 0)  -->
<!DOCTYPE svg PUBLIC "-//W3C//DTD SVG 1.1//EN" "http://www.w3.org/Graphics/SVG/1.1/DTD/svg11.dtd">
<svg version="1.1" id="Layer_1" xmlns="http://www.w3.org/2000/svg" xmlns:xlink="http://www.w3.org/1999/xlink" x="0px" y="0px"
	 width="20px" height="20px" viewBox="0 0 20 20" enable-background="new 0 0 20 20" xml:space="preserve">
<g>
	<g>
		<path fill-rule="evenodd" clip-rule="evenodd" fill="#178DBE" d="M5.443,0.389c-0.127,0.394-0.2,0.798-0.21,1.213
			c-0.01,0.449,0.05,0.893,0.184,1.322c0.309,0.979,0.9,1.748,1.768,2.292c0.741,0.466,1.554,0.673,2.429,0.623
			c0.158-0.008,0.314-0.032,0.471-0.055c0.011,0,0.02-0.003,0.03-0.003c0.039-0.006,0.041,0.001,0.031,0.041
			c-0.005,0.017-0.009,0.028-0.013,0.047C9.784,6.771,9.199,7.48,8.372,7.99C8.039,8.191,7.683,8.346,7.3,8.444
			c-1.07,0.276-2.092,0.149-3.058-0.39C3.386,7.584,2.761,6.887,2.409,5.972c-0.475-1.223-0.4-2.424,0.243-3.568
			c0.475-0.85,1.176-1.446,2.08-1.808c0.129-0.054,0.264-0.099,0.401-0.133c0.02-0.006,0.045-0.008,0.061-0.025
			C5.277,0.421,5.361,0.405,5.443,0.389z"/>
		<path fill-rule="evenodd" clip-rule="evenodd" fill="#178DBE" d="M1.501,4.647C1.478,4.687,1.45,4.698,1.426,4.709
			c-0.091,0.047-0.18,0.099-0.272,0.143C1.105,4.875,1.086,4.912,1.081,4.961c-0.013,0.112-0.024,0.224-0.04,0.334
			C1.039,5.313,1.042,5.333,1.028,5.351C1,5.355,0.989,5.335,0.97,5.321C0.897,5.246,0.817,5.174,0.744,5.098
			c-0.05-0.057-0.101-0.064-0.171-0.049C0.48,5.075,0.385,5.094,0.29,5.111c-0.021,0.002-0.045,0.01-0.069,0.004
			C0.208,5.088,0.227,5.069,0.234,5.051C0.28,4.956,0.321,4.864,0.37,4.774c0.032-0.06,0.035-0.106,0-0.164
			C0.318,4.529,0.271,4.444,0.227,4.36C0.212,4.331,0.191,4.31,0.192,4.279c0.021-0.022,0.042-0.012,0.066-0.01
			c0.104,0.014,0.212,0.028,0.319,0.046c0.054,0.014,0.096,0,0.134-0.042C0.784,4.189,0.86,4.105,0.937,4.025
			C0.981,3.98,0.997,3.984,1.006,4.046c0.019,0.106,0.037,0.213,0.053,0.32c0.009,0.058,0.032,0.095,0.087,0.118
			C1.263,4.533,1.381,4.59,1.501,4.647z"/>
		<path fill-rule="evenodd" clip-rule="evenodd" fill="#178DBE" d="M9.458,3.977c-0.114,0.019-0.222,0.013-0.327,0.01
			C9.056,3.989,9.009,4.012,8.973,4.072C8.93,4.148,8.876,4.219,8.829,4.288C8.816,4.31,8.808,4.338,8.77,4.34
			C8.729,4.251,8.694,4.152,8.667,4.056C8.644,3.971,8.6,3.927,8.514,3.913C8.41,3.893,8.309,3.855,8.199,3.826
			c0.064-0.075,0.137-0.117,0.198-0.168C8.55,3.544,8.55,3.544,8.541,3.354c0-0.08-0.011-0.159-0.002-0.235
			C8.584,3.11,8.606,3.144,8.635,3.163C8.701,3.207,8.768,3.252,8.83,3.302c0.048,0.036,0.092,0.047,0.148,0.021
			c0.091-0.037,0.181-0.066,0.271-0.099c0.02-0.008,0.034-0.021,0.054-0.011c0.024,0.017,0.009,0.041,0.004,0.06
			C9.284,3.354,9.263,3.435,9.231,3.512C9.198,3.599,9.213,3.663,9.278,3.728c0.05,0.052,0.089,0.111,0.13,0.163
			C9.428,3.913,9.45,3.935,9.458,3.977z"/>
		<path fill-rule="evenodd" clip-rule="evenodd" fill="#178DBE" d="M7.01,2.803C6.942,2.758,6.896,2.702,6.847,2.655
			C6.807,2.608,6.76,2.596,6.701,2.61c-0.065,0.017-0.131,0.028-0.2,0.043c-0.012-0.062,0.02-0.104,0.045-0.14
			C6.61,2.418,6.61,2.327,6.54,2.234C6.51,2.198,6.483,2.157,6.477,2.102c0.051-0.011,0.096,0.002,0.144,0.01
			c0.184,0.026,0.133,0.037,0.259-0.093c0.033-0.03,0.057-0.072,0.105-0.091c0.03,0.066,0.037,0.135,0.046,0.208
			c0.01,0.054,0.035,0.089,0.088,0.113c0.065,0.027,0.136,0.048,0.199,0.097c-0.052,0.054-0.113,0.08-0.177,0.106
			c-0.063,0.03-0.093,0.076-0.099,0.149C7.04,2.663,7.04,2.726,7.01,2.803z"/>
		<path fill-rule="evenodd" clip-rule="evenodd" fill="#178DBE" d="M1.843,1.386c0.03,0.053,0.033,0.101,0.038,0.153
			c0.007,0.045,0.028,0.076,0.07,0.091C2,1.65,2.045,1.677,2.105,1.702C2.063,1.746,2.017,1.763,1.975,1.781
			C1.92,1.806,1.893,1.843,1.891,1.904c0,0.044-0.002,0.095-0.022,0.14c-0.056-0.021-0.082-0.06-0.115-0.096
			C1.713,1.906,1.673,1.89,1.62,1.906c-0.011,0.006-0.023,0.01-0.035,0.006c-0.033,0.004-0.072,0.034-0.1,0.004
			c-0.017-0.03,0.013-0.062,0.03-0.087C1.563,1.757,1.562,1.69,1.51,1.619C1.488,1.595,1.469,1.567,1.47,1.533
			c0.015-0.021,0.036-0.015,0.054-0.01c0.195,0.021,0.145,0.038,0.279-0.101C1.81,1.412,1.823,1.402,1.843,1.386z"/>
		<path fill-rule="evenodd" clip-rule="evenodd" fill="#178DBE" d="M8.701,1.104C8.678,1.147,8.64,1.158,8.607,1.172
			C8.534,1.198,8.504,1.251,8.503,1.328c0,0.033-0.002,0.074-0.021,0.114c-0.05-0.026-0.08-0.064-0.11-0.099
			C8.332,1.308,8.293,1.291,8.242,1.306C8.197,1.315,8.155,1.33,8.105,1.321C8.093,1.273,8.123,1.235,8.146,1.203
			c0.033-0.06,0.025-0.107-0.008-0.162c-0.023-0.033-0.045-0.07-0.057-0.116c0.049-0.017,0.09-0.003,0.134,0.01
			c0.066,0.014,0.112-0.002,0.151-0.052C8.392,0.85,8.413,0.81,8.465,0.793C8.49,0.836,8.491,0.885,8.498,0.929
			C8.507,0.985,8.532,1.02,8.586,1.037C8.627,1.058,8.672,1.065,8.701,1.104z"/>
	</g>
	<g>
		<rect x="8" y="15" fill-rule="evenodd" clip-rule="evenodd" fill="#CCCCCC" width="4" height="4"/>
		<path fill-rule="evenodd" clip-rule="evenodd" fill="#CCCCCC" d="M15.899,19.422C15.96,19.293,16,19.152,16,19
			c0-0.553-0.447-1-1-1H5c-0.552,0-1,0.447-1,1c0,0.152,0.04,0.293,0.101,0.422H15.899z"/>
		<g>
			<path fill="#1E3F75" d="M10.027,7.648c0.015,0,0.031,0,0.047,0c0.055,0.026,0.068,0.071,0.065,0.131c0.02,0,0.035,0,0.051,0
				c0.183,0,0.365,0,0.548,0c0.072,0,0.103,0.03,0.103,0.101c0,0.137,0,0.272,0,0.408c0,0.09-0.026,0.115-0.118,0.115
				c-0.178,0-0.355,0-0.534,0c-0.015,0-0.029,0-0.046,0c0,0.213,0,0.418,0,0.625c0.011,0,0.017,0.002,0.022,0.002
				c0.279,0.011,0.554,0.046,0.825,0.123c0.292,0.084,0.569,0.203,0.807,0.4c0.162,0.131,0.291,0.289,0.349,0.494
				c0.012,0.036,0.024,0.044,0.062,0.044c0.53,0,1.061,0,1.592,0c0.109,0,0.167,0.059,0.167,0.17c0,0.252,0,0.502,0,0.751
				c0,0.014,0,0.028,0,0.047c0.023,0,0.041,0,0.059,0c0.486,0,0.974,0.002,1.462,0c0.056,0,0.094,0.024,0.119,0.069
				c0.009,0.021,0.021,0.041,0.025,0.062c0.023,0.101,0.023,0.201,0.005,0.3c-0.013,0.082-0.062,0.115-0.145,0.117
				c-0.16,0-0.32,0-0.481-0.002c-0.032-0.003-0.044,0.008-0.044,0.042c0.003,0.248,0,0.495,0,0.743c0,0.062,0,0.062,0.06,0.062
				c1.534,0,3.065,0,4.6,0c0.015,0,0.03,0,0.046,0c0.044,0,0.082,0.015,0.101,0.054c0.019,0.034,0.035,0.078,0.035,0.119
				c0.001,2.206,0.001,4.41,0.001,6.616c0,0.121-0.057,0.175-0.174,0.175c-1.277,0-2.554,0-3.832,0c-0.01,0-0.023,0-0.035,0
				c0.01-0.01,0.023-0.014,0.034-0.018c0.08-0.038,0.133-0.099,0.137-0.191c0.003-0.087,0.002-0.173,0-0.263
				c-0.003-0.126-0.116-0.237-0.244-0.237c-0.096-0.002-0.191,0-0.286,0c-0.013,0-0.028-0.002-0.043-0.002
				c-0.003-0.014-0.004-0.021-0.004-0.029c-0.002-0.095-0.002-0.19-0.004-0.283c-0.003-0.141-0.099-0.235-0.237-0.235
				c-1.023,0-2.048,0-3.071,0c-0.016,0-0.034,0-0.055,0c0-0.023,0-0.04,0-0.061c0-0.908,0-1.817,0-2.728
				c0-0.109-0.066-0.176-0.173-0.176c-0.49,0-0.979,0-1.467,0c-0.016,0-0.031,0-0.047,0.004c-0.082,0.021-0.126,0.083-0.126,0.184
				c0,0.907,0,1.815,0,2.723c0,0.018,0,0.033,0,0.052c-0.08,0-0.154,0-0.233,0c0-0.021,0-0.04,0-0.059c0-0.9,0-1.799,0-2.699
				c0-0.021,0-0.041-0.003-0.062c-0.011-0.086-0.075-0.143-0.16-0.143c-0.496,0-0.991,0-1.487,0c-0.055,0-0.1,0.024-0.131,0.068
				c-0.028,0.035-0.031,0.077-0.031,0.119c0,0.907,0,1.813,0,2.721c0,0.016,0,0.033,0,0.056c-0.021,0-0.039,0-0.058,0
				c-1.011,0-2.023,0-3.036,0c-0.121,0-0.224,0.087-0.233,0.208c-0.008,0.103-0.002,0.203-0.004,0.306c0,0.011,0,0.021,0,0.036
				c-0.018,0-0.031,0-0.045,0c-0.096,0-0.191,0-0.286,0c-0.061,0-0.108,0.022-0.147,0.067c-0.047,0.047-0.07,0.11-0.07,0.177
				c-0.001,0.075,0.002,0.149-0.001,0.222c-0.004,0.116,0.043,0.197,0.152,0.239c0.001,0,0.001,0.004,0.002,0.004
				c-1.337,0-2.672,0-4.008,0c-0.01,0-0.018,0-0.028,0c-0.056-0.004-0.101-0.029-0.129-0.078c-0.009-0.012-0.015-0.028-0.021-0.04
				c0-2.24,0-4.482,0-6.723c0.032-0.098,0.101-0.126,0.199-0.126c1.628,0.003,3.256,0.003,4.884,0.003c0.052,0,0.052,0,0.052-0.052
				c0-0.25-0.002-0.5,0-0.747c0-0.038-0.01-0.048-0.046-0.048c-0.305,0.002-0.607,0.002-0.91,0.002
				c-0.08-0.002-0.124-0.031-0.133-0.111c-0.01-0.082-0.009-0.166-0.008-0.25c0.001-0.035,0.015-0.072,0.027-0.104
				c0.021-0.056,0.061-0.082,0.125-0.082c0.575,0.002,1.15,0,1.727,0c0.017,0,0.035-0.002,0.056-0.002c0-0.019,0-0.031,0-0.047
				c0-0.247,0-0.495,0-0.745c0-0.019,0-0.037,0.005-0.053c0.02-0.078,0.08-0.121,0.168-0.121c0.511,0,1.021,0,1.529,0
				c0.035,0,0.049-0.008,0.059-0.042c0.024-0.099,0.071-0.187,0.132-0.269C8.23,9.586,8.42,9.447,8.633,9.339
				c0.369-0.186,0.765-0.274,1.174-0.303c0.052-0.002,0.103-0.006,0.157-0.01c0-0.019,0-0.036,0-0.053c0-0.402,0.001-0.807,0-1.207
				C9.964,7.71,9.979,7.675,10.027,7.648z M12.32,16.014c0,0.195,0,0.393,0,0.588c0.001,0.107,0.066,0.172,0.173,0.172
				c0.347,0,0.695,0,1.044,0c0.109,0,0.175-0.066,0.175-0.174c0.001-0.391,0-0.781,0-1.173c0-0.108-0.065-0.173-0.175-0.173
				c-0.346,0-0.694,0-1.04,0c-0.111,0-0.176,0.064-0.177,0.173C12.32,15.625,12.32,15.82,12.32,16.014z M6.19,16.012
				c0,0.195,0,0.391,0,0.588c0,0.109,0.065,0.174,0.173,0.174c0.349,0,0.697,0,1.046,0c0.106,0,0.172-0.064,0.172-0.172
				c0-0.391,0-0.783,0-1.177c0-0.106-0.064-0.171-0.171-0.171c-0.348,0-0.697,0-1.045,0c-0.109,0-0.175,0.064-0.175,0.173
				C6.19,15.621,6.19,15.816,6.19,16.012z M18.585,14.543c0-0.171,0-0.343,0-0.512c0-0.121-0.076-0.199-0.195-0.199
				c-0.344,0-0.686,0-1.027,0c-0.123,0-0.2,0.078-0.2,0.201c0,0.341,0,0.684,0,1.025c0,0.119,0.078,0.197,0.193,0.197
				c0.346,0.002,0.69,0.002,1.038,0c0.113,0,0.191-0.078,0.191-0.19C18.585,14.892,18.585,14.717,18.585,14.543z M16.616,14.547
				c0-0.177,0.002-0.357,0-0.534c0-0.108-0.067-0.18-0.17-0.181c-0.346,0-0.691,0-1.036,0c-0.083,0-0.145,0.042-0.173,0.116
				c-0.01,0.028-0.014,0.059-0.014,0.089c-0.001,0.339-0.001,0.673,0,1.012c0,0.023,0.002,0.046,0.007,0.068
				c0.018,0.078,0.084,0.139,0.159,0.139c0.358,0.002,0.717,0,1.074,0c0.048,0,0.091-0.021,0.113-0.061
				c0.02-0.038,0.037-0.085,0.038-0.126C16.62,14.896,16.616,14.721,16.616,14.547z M9.109,13.837c0.178,0,0.355,0,0.534,0
				c0.104,0,0.163-0.058,0.163-0.162c0-0.349,0-0.695,0-1.046c0-0.117-0.066-0.184-0.185-0.184c-0.339,0-0.679,0-1.018,0
				c-0.122,0-0.188,0.066-0.188,0.189c0,0.345,0,0.689,0,1.036c0,0.108,0.059,0.166,0.171,0.166
				C8.76,13.837,8.935,13.837,9.109,13.837z M11.054,13.837c0.181,0,0.359,0,0.54,0c0.092,0,0.15-0.054,0.15-0.146
				c0-0.356,0-0.717,0-1.076c0-0.08-0.052-0.171-0.174-0.169c-0.341,0.002-0.683,0-1.025,0c-0.12,0-0.191,0.072-0.191,0.191
				c0,0.341,0,0.679,0,1.02c0,0.119,0.061,0.181,0.179,0.181C10.706,13.837,10.881,13.837,11.054,13.837z M12.32,13.152
				c0,0.178,0,0.354,0.001,0.534c0,0.093,0.057,0.15,0.146,0.15c0.36,0,0.72,0,1.081,0c0.101-0.002,0.164-0.067,0.164-0.166
				c0-0.343,0-0.686,0-1.028c0-0.127-0.07-0.197-0.195-0.197c-0.337,0-0.674,0-1.009,0c-0.128,0-0.187,0.061-0.188,0.189
				C12.32,12.809,12.32,12.979,12.32,13.152z M2.011,15.224c0.174,0,0.347,0,0.52,0c0.115,0,0.179-0.062,0.179-0.179
				c0-0.341,0-0.684,0-1.021c0-0.13-0.062-0.191-0.19-0.191c-0.151,0-0.306,0-0.457,0c-0.188,0-0.374,0-0.562,0
				c-0.114,0.001-0.183,0.064-0.183,0.175c-0.002,0.349-0.002,0.697,0,1.046c0,0.108,0.067,0.171,0.175,0.171
				C1.665,15.224,1.838,15.224,2.011,15.224z M4.11,15.224c0.173,0,0.347,0,0.52,0c0.112,0,0.177-0.064,0.177-0.177
				c0-0.345,0-0.689,0-1.034c0-0.11-0.062-0.18-0.173-0.18c-0.349-0.001-0.698-0.001-1.046-0.001c-0.048,0-0.092,0.014-0.126,0.05
				c-0.041,0.041-0.048,0.089-0.048,0.142c0,0.27,0,0.537,0,0.806c0,0.072-0.001,0.146,0,0.222c0.002,0.11,0.067,0.173,0.178,0.173
				C3.765,15.224,3.938,15.224,4.11,15.224z M7.581,13.152c0-0.173,0-0.348,0-0.523c0-0.117-0.066-0.184-0.186-0.184
				c-0.34,0-0.679,0-1.018,0c-0.121,0-0.188,0.066-0.188,0.188c0,0.347,0,0.691,0,1.04c0,0.106,0.059,0.164,0.166,0.164
				c0.12,0,0.241,0,0.36,0c0.234,0,0.47,0,0.704,0c0.1,0,0.16-0.06,0.16-0.158C7.581,13.501,7.581,13.328,7.581,13.152z
				 M2.107,15.802c-0.182,0-0.362,0-0.545,0c-0.064,0-0.126,0.011-0.184,0.043c-0.041,0.021-0.063,0.054-0.063,0.101
				c0.002,0.214,0.001,0.429,0,0.643c0,0.042,0.017,0.076,0.045,0.103c0.06,0.053,0.125,0.083,0.204,0.083c0.118,0,0.234,0,0.354,0
				c0.245,0,0.492,0,0.738,0c0.128,0,0.215-0.087,0.215-0.214c0-0.204-0.002-0.405,0-0.61c0.001-0.062-0.026-0.103-0.081-0.121
				c-0.044-0.014-0.09-0.022-0.136-0.024C2.473,15.802,2.29,15.802,2.107,15.802z M17.876,15.802c-0.179,0-0.359,0-0.537,0
				c-0.111,0.002-0.177,0.069-0.177,0.178c0,0.206,0,0.411,0,0.618c0,0.097,0.074,0.176,0.17,0.176c0.361,0,0.724,0,1.087,0
				c0.09,0,0.165-0.079,0.166-0.168c0-0.215,0.002-0.433-0.001-0.65c0-0.026-0.009-0.057-0.024-0.077
				c-0.037-0.056-0.09-0.076-0.153-0.076C18.23,15.802,18.052,15.802,17.876,15.802z M4.105,15.802c-0.177,0-0.353,0-0.529,0
				c-0.099,0-0.153,0.053-0.162,0.149c0,0.015,0,0.028,0,0.04c0,0.194,0,0.387,0,0.58c0,0.019,0,0.037,0.002,0.055
				c0.012,0.095,0.07,0.147,0.166,0.147c0.347,0,0.695,0,1.041,0c0.115,0,0.184-0.069,0.184-0.184c0-0.201,0-0.404,0-0.607
				c0-0.119-0.061-0.181-0.182-0.181C4.452,15.802,4.278,15.802,4.105,15.802z M15.927,15.802c-0.175,0-0.351,0-0.525,0
				c-0.112,0-0.178,0.063-0.178,0.174c-0.001,0.205-0.001,0.411,0,0.616c0.001,0.115,0.07,0.182,0.187,0.182
				c0.343,0,0.688,0,1.034,0c0.111,0,0.172-0.062,0.172-0.176c0-0.209,0-0.419,0-0.626c0-0.11-0.057-0.17-0.166-0.17
				C16.276,15.802,16.103,15.802,15.927,15.802z M10.655,10.446c0-0.326-0.263-0.59-0.587-0.59
				c-0.323,0.001-0.586,0.264-0.586,0.586c0,0.327,0.259,0.589,0.583,0.589C10.393,11.033,10.654,10.771,10.655,10.446z"/>
			<path fill-rule="evenodd" clip-rule="evenodd" fill="#CCCCCC" d="M12.32,16.014c0-0.193,0-0.389,0-0.587
				c0.001-0.108,0.065-0.173,0.177-0.173c0.346,0,0.694,0,1.04,0c0.109,0,0.175,0.064,0.175,0.173c0,0.392,0.001,0.782,0,1.173
				c0,0.107-0.065,0.174-0.175,0.174c-0.349,0-0.697,0-1.044,0c-0.106,0-0.172-0.064-0.173-0.172
				C12.32,16.406,12.32,16.209,12.32,16.014z"/>
			<path fill-rule="evenodd" clip-rule="evenodd" fill="#CCCCCC" d="M6.19,16.012c0-0.195,0-0.391,0-0.585
				c0-0.108,0.065-0.173,0.175-0.173c0.348,0,0.697,0,1.045,0c0.106,0,0.171,0.064,0.171,0.171c0,0.394,0,0.786,0,1.177
				c0,0.107-0.065,0.172-0.172,0.172c-0.349,0-0.697,0-1.046,0c-0.107,0-0.173-0.064-0.173-0.174
				C6.19,16.402,6.19,16.207,6.19,16.012z"/>
			<path fill-rule="evenodd" clip-rule="evenodd" fill="#CCCCCC" d="M18.585,14.543c0,0.174,0,0.349,0,0.522
				c0,0.112-0.078,0.19-0.191,0.19c-0.348,0.002-0.692,0.002-1.038,0c-0.115,0-0.193-0.078-0.193-0.197c0-0.342,0-0.685,0-1.025
				c0-0.123,0.077-0.201,0.2-0.201c0.342,0,0.684,0,1.027,0c0.119,0,0.195,0.078,0.195,0.199
				C18.585,14.2,18.585,14.372,18.585,14.543z"/>
			<path fill-rule="evenodd" clip-rule="evenodd" fill="#CCCCCC" d="M16.616,14.547c0,0.174,0.004,0.349-0.001,0.522
				c-0.001,0.041-0.019,0.088-0.038,0.126c-0.022,0.04-0.065,0.061-0.113,0.061c-0.357,0-0.716,0.002-1.074,0
				c-0.075,0-0.142-0.061-0.159-0.139c-0.005-0.022-0.007-0.045-0.007-0.068c-0.001-0.339-0.001-0.673,0-1.012
				c0-0.03,0.004-0.061,0.014-0.089c0.028-0.074,0.09-0.116,0.173-0.116c0.345,0,0.69,0,1.036,0c0.103,0.001,0.17,0.072,0.17,0.181
				C16.618,14.189,16.616,14.37,16.616,14.547z"/>
			<path fill-rule="evenodd" clip-rule="evenodd" fill="#CCCCCC" d="M9.109,13.837c-0.175,0-0.35,0-0.522,0
				c-0.112,0-0.171-0.058-0.171-0.166c0-0.347,0-0.691,0-1.036c0-0.123,0.066-0.189,0.188-0.189c0.339,0,0.679,0,1.018,0
				c0.118,0,0.185,0.066,0.185,0.184c0,0.351,0,0.697,0,1.046c0,0.104-0.059,0.162-0.163,0.162
				C9.465,13.837,9.287,13.837,9.109,13.837z"/>
			<path fill-rule="evenodd" clip-rule="evenodd" fill="#CCCCCC" d="M11.054,13.837c-0.173,0-0.348,0-0.521,0
				c-0.118,0-0.179-0.062-0.179-0.181c0-0.341,0-0.679,0-1.02c0-0.119,0.071-0.191,0.191-0.191c0.343,0,0.685,0.002,1.025,0
				c0.122-0.002,0.174,0.089,0.174,0.169c0,0.359,0,0.72,0,1.076c0,0.093-0.059,0.146-0.15,0.146
				C11.413,13.837,11.234,13.837,11.054,13.837z"/>
			<path fill-rule="evenodd" clip-rule="evenodd" fill="#CCCCCC" d="M12.32,13.152c0-0.173,0-0.344,0-0.518
				c0.001-0.129,0.06-0.189,0.188-0.189c0.335,0,0.672,0,1.009,0c0.125,0,0.195,0.07,0.195,0.197c0,0.343,0,0.686,0,1.028
				c0,0.099-0.063,0.164-0.164,0.166c-0.361,0-0.721,0-1.081,0c-0.089,0-0.146-0.058-0.146-0.15
				C12.32,13.507,12.32,13.33,12.32,13.152z"/>
			<path fill-rule="evenodd" clip-rule="evenodd" fill="#CCCCCC" d="M2.011,15.224c-0.173,0-0.346,0-0.519,0
				c-0.107,0-0.175-0.062-0.175-0.171c-0.002-0.349-0.002-0.697,0-1.046c0-0.11,0.068-0.174,0.183-0.175c0.188,0,0.374,0,0.562,0
				c0.151,0,0.306,0,0.457,0c0.128,0,0.19,0.062,0.19,0.191c0,0.338,0,0.681,0,1.021c0,0.116-0.063,0.179-0.179,0.179
				C2.357,15.224,2.185,15.224,2.011,15.224z"/>
			<path fill-rule="evenodd" clip-rule="evenodd" fill="#CCCCCC" d="M4.11,15.224c-0.173,0-0.346,0-0.519,0
				c-0.11,0-0.176-0.062-0.178-0.173c-0.001-0.075,0-0.149,0-0.222c0-0.269,0-0.536,0-0.806c0-0.053,0.007-0.101,0.048-0.142
				c0.034-0.036,0.078-0.05,0.126-0.05c0.348,0,0.697,0,1.046,0.001c0.11,0,0.173,0.069,0.173,0.18c0,0.345,0,0.689,0,1.034
				c0,0.112-0.064,0.177-0.177,0.177C4.457,15.224,4.283,15.224,4.11,15.224z"/>
			<path fill-rule="evenodd" clip-rule="evenodd" fill="#CCCCCC" d="M7.581,13.152c0,0.176,0,0.349,0,0.526
				c0,0.099-0.061,0.158-0.16,0.158c-0.234,0-0.47,0-0.704,0c-0.119,0-0.24,0-0.36,0c-0.107,0-0.166-0.058-0.166-0.164
				c0-0.349,0-0.693,0-1.04c0-0.121,0.066-0.188,0.188-0.188c0.339,0,0.678,0,1.018,0c0.119,0,0.186,0.066,0.186,0.184
				C7.581,12.805,7.581,12.979,7.581,13.152z"/>
			<path fill-rule="evenodd" clip-rule="evenodd" fill="#CCCCCC" d="M2.107,15.802c0.183,0,0.365,0,0.547,0.002
				c0.046,0.002,0.092,0.011,0.136,0.024c0.055,0.019,0.082,0.059,0.081,0.121c-0.002,0.205,0,0.406,0,0.61
				c0,0.127-0.087,0.214-0.215,0.214c-0.246,0-0.493,0-0.738,0c-0.119,0-0.235,0-0.354,0c-0.079,0-0.145-0.03-0.204-0.083
				c-0.028-0.026-0.045-0.061-0.045-0.103c0.001-0.214,0.002-0.429,0-0.643c0-0.047,0.022-0.08,0.063-0.101
				c0.058-0.032,0.119-0.043,0.184-0.043C1.745,15.802,1.926,15.802,2.107,15.802z"/>
			<path fill-rule="evenodd" clip-rule="evenodd" fill="#CCCCCC" d="M17.876,15.802c0.176,0,0.354,0,0.53,0
				c0.063,0,0.116,0.021,0.153,0.076c0.016,0.021,0.024,0.051,0.024,0.077c0.003,0.218,0.001,0.436,0.001,0.65
				c-0.001,0.089-0.076,0.168-0.166,0.168c-0.363,0-0.726,0-1.087,0c-0.096,0-0.17-0.079-0.17-0.176c0-0.207,0-0.412,0-0.618
				c0-0.108,0.065-0.176,0.177-0.178C17.517,15.802,17.697,15.802,17.876,15.802z"/>
			<path fill-rule="evenodd" clip-rule="evenodd" fill="#CCCCCC" d="M4.105,15.802c0.173,0,0.347,0,0.52,0
				c0.121,0,0.182,0.062,0.182,0.181c0,0.203,0,0.406,0,0.607c0,0.114-0.068,0.184-0.184,0.184c-0.346,0-0.694,0-1.041,0
				c-0.096,0-0.154-0.053-0.166-0.147c-0.002-0.018-0.002-0.036-0.002-0.055c0-0.193,0-0.386,0-0.58c0-0.012,0-0.025,0-0.04
				c0.009-0.097,0.063-0.149,0.162-0.149C3.753,15.802,3.929,15.802,4.105,15.802z"/>
			<path fill-rule="evenodd" clip-rule="evenodd" fill="#CCCCCC" d="M15.927,15.802c0.176,0,0.35,0,0.523,0
				c0.109,0,0.166,0.06,0.166,0.17c0,0.207,0,0.417,0,0.626c0,0.113-0.061,0.176-0.172,0.176c-0.347,0-0.691,0-1.034,0
				c-0.116,0-0.186-0.066-0.187-0.182c-0.001-0.205-0.001-0.411,0-0.616c0-0.11,0.065-0.174,0.178-0.174
				C15.576,15.802,15.752,15.802,15.927,15.802z"/>
			<circle fill-rule="evenodd" clip-rule="evenodd" fill="#CCCCCC" cx="10.069" cy="10.444" r="0.586"/>
			<path fill-rule="evenodd" clip-rule="evenodd" fill="#1E3F75" d="M10.085,19.289c-1.861,0-3.723,0-5.583,0
				c-0.027,0-0.058-0.004-0.076-0.018c-0.02-0.014-0.037-0.042-0.038-0.066c-0.004-0.085-0.002-0.169-0.001-0.254
				c0.001-0.046,0.031-0.076,0.08-0.083c0.017,0,0.031,0,0.047,0c3.691,0,7.383,0,11.072,0c0.037,0,0.07,0,0.106,0.002
				c0.048,0.002,0.08,0.029,0.081,0.077c0.003,0.085,0.003,0.171,0.001,0.254c-0.001,0.064-0.03,0.088-0.102,0.088
				C13.811,19.289,11.947,19.289,10.085,19.289z"/>
			<path fill-rule="evenodd" clip-rule="evenodd" fill="#1E3F75" d="M10.085,18.707c-1.675,0-3.351,0-5.026,0
				c-0.015,0-0.03,0.002-0.046,0c-0.057-0.004-0.079-0.029-0.079-0.087c-0.001-0.067-0.001-0.137,0-0.205
				c0-0.084,0.043-0.127,0.125-0.127c3.327,0,6.656,0,9.985,0c0.03,0,0.059,0.002,0.088,0.002c0.053,0.002,0.09,0.034,0.091,0.087
				c0.002,0.091,0.002,0.18,0.002,0.268c0,0.031-0.017,0.053-0.046,0.057c-0.021,0.006-0.043,0.006-0.064,0.006
				C13.437,18.707,11.762,18.707,10.085,18.707z"/>
		</g>
	</g>
</g>
</svg>
