<?xml version="1.0" encoding="utf-8"?>
<!-- Generator: Adobe Illustrator 16.0.0, SVG Export Plug-In . SVG Version: 6.00 Build 0)  -->
<!DOCTYPE svg PUBLIC "-//W3C//DTD SVG 1.1//EN" "http://www.w3.org/Graphics/SVG/1.1/DTD/svg11.dtd">
<svg version="1.1" id="Layer_1" xmlns="http://www.w3.org/2000/svg" xmlns:xlink="http://www.w3.org/1999/xlink" x="0px" y="0px"
	 width="20px" height="20px" viewBox="0 0 20 20" enable-background="new 0 0 20 20" xml:space="preserve">
<g>
	<path fill-rule="evenodd" clip-rule="evenodd" fill="#1E3F75" d="M0.442,6.746c0.016-0.01,0.017-0.027,0.021-0.043
		C0.52,6.51,0.682,6.387,0.882,6.387c0.274,0,0.549,0,0.823,0c0.243,0,0.433,0.193,0.429,0.438c0,0.023,0,0.049,0,0.074
		c0,2.24,0,4.482,0,6.723c0,0.098-0.009,0.084,0.085,0.084c5.626,0,11.252,0,16.878,0c0.072,0,0.144,0.006,0.21,0.039
		c0.129,0.061,0.215,0.156,0.242,0.301c0.002,0.006,0.006,0.012,0.009,0.018c0,1.254,0,2.51,0,3.762
		c-0.01,0.09-0.028,0.168-0.096,0.238c-0.102,0.104-0.226,0.145-0.364,0.146c-0.252,0.004-0.506,0.002-0.759,0
		c-0.179-0.002-0.326-0.068-0.424-0.227c-0.042-0.066-0.06-0.139-0.06-0.219c0-0.73,0-1.463,0-2.195c0-0.15-0.003-0.154-0.154-0.154
		c-5.131,0-10.263,0-15.395,0c-0.148,0-0.153,0.006-0.153,0.15c0,0.766,0,1.531,0,2.297c0,0.18-0.084,0.307-0.235,0.393
		c-0.056,0.033-0.119,0.027-0.18,0.035c-0.293,0-0.587,0-0.881,0c-0.144,0.008-0.254-0.053-0.343-0.162
		c-0.032-0.041-0.055-0.084-0.059-0.137c-0.002-0.021-0.003-0.045-0.015-0.064C0.442,14.199,0.442,10.473,0.442,6.746z"/>
	<path fill-rule="evenodd" clip-rule="evenodd" fill="#178DBE" d="M15.172,1.705C15.009,2,14.887,2.312,14.814,2.641
		c-0.078,0.357-0.101,0.72-0.061,1.084c0.093,0.83,0.444,1.538,1.052,2.108c0.519,0.487,1.135,0.78,1.841,0.876
		c0.127,0.02,0.256,0.024,0.385,0.031c0.008,0.002,0.016,0,0.024,0.002c0.031,0.003,0.033,0.008,0.018,0.039
		c-0.005,0.012-0.011,0.021-0.017,0.033c-0.42,0.667-0.998,1.142-1.738,1.418c-0.298,0.11-0.606,0.175-0.927,0.194
		c-0.897,0.053-1.693-0.209-2.381-0.789c-0.609-0.512-0.999-1.166-1.137-1.95c-0.188-1.051,0.061-1.999,0.754-2.812
		c0.513-0.604,1.166-0.97,1.944-1.116c0.111-0.023,0.226-0.038,0.34-0.043c0.018-0.002,0.038,0,0.054-0.012
		C15.034,1.705,15.104,1.705,15.172,1.705z"/>
	<path fill-rule="evenodd" clip-rule="evenodd" fill="#E1E1E1" d="M0.842,18.295c0-0.004,0-0.006,0-0.01
		c0.049,0,0.099-0.002,0.148-0.002c0.229,0,0.457,0,0.686,0c0.021,0,0.042,0.002,0.064,0.002c0,0.004,0,0.006,0,0.01
		C1.44,18.295,1.141,18.295,0.842,18.295z"/>
	<path fill-rule="evenodd" clip-rule="evenodd" fill="#1E3F75" d="M13.136,13.293c-1.7,0-3.399,0-5.101,0
		c-0.206,0-0.351-0.135-0.369-0.342c-0.001-0.016-0.001-0.035-0.001-0.053c0-1.322,0-2.646,0-3.969c0-0.088,0.016-0.168,0.073-0.236
		c0.064-0.078,0.146-0.121,0.247-0.121c0.349,0,0.699-0.006,1.048,0.004c0.317,0.01,0.634,0.021,0.951,0.043
		c0.241,0.016,0.481,0.033,0.722,0.055c0.242,0.021,0.482,0.047,0.724,0.076c0.291,0.035,0.581,0.074,0.87,0.119
		c0.521,0.082,1.037,0.184,1.55,0.309c0.562,0.139,1.112,0.307,1.647,0.523c0.473,0.189,0.927,0.414,1.35,0.697
		c0.361,0.242,0.689,0.521,0.963,0.861c0.286,0.357,0.49,0.756,0.594,1.203c0.043,0.182,0.07,0.365,0.075,0.551
		c0.001,0.043-0.005,0.088-0.02,0.129c-0.027,0.086-0.086,0.129-0.177,0.135c-0.103,0.006-0.203,0.004-0.304,0.004
		c-0.212,0.004-0.424,0.002-0.635,0.002c-0.587,0.002-1.175,0-1.762,0.004c-0.755,0.006-1.51,0.002-2.266,0.004
		c-0.06,0-0.119,0-0.18,0V13.293z"/>
	<path fill-rule="evenodd" clip-rule="evenodd" fill="#1E3F75" d="M3.143,9.857c-0.004-0.846,0.693-1.525,1.53-1.52
		c0.817,0.006,1.52,0.674,1.508,1.543c-0.013,0.838-0.705,1.512-1.549,1.496C3.795,11.361,3.137,10.672,3.143,9.857z"/>
	<path fill-rule="evenodd" clip-rule="evenodd" fill="#178DBE" d="M4.301,13.293c-0.409,0-0.818,0-1.228,0
		c-0.149,0.002-0.26-0.066-0.342-0.188c-0.041-0.059-0.056-0.125-0.056-0.199c0.001-0.365,0.001-0.734,0.001-1.102
		c0-0.064,0-0.129-0.001-0.193c-0.004-0.223,0.227-0.359,0.396-0.33c0.431,0.072,0.863,0.137,1.295,0.207
		c0.348,0.055,0.696,0.109,1.044,0.164c0.054,0.01,0.108,0.018,0.163,0.023c0.144,0.016,0.266,0.139,0.28,0.281
		c0.001,0.018,0.001,0.033,0.001,0.051c0,0.307,0,0.611,0,0.918c0,0.098-0.027,0.188-0.091,0.264
		c-0.058,0.07-0.133,0.104-0.227,0.104C5.125,13.293,4.713,13.293,4.301,13.293z"/>
	<path fill-rule="evenodd" clip-rule="evenodd" fill="#178DBE" d="M6.541,10.91c0-0.662,0.001-1.326,0-1.99
		c0-0.104,0.032-0.193,0.11-0.264c0.059-0.053,0.127-0.084,0.208-0.084c0.073,0,0.146-0.002,0.22,0c0.146,0,0.278,0.107,0.309,0.252
		c0.008,0.033,0.011,0.068,0.011,0.104c0,1.324,0,2.648,0,3.973c0,0.164-0.091,0.293-0.237,0.336
		c-0.012,0.004-0.025,0.008-0.039,0.01c-0.101,0.012-0.203,0.014-0.303,0c-0.158-0.023-0.271-0.154-0.277-0.314
		c-0.001-0.018-0.001-0.035-0.001-0.055C6.541,12.221,6.541,11.566,6.541,10.91z"/>
	<path fill-rule="evenodd" clip-rule="evenodd" fill="#178DBE" d="M11.357,4.487c-0.024,0.027-0.049,0.031-0.069,0.037
		c-0.08,0.024-0.16,0.05-0.24,0.071c-0.042,0.012-0.063,0.037-0.075,0.076c-0.027,0.087-0.055,0.174-0.084,0.261
		c-0.004,0.014-0.005,0.03-0.019,0.042c-0.024,0-0.029-0.02-0.041-0.033c-0.047-0.07-0.1-0.141-0.146-0.213
		c-0.031-0.054-0.07-0.067-0.129-0.065c-0.079,0.006-0.157,0.004-0.236,0.004c-0.018,0-0.038,0.002-0.056-0.006
		c-0.007-0.025,0.011-0.037,0.021-0.051c0.05-0.067,0.098-0.135,0.151-0.199c0.035-0.042,0.045-0.078,0.025-0.131
		c-0.028-0.073-0.052-0.148-0.075-0.222c-0.007-0.025-0.02-0.046-0.014-0.071c0.02-0.014,0.036-0.002,0.055,0.004
		c0.081,0.027,0.165,0.056,0.248,0.087c0.041,0.02,0.077,0.014,0.113-0.014c0.071-0.057,0.145-0.109,0.218-0.163
		c0.043-0.027,0.055-0.022,0.052,0.028c-0.001,0.087-0.003,0.177-0.008,0.264c-0.002,0.047,0.011,0.081,0.051,0.108
		C11.185,4.358,11.27,4.423,11.357,4.487z"/>
	<path fill-rule="evenodd" clip-rule="evenodd" fill="#178DBE" d="M17.814,5.199c-0.094-0.003-0.18-0.024-0.263-0.043
		c-0.061-0.01-0.101,0-0.14,0.043c-0.047,0.055-0.101,0.101-0.148,0.15c-0.014,0.015-0.025,0.036-0.056,0.03
		c-0.02-0.076-0.031-0.16-0.037-0.242C17.165,5.067,17.137,5.024,17.07,5c-0.079-0.033-0.154-0.077-0.237-0.119
		c0.063-0.05,0.127-0.071,0.185-0.102c0.14-0.067,0.14-0.067,0.162-0.221c0.013-0.064,0.017-0.129,0.035-0.189
		c0.037,0.002,0.05,0.03,0.07,0.051c0.045,0.047,0.092,0.093,0.134,0.142c0.032,0.037,0.066,0.052,0.115,0.04
		c0.078-0.016,0.154-0.024,0.231-0.037c0.017-0.003,0.03-0.01,0.045,0c0.017,0.018,0,0.034-0.007,0.049
		c-0.031,0.062-0.061,0.123-0.097,0.179c-0.041,0.063-0.039,0.118,0.002,0.18c0.032,0.05,0.055,0.103,0.079,0.151
		C17.8,5.144,17.814,5.165,17.814,5.199z"/>
	<path fill-rule="evenodd" clip-rule="evenodd" fill="#178DBE" d="M16.044,3.879c-0.047-0.047-0.076-0.099-0.107-0.145
		c-0.024-0.043-0.06-0.062-0.108-0.059c-0.055,0.003-0.108,0.003-0.167,0.003c0-0.052,0.032-0.079,0.059-0.104
		c0.065-0.067,0.08-0.138,0.039-0.224c-0.019-0.033-0.033-0.069-0.031-0.116c0.043,0,0.077,0.018,0.113,0.03
		c0.144,0.05,0.101,0.05,0.222-0.033c0.031-0.019,0.056-0.049,0.099-0.056c0.013,0.059,0.008,0.114,0.004,0.173
		c-0.001,0.045,0.014,0.076,0.053,0.104c0.047,0.033,0.101,0.061,0.145,0.109c-0.051,0.035-0.104,0.046-0.158,0.057
		c-0.057,0.015-0.086,0.046-0.103,0.104C16.09,3.771,16.08,3.822,16.044,3.879z"/>
	<path fill-rule="evenodd" clip-rule="evenodd" fill="#178DBE" d="M12.141,1.937c0.017,0.048,0.011,0.087,0.007,0.129
		c-0.001,0.036,0.011,0.065,0.042,0.084c0.036,0.023,0.068,0.051,0.111,0.081c-0.039,0.029-0.08,0.034-0.116,0.043
		c-0.048,0.011-0.075,0.036-0.086,0.084c-0.008,0.036-0.017,0.075-0.04,0.109c-0.041-0.026-0.057-0.062-0.077-0.096
		c-0.025-0.039-0.055-0.06-0.1-0.054c-0.01,0.004-0.02,0.004-0.028,0c-0.027-0.002-0.063,0.015-0.08-0.014
		c-0.009-0.025,0.02-0.048,0.037-0.063c0.05-0.052,0.059-0.104,0.028-0.169c-0.013-0.021-0.024-0.048-0.019-0.075
		c0.015-0.014,0.031-0.006,0.045,0c0.152,0.05,0.108,0.054,0.238-0.037C12.111,1.953,12.123,1.948,12.141,1.937z"/>
	<path fill-rule="evenodd" clip-rule="evenodd" fill="#178DBE" d="M17.66,2.787c-0.025,0.031-0.058,0.033-0.086,0.04
		c-0.062,0.009-0.094,0.046-0.107,0.107c-0.005,0.027-0.013,0.059-0.034,0.088c-0.036-0.027-0.055-0.063-0.073-0.095
		c-0.025-0.036-0.054-0.055-0.098-0.052c-0.036,0-0.072,0.006-0.11-0.009c-0.003-0.04,0.027-0.065,0.051-0.089
		c0.035-0.04,0.037-0.08,0.02-0.129c-0.014-0.031-0.025-0.062-0.027-0.103c0.041-0.005,0.072,0.013,0.105,0.029
		c0.051,0.021,0.09,0.015,0.128-0.019c0.025-0.021,0.049-0.049,0.093-0.056c0.013,0.037,0.007,0.076,0.006,0.114
		c-0.002,0.045,0.013,0.078,0.053,0.101C17.608,2.738,17.643,2.753,17.66,2.787z"/>
</g>
</svg>
