<?xml version="1.0" encoding="UTF-8"?>
<svg width="20px" height="20px" viewBox="0 0 20 20" version="1.1" xmlns="http://www.w3.org/2000/svg" xmlns:xlink="http://www.w3.org/1999/xlink">
    <!-- Generator: Sketch 46.2 (44496) - http://www.bohemiancoding.com/sketch -->
    <title>boys-school-campaign-icon</title>
    <desc>Created with Sketch.</desc>
    <defs></defs>
    <g id="Page-1" stroke="none" stroke-width="1" fill="none" fill-rule="evenodd">
        <g id="4.-Admin-School-Profile-Copy" transform="translate(-385.000000, -223.000000)" fill-rule="nonzero">
            <g id="boys-school-campaign-icon" transform="translate(385.000000, 223.000000)">
                <g id="Group" transform="translate(0.000000, 1.000000)" fill="#F3B322">
                    <g transform="translate(10.000000, 0.000000)" id="Shape">
                        <path d="M6.379,2.915 C6.379,4.038 5.613,4.948 4.668,4.948 C3.725,4.948 2.957,4.038 2.957,2.915 C2.957,1.794 3.139,0.884 4.668,0.884 C6.273,0.884 6.379,1.794 6.379,2.915 Z"></path>
                        <path d="M7.653,6.397 C7.332,5.81 6.24,5.569 4.884,5.569 C3.62,5.569 2.521,5.81 2.165,6.397 L0.356,11.257 C0.249,11.513 0.419,11.827 0.737,11.961 C1.053,12.095 1.397,11.999 1.505,11.745 L2.414,9.443 C2.414,9.443 2.52,9.32 2.538,9.604 C2.555,9.891 2.68,17.759 2.68,17.759 C2.68,18.038 3.053,18.267 3.51,18.267 C3.967,18.267 4.337,18.038 4.337,17.759 L4.606,13.419 C4.606,13.236 4.736,13.089 4.899,13.089 C5.062,13.089 5.193,13.236 5.193,13.419 L5.463,17.759 C5.463,18.038 5.832,18.267 6.292,18.267 C6.747,18.267 7.119,18.038 7.119,17.759 L7.26,9.551 C7.26,9.551 7.26,9.213 7.367,9.443 C7.475,9.677 8.293,11.745 8.293,11.745 C8.4,11.998 8.745,12.095 9.062,11.961 C9.379,11.827 9.547,11.513 9.441,11.257 L7.653,6.397 Z"></path>
                    </g>
                    <g id="Shape">
                        <path d="M8.917,2.915 C8.917,4.026 8.158,4.927 7.222,4.927 C6.286,4.927 5.528,4.025 5.528,2.915 C5.528,1.805 5.705,0.903 7.222,0.903 C8.811,0.902 8.917,1.804 8.917,2.915 Z"></path>
                        <path d="M0.68,5.056 C0.47,4.881 0.478,4.527 0.696,4.264 C0.914,4.002 1.262,3.932 1.472,4.107 L3.128,5.524 C3.339,5.7 5.123,5.7 5.369,5.683 C5.618,5.665 7.236,5.692 7.236,5.692 C8.578,5.692 9.658,5.93 9.974,6.513 L11.747,11.325 C11.852,11.578 11.685,11.889 11.37,12.023 C11.055,12.155 10.714,12.059 10.608,11.808 C10.608,11.808 9.799,9.761 9.693,9.531 C9.587,9.301 9.587,9.637 9.587,9.637 L9.446,17.765 C9.446,18.043 9.079,18.268 8.625,18.268 C8.171,18.268 7.805,18.043 7.805,17.765 L7.54,13.467 C7.54,13.285 7.41,13.139 7.25,13.139 C7.088,13.139 6.958,13.285 6.958,13.467 L6.694,17.764 C6.694,18.042 6.326,18.267 5.873,18.267 C5.42,18.267 5.052,18.042 5.052,17.764 C5.052,17.764 4.928,9.971 4.91,9.688 C4.91,9.688 5.016,7.748 4.363,7.482 C4.363,7.482 2.916,7.129 2.353,6.617 C1.787,6.106 0.68,5.056 0.68,5.056 Z"></path>
                    </g>
                </g>
                <g id="Group" transform="translate(5.000000, 0.000000)" fill="#1CADF8">
                    <path d="M7.819,2.452 C7.819,3.698 6.968,4.709 5.92,4.709 C4.871,4.709 4.022,3.698 4.022,2.452 C4.022,1.208 4.22,0.2 5.92,0.2 C7.699,0.199 7.819,1.208 7.819,2.452 Z" id="Shape"></path>
                    <path d="M9.105,6.315 C8.746,5.664 7.537,5.396 6.032,5.396 C4.628,5.396 3.407,5.664 3.013,6.315 L1.008,11.707 C0.888,11.992 1.076,12.34 1.428,12.489 C1.781,12.636 2.163,12.531 2.282,12.249 L3.29,9.696 C3.29,9.696 3.408,9.558 3.428,9.874 C3.448,10.193 3.587,18.922 3.587,18.922 C3.587,19.232 3.999,19.485 4.506,19.485 C5.012,19.485 5.425,19.231 5.425,18.922 L5.723,14.107 C5.723,13.904 5.867,13.741 6.048,13.741 C6.229,13.741 6.376,13.904 6.376,14.107 L6.672,18.922 C6.672,19.232 7.084,19.485 7.592,19.485 C8.098,19.485 8.511,19.231 8.511,18.922 L8.668,9.816 C8.668,9.816 8.668,9.44 8.788,9.696 C8.906,9.956 9.812,12.25 9.812,12.25 C9.93,12.532 10.314,12.637 10.664,12.49 C11.018,12.341 11.203,11.993 11.087,11.708 L9.105,6.315 Z" id="Shape"></path>
                </g>
            </g>
        </g>
    </g>
</svg>