<?xml version="1.0" encoding="UTF-8"?>
<svg width="20px" height="18px" viewBox="0 0 20 18" version="1.1" xmlns="http://www.w3.org/2000/svg" xmlns:xlink="http://www.w3.org/1999/xlink">
    <!-- Generator: Sketch 46.2 (44496) - http://www.bohemiancoding.com/sketch -->
    <title>curriculum-campaign-icon</title>
    <desc>Created with Sketch.</desc>
    <defs></defs>
    <g id="Page-1" stroke="none" stroke-width="1" fill="none" fill-rule="evenodd">
        <g id="4.-Admin-School-Profile-Copy" transform="translate(-290.000000, -295.000000)" fill-rule="nonzero">
            <g id="curriculum-campaign-icon" transform="translate(290.000000, 295.000000)">
                <path d="M0.312,16.734 C0.312,12.254 0.312,5.833 0.312,1.355 C0.36,1.234 0.398,1.21 0.534,1.208 C0.682,1.208 0.832,1.21 0.982,1.208 C1.088,1.208 1.106,1.188 1.107,1.081 C1.107,1.052 1.106,1.022 1.108,0.994 C1.114,0.897 1.182,0.83 1.281,0.83 C1.443,0.832 1.606,0.82 1.767,0.837 C1.776,0.839 1.786,0.839 1.794,0.839 C1.897,0.841 1.919,0.819 1.92,0.716 C1.921,0.629 1.92,0.54 1.92,0.451 C1.921,0.318 1.981,0.251 2.111,0.233 C2.121,0.231 2.132,0.235 2.141,0.227 C2.279,0.227 2.416,0.227 2.554,0.227 C2.604,0.239 2.657,0.229 2.707,0.231 C2.769,0.231 2.83,0.231 2.892,0.231 C3.129,0.235 3.366,0.244 3.602,0.249 C3.932,0.257 4.259,0.291 4.587,0.328 C5.028,0.374 5.467,0.441 5.903,0.524 C6.599,0.655 7.281,0.835 7.947,1.069 C8.293,1.191 8.63,1.327 8.959,1.485 C9.265,1.629 9.561,1.79 9.846,1.974 C9.91,2.014 9.969,2.06 10.03,2.101 C10.089,2.139 10.112,2.141 10.168,2.103 C10.482,1.883 10.816,1.697 11.161,1.529 C11.682,1.277 12.221,1.071 12.775,0.899 C13.288,0.739 13.81,0.612 14.339,0.511 C14.799,0.422 15.263,0.356 15.73,0.307 C16.062,0.273 16.392,0.247 16.728,0.243 C16.874,0.243 17.021,0.235 17.168,0.232 C17.23,0.232 17.29,0.232 17.355,0.232 C17.402,0.23 17.451,0.24 17.498,0.228 C17.629,0.228 17.76,0.228 17.889,0.228 C17.905,0.238 17.919,0.232 17.936,0.236 C18.055,0.258 18.121,0.333 18.123,0.454 C18.125,0.545 18.123,0.634 18.125,0.724 C18.125,0.817 18.146,0.833 18.235,0.829 C18.389,0.825 18.543,0.825 18.696,0.829 C18.811,0.834 18.9,0.931 18.9,1.046 C18.9,1.05 18.9,1.052 18.9,1.056 C18.902,1.197 18.913,1.207 19.058,1.207 C19.191,1.207 19.325,1.207 19.457,1.207 C19.474,1.207 19.489,1.207 19.505,1.207 C19.617,1.211 19.661,1.246 19.687,1.354 C19.687,5.832 19.687,12.254 19.687,16.732 C19.663,16.871 19.611,16.912 19.468,16.912 C16.81,16.912 14.152,16.912 11.492,16.912 C11.309,16.912 11.315,16.912 11.229,17.074 C11.067,17.375 10.837,17.601 10.514,17.72 C10.41,17.757 10.299,17.759 10.192,17.769 C10.112,17.769 10.033,17.769 9.955,17.769 C9.615,17.771 9.351,17.617 9.127,17.376 C9.029,17.271 8.948,17.149 8.89,17.017 C8.856,16.941 8.803,16.906 8.719,16.91 C8.688,16.914 8.655,16.912 8.622,16.912 C5.932,16.912 3.241,16.912 0.551,16.912 C0.503,16.912 0.455,16.912 0.41,16.887 C0.35,16.855 0.324,16.799 0.312,16.734 Z" id="Shape" fill="#1CADF8"></path>
                <path d="M10.195,17.764 C10.194,17.768 10.194,17.77 10.195,17.774 C10.115,17.774 10.036,17.774 9.956,17.774 C9.958,17.77 9.957,17.768 9.956,17.764 C10.036,17.764 10.115,17.764 10.195,17.764 Z" id="Shape" fill="#888888"></path>
                <path d="M2.902,0.228 C2.902,0.23 2.902,0.234 2.902,0.236 C2.838,0.238 2.772,0.238 2.708,0.238 C2.699,0.234 2.698,0.232 2.707,0.228 C2.771,0.228 2.837,0.228 2.902,0.228 Z" id="Shape" fill="#D1D1D1"></path>
                <path d="M17.161,0.238 C17.164,0.234 17.164,0.23 17.164,0.228 C17.228,0.228 17.292,0.228 17.357,0.228 C17.359,0.23 17.361,0.232 17.365,0.234 C17.361,0.234 17.359,0.236 17.355,0.236 C17.29,0.238 17.227,0.243 17.161,0.238 Z" id="Shape" fill="#CFCFCF"></path>
                <path d="M2.707,0.228 C2.707,0.232 2.707,0.234 2.708,0.238 C2.657,0.236 2.604,0.248 2.556,0.228 C2.605,0.228 2.656,0.228 2.707,0.228 Z" id="Shape" fill="#878787"></path>
                <path d="M17.355,0.236 C17.355,0.234 17.357,0.23 17.357,0.228 C17.404,0.228 17.453,0.228 17.498,0.228 C17.453,0.247 17.404,0.236 17.355,0.236 Z" id="Shape" fill="#858585"></path>
                <path d="M9.998,16.051 C9.951,16.035 9.908,16.022 9.866,16.006 C9.276,15.797 8.674,15.635 8.061,15.51 C7.596,15.41 7.129,15.33 6.66,15.262 C6.301,15.211 5.94,15.166 5.58,15.127 C5.21,15.086 4.84,15.053 4.469,15.025 C4.172,15 3.875,14.982 3.577,14.963 C3.229,14.943 2.882,14.93 2.533,14.914 C2.479,14.91 2.425,14.91 2.371,14.908 C2.329,14.904 2.329,14.904 2.327,14.865 C2.327,14.847 2.327,14.832 2.327,14.816 C2.327,10.759 2.327,4.766 2.327,0.71 C2.327,0.696 2.327,0.68 2.327,0.661 C2.329,0.621 2.33,0.619 2.373,0.619 C2.557,0.623 2.741,0.627 2.925,0.634 C3.056,0.636 3.188,0.644 3.319,0.65 C3.552,0.662 3.785,0.681 4.017,0.701 C4.261,0.722 4.505,0.747 4.748,0.778 C5.073,0.821 5.398,0.871 5.722,0.929 C6.346,1.044 6.961,1.194 7.566,1.385 C8.109,1.559 8.64,1.767 9.151,2.023 C9.421,2.158 9.684,2.306 9.931,2.478 C9.945,2.488 9.957,2.498 9.971,2.506 C9.997,2.522 10.007,2.545 10.005,2.572 C10.003,2.589 10.005,2.602 10.005,2.617 C10.005,6.416 10.005,12.159 10.004,15.957 C10.005,15.986 10.008,16.016 9.998,16.051 Z" id="Shape" fill="#F3B322"></path>
                <path d="M10.413,16.045 C10.407,16.027 10.409,16.006 10.409,15.986 C10.409,12.17 10.409,6.408 10.408,2.591 C10.408,2.526 10.428,2.48 10.473,2.44 C10.556,2.367 10.648,2.308 10.742,2.254 C11.012,2.094 11.292,1.961 11.579,1.836 C12.003,1.648 12.433,1.479 12.874,1.332 C13.35,1.174 13.833,1.045 14.322,0.946 C14.734,0.862 15.152,0.797 15.575,0.746 C15.978,0.7 16.382,0.667 16.788,0.647 C17.01,0.637 17.232,0.629 17.455,0.625 C17.514,0.625 17.57,0.623 17.633,0.621 C17.682,0.621 17.682,0.623 17.684,0.674 C17.684,0.686 17.684,0.696 17.684,0.706 C17.684,4.766 17.684,10.765 17.684,14.825 C17.684,14.911 17.684,14.911 17.596,14.913 C17.251,14.925 16.908,14.944 16.565,14.966 C16.331,14.982 16.096,14.995 15.862,15.015 C15.596,15.036 15.33,15.062 15.065,15.085 C14.788,15.11 14.51,15.142 14.235,15.175 C13.889,15.218 13.544,15.265 13.201,15.323 C12.825,15.384 12.448,15.45 12.078,15.53 C11.653,15.624 11.233,15.727 10.826,15.872 C10.69,15.919 10.557,15.972 10.435,16.046 C10.429,16.049 10.424,16.051 10.413,16.045 Z" id="Shape" fill="#FEFEFE"></path>
                <path d="M12.975,15.773 C12.995,15.769 13.01,15.761 13.026,15.759 C13.505,15.675 13.981,15.607 14.464,15.544 C14.819,15.501 15.174,15.462 15.528,15.431 C15.774,15.41 16.018,15.386 16.264,15.37 C16.466,15.354 16.669,15.345 16.873,15.335 C17.07,15.321 17.269,15.312 17.471,15.302 C17.588,15.298 17.709,15.294 17.831,15.29 C17.891,15.288 17.947,15.269 17.999,15.235 C18.053,15.196 18.086,15.147 18.084,15.075 C18.084,15.046 18.084,15.014 18.084,14.987 C18.084,11.106 18.084,5.279 18.084,1.397 C18.084,1.371 18.084,1.344 18.084,1.316 C18.086,1.266 18.098,1.256 18.15,1.25 C18.168,1.248 18.185,1.246 18.204,1.246 C18.269,1.246 18.338,1.246 18.402,1.246 C18.462,1.246 18.472,1.254 18.472,1.316 C18.472,1.329 18.472,1.341 18.472,1.353 C18.472,5.399 18.472,11.388 18.472,15.431 C18.472,15.437 18.472,15.445 18.472,15.451 C18.472,15.535 18.467,15.537 18.384,15.541 C18.121,15.549 17.857,15.557 17.595,15.566 C17.406,15.572 17.214,15.578 17.025,15.586 C16.755,15.596 16.488,15.609 16.22,15.621 C15.976,15.631 15.73,15.641 15.484,15.65 C15.228,15.664 14.974,15.677 14.716,15.691 C14.532,15.701 14.349,15.707 14.165,15.714 C13.995,15.722 13.827,15.735 13.66,15.743 C13.502,15.753 13.345,15.761 13.184,15.77 C13.147,15.77 13.112,15.774 13.079,15.774 C13.044,15.777 13.012,15.783 12.975,15.773 Z" id="Shape" fill="#178DBE"></path>
            </g>
        </g>
    </g>
</svg>