<?xml version="1.0" encoding="utf-8"?>
<!-- Generator: Adobe Illustrator 16.0.0, SVG Export Plug-In . SVG Version: 6.00 Build 0)  -->
<!DOCTYPE svg PUBLIC "-//W3C//DTD SVG 1.1//EN" "http://www.w3.org/Graphics/SVG/1.1/DTD/svg11.dtd">
<svg version="1.1" id="Layer_1" xmlns="http://www.w3.org/2000/svg" xmlns:xlink="http://www.w3.org/1999/xlink" x="0px" y="0px"
	 width="20px" height="20px" viewBox="0 0 20 20" enable-background="new 0 0 20 20" xml:space="preserve">
<g>
	<g>
		<path fill="#1E3F75" d="M0.312,17.019c0-4.479,0-8.959,0-13.437C0.36,3.461,0.398,3.437,0.534,3.435c0.148,0,0.298,0.002,0.448,0
			c0.106,0,0.124-0.02,0.125-0.127c0-0.029-0.001-0.059,0.001-0.087c0.006-0.097,0.074-0.164,0.173-0.164
			c0.162,0.002,0.325-0.01,0.486,0.007c0.009,0.002,0.019,0.002,0.027,0.002c0.103,0.002,0.125-0.02,0.126-0.123
			c0.001-0.087,0-0.176,0-0.265c0.001-0.133,0.061-0.2,0.191-0.218c0.01-0.002,0.021,0.002,0.03-0.006c0.138,0,0.275,0,0.413,0
			c0.05,0.012,0.103,0.002,0.153,0.004c0.062,0,0.123,0,0.185,0c0.237,0.004,0.474,0.013,0.71,0.018
			c0.33,0.008,0.657,0.042,0.985,0.079c0.441,0.046,0.88,0.113,1.316,0.196c0.696,0.131,1.378,0.311,2.044,0.545
			c0.346,0.122,0.683,0.258,1.012,0.416c0.306,0.144,0.602,0.305,0.887,0.489C9.91,4.241,9.969,4.287,10.03,4.328
			c0.059,0.038,0.082,0.04,0.138,0.002c0.314-0.22,0.649-0.406,0.993-0.574c0.521-0.252,1.06-0.458,1.614-0.63
			c0.513-0.16,1.036-0.287,1.565-0.388c0.46-0.089,0.924-0.155,1.391-0.204c0.331-0.034,0.662-0.06,0.997-0.064
			c0.146,0,0.294-0.008,0.441-0.011c0.062,0,0.122,0,0.186,0c0.047-0.002,0.096,0.008,0.143-0.004c0.131,0,0.262,0,0.391,0
			c0.015,0.01,0.03,0.004,0.046,0.008c0.12,0.022,0.185,0.097,0.187,0.218c0.002,0.091,0,0.18,0.002,0.27
			c0,0.093,0.021,0.109,0.11,0.105c0.154-0.004,0.308-0.004,0.462,0C18.811,3.061,18.9,3.158,18.9,3.273c0,0.004,0,0.006,0,0.01
			c0.002,0.141,0.013,0.151,0.158,0.151c0.133,0,0.267,0,0.4,0c0.016,0,0.032,0,0.048,0c0.112,0.004,0.156,0.039,0.182,0.147
			c0,4.478,0,8.958,0,13.437c-0.025,0.138-0.076,0.18-0.219,0.18c-2.659,0-5.317,0-7.976,0c-0.182,0-0.177,0-0.263,0.162
			c-0.161,0.301-0.391,0.527-0.715,0.646c-0.104,0.038-0.214,0.04-0.321,0.048c-0.08,0-0.159,0-0.237,0
			c-0.34,0.002-0.604-0.151-0.828-0.392c-0.098-0.106-0.179-0.226-0.237-0.359c-0.034-0.077-0.087-0.111-0.171-0.107
			c-0.031,0.004-0.064,0.002-0.097,0.002c-2.69,0-5.381,0-8.071,0c-0.048,0-0.096,0-0.141-0.026
			C0.35,17.14,0.324,17.084,0.312,17.019z"/>
		<path fill-rule="evenodd" clip-rule="evenodd" fill="#888888" d="M10.195,18.049c-0.001,0.004-0.001,0.006,0,0.01
			c-0.08,0-0.159,0-0.239,0c0.002-0.004,0.001-0.006,0-0.01C10.036,18.049,10.115,18.049,10.195,18.049z"/>
		<path fill-rule="evenodd" clip-rule="evenodd" fill="#D1D1D1" d="M2.902,2.455c0,0.002,0,0.006,0,0.008
			c-0.064,0.002-0.13,0.002-0.194,0.002c-0.009-0.004-0.01-0.006-0.001-0.01C2.771,2.455,2.837,2.455,2.902,2.455z"/>
		<path fill-rule="evenodd" clip-rule="evenodd" fill="#CFCFCF" d="M17.161,2.465c0.003-0.004,0.003-0.008,0.003-0.01
			c0.064,0,0.128,0,0.193,0c0.002,0.002,0.004,0.004,0.008,0.006c-0.004,0-0.006,0.002-0.01,0.002
			C17.29,2.465,17.227,2.47,17.161,2.465z"/>
		<path fill-rule="evenodd" clip-rule="evenodd" fill="#878787" d="M2.707,2.455c0,0.004,0,0.006,0.001,0.01
			c-0.051-0.002-0.104,0.01-0.152-0.01C2.605,2.455,2.656,2.455,2.707,2.455z"/>
		<path fill-rule="evenodd" clip-rule="evenodd" fill="#858585" d="M17.355,2.463c0-0.002,0.002-0.006,0.002-0.008
			c0.047,0,0.096,0,0.141,0C17.453,2.474,17.404,2.463,17.355,2.463z"/>
		<path fill-rule="evenodd" clip-rule="evenodd" fill="#FEFEFE" d="M9.998,16.336c-0.047-0.016-0.09-0.03-0.132-0.045
			c-0.59-0.209-1.192-0.37-1.805-0.496c-0.465-0.099-0.932-0.18-1.401-0.247c-0.359-0.052-0.72-0.097-1.08-0.135
			c-0.37-0.041-0.74-0.075-1.111-0.103c-0.297-0.024-0.594-0.043-0.892-0.061c-0.348-0.021-0.695-0.034-1.044-0.049
			c-0.054-0.004-0.108-0.004-0.162-0.006c-0.042-0.004-0.042-0.004-0.044-0.044c0-0.016,0-0.033,0-0.048c0-4.056,0-8.109,0-12.165
			c0-0.014,0-0.03,0-0.049c0.002-0.04,0.003-0.042,0.046-0.042c0.184,0.004,0.368,0.008,0.552,0.015
			c0.131,0.002,0.263,0.01,0.394,0.016c0.233,0.012,0.466,0.031,0.698,0.051c0.244,0.021,0.488,0.046,0.731,0.077
			c0.325,0.043,0.65,0.093,0.974,0.151c0.624,0.115,1.239,0.265,1.844,0.456C8.109,3.786,8.64,3.994,9.151,4.25
			c0.27,0.135,0.533,0.283,0.78,0.455c0.014,0.01,0.026,0.02,0.04,0.028c0.026,0.016,0.036,0.039,0.034,0.066
			c-0.002,0.017,0,0.03,0,0.045c0,3.799,0,7.6-0.001,11.399C10.005,16.271,10.008,16.302,9.998,16.336z"/>
		<path fill-rule="evenodd" clip-rule="evenodd" fill="#FEFEFE" d="M10.413,16.331c-0.006-0.018-0.004-0.039-0.004-0.059
			c0-3.817,0-7.636-0.001-11.453c0-0.065,0.02-0.111,0.065-0.151c0.083-0.073,0.175-0.132,0.269-0.186
			c0.269-0.16,0.55-0.293,0.837-0.418c0.424-0.188,0.855-0.357,1.295-0.504c0.475-0.158,0.959-0.287,1.448-0.386
			c0.413-0.084,0.831-0.149,1.253-0.2c0.403-0.046,0.807-0.079,1.213-0.099c0.222-0.01,0.444-0.018,0.667-0.022
			c0.058,0,0.116-0.002,0.178-0.004c0.048,0,0.048,0.002,0.05,0.053c0,0.012,0,0.022,0,0.032c0,4.06,0,8.117,0,12.177
			c0,0.087,0,0.087-0.087,0.089c-0.345,0.012-0.688,0.03-1.032,0.053c-0.234,0.014-0.468,0.028-0.702,0.048
			c-0.267,0.021-0.533,0.046-0.797,0.07c-0.278,0.025-0.555,0.057-0.831,0.091c-0.346,0.042-0.691,0.09-1.034,0.147
			c-0.376,0.061-0.752,0.127-1.123,0.208c-0.425,0.093-0.845,0.196-1.252,0.341c-0.136,0.048-0.269,0.101-0.391,0.174
			C10.429,16.334,10.424,16.336,10.413,16.331z"/>
		<path fill-rule="evenodd" clip-rule="evenodd" fill="#178DBE" d="M7.335,16.068c-0.03,0.012-0.051,0.008-0.07,0.006
			c-0.27-0.012-0.54-0.026-0.811-0.042C6.236,16.02,6.018,16.009,5.8,15.999c-0.23-0.01-0.462-0.02-0.692-0.032
			c-0.243-0.014-0.487-0.022-0.73-0.032C4.119,15.922,3.861,15.91,3.604,15.9c-0.177-0.006-0.354-0.012-0.53-0.021
			c-0.296-0.012-0.592-0.024-0.888-0.032c-0.189-0.008-0.379-0.018-0.568-0.021c-0.011-0.002-0.021-0.002-0.032-0.002
			c-0.034-0.004-0.044-0.014-0.047-0.048c-0.002-0.016-0.001-0.035-0.001-0.053c0-4.049,0-8.099,0-12.146
			c0-0.014-0.001-0.03,0-0.044C1.54,3.487,1.551,3.473,1.602,3.477c0.07,0.004,0.141,0.006,0.212,0.006
			c0.026,0.002,0.054,0,0.08,0.002C1.935,3.489,1.943,3.5,1.946,3.54C1.948,3.566,1.947,3.594,1.947,3.62c0,3.882,0,7.762,0,11.644
			c0,0.032,0.001,0.065,0,0.097c-0.002,0.073,0.033,0.123,0.091,0.164c0.048,0.032,0.103,0.053,0.162,0.053
			c0.119-0.002,0.238,0.008,0.357,0.012c0.203,0.008,0.407,0.021,0.611,0.031c0.154,0.007,0.311,0.014,0.465,0.024
			c0.123,0.006,0.245,0.017,0.367,0.024c0.165,0.012,0.331,0.026,0.497,0.041c0.212,0.018,0.424,0.036,0.637,0.057
			c0.307,0.03,0.613,0.066,0.919,0.105c0.41,0.054,0.819,0.115,1.227,0.188C7.295,16.06,7.309,16.063,7.335,16.068z"/>
		<path fill-rule="evenodd" clip-rule="evenodd" fill="#178DBE" d="M12.975,16.058c0.019-0.004,0.035-0.01,0.051-0.013
			c0.479-0.083,0.954-0.153,1.437-0.214c0.355-0.044,0.71-0.083,1.065-0.113c0.245-0.022,0.489-0.045,0.735-0.061
			c0.203-0.017,0.406-0.026,0.61-0.036c0.198-0.013,0.396-0.023,0.597-0.033c0.118-0.003,0.239-0.008,0.361-0.012
			c0.06-0.002,0.116-0.021,0.168-0.055c0.054-0.039,0.087-0.088,0.085-0.16c0-0.028,0-0.059,0-0.087c0-3.881,0-7.766,0-11.649
			c0-0.026,0-0.053,0-0.081c0.002-0.05,0.013-0.06,0.066-0.066c0.018-0.002,0.036-0.004,0.054-0.004c0.066,0,0.134,0,0.199,0
			c0.059,0,0.069,0.008,0.069,0.07c0,0.013,0,0.025,0,0.037c0,4.046,0,8.093,0,12.137c0,0.005,0,0.012,0,0.018
			c0,0.085-0.004,0.087-0.087,0.091c-0.263,0.008-0.527,0.015-0.79,0.024c-0.189,0.006-0.38,0.012-0.569,0.021
			c-0.27,0.01-0.537,0.022-0.806,0.034c-0.244,0.01-0.49,0.02-0.735,0.03c-0.257,0.014-0.511,0.028-0.768,0.041
			c-0.184,0.01-0.367,0.016-0.551,0.024c-0.17,0.008-0.338,0.021-0.505,0.028c-0.158,0.01-0.315,0.019-0.476,0.027
			c-0.036,0-0.072,0.004-0.105,0.005C13.044,16.063,13.012,16.068,12.975,16.058z"/>
	</g>
</g>
</svg>
