<?xml version="1.0" encoding="utf-8"?>
<!-- Generator: Adobe Illustrator 16.0.0, SVG Export Plug-In . SVG Version: 6.00 Build 0)  -->
<!DOCTYPE svg PUBLIC "-//W3C//DTD SVG 1.1//EN" "http://www.w3.org/Graphics/SVG/1.1/DTD/svg11.dtd">
<svg version="1.1" id="Layer_1" xmlns="http://www.w3.org/2000/svg" xmlns:xlink="http://www.w3.org/1999/xlink" x="0px" y="0px"
	 width="20px" height="20px" viewBox="0 0 20 20" enable-background="new 0 0 20 20" xml:space="preserve">
<g>
	<g>
		<path fill="#1E3F75" d="M0.312,17.734c0-4.48,0-10.901,0-15.379C0.36,2.234,0.398,2.21,0.534,2.208c0.148,0,0.298,0.002,0.448,0
			c0.106,0,0.124-0.02,0.125-0.127c0-0.029-0.001-0.059,0.001-0.087C1.114,1.897,1.182,1.83,1.281,1.83
			c0.162,0.002,0.325-0.01,0.486,0.007c0.009,0.002,0.019,0.002,0.027,0.002c0.103,0.002,0.125-0.02,0.126-0.123
			c0.001-0.087,0-0.176,0-0.265c0.001-0.133,0.061-0.2,0.191-0.218c0.01-0.002,0.021,0.002,0.03-0.006c0.138,0,0.275,0,0.413,0
			c0.05,0.012,0.103,0.002,0.153,0.004c0.062,0,0.123,0,0.185,0c0.237,0.004,0.474,0.013,0.71,0.018
			c0.33,0.008,0.657,0.042,0.985,0.079c0.441,0.046,0.88,0.113,1.316,0.196c0.696,0.131,1.378,0.311,2.044,0.545
			C8.293,2.191,8.63,2.327,8.959,2.485C9.265,2.629,9.561,2.79,9.846,2.974C9.91,3.014,9.969,3.06,10.03,3.101
			c0.059,0.038,0.082,0.04,0.138,0.002c0.314-0.22,0.648-0.406,0.993-0.574c0.521-0.252,1.06-0.458,1.614-0.63
			c0.513-0.16,1.035-0.287,1.564-0.388c0.46-0.089,0.924-0.155,1.391-0.204c0.332-0.034,0.662-0.06,0.998-0.064
			c0.146,0,0.293-0.008,0.44-0.011c0.062,0,0.122,0,0.187,0c0.047-0.002,0.096,0.008,0.143-0.004c0.131,0,0.262,0,0.391,0
			c0.016,0.01,0.03,0.004,0.047,0.008c0.119,0.022,0.185,0.097,0.187,0.218c0.002,0.091,0,0.18,0.002,0.27
			c0,0.093,0.021,0.109,0.11,0.105c0.154-0.004,0.308-0.004,0.461,0C18.811,1.834,18.9,1.931,18.9,2.046c0,0.004,0,0.006,0,0.01
			c0.002,0.141,0.013,0.151,0.158,0.151c0.133,0,0.267,0,0.399,0c0.017,0,0.032,0,0.048,0c0.112,0.004,0.156,0.039,0.182,0.147
			c0,4.478,0,10.9,0,15.378c-0.024,0.139-0.076,0.18-0.219,0.18c-2.658,0-5.316,0-7.976,0c-0.183,0-0.177,0-0.263,0.162
			c-0.162,0.301-0.392,0.527-0.715,0.646c-0.104,0.037-0.215,0.039-0.322,0.049c-0.08,0-0.159,0-0.237,0
			c-0.34,0.002-0.604-0.152-0.828-0.393c-0.098-0.105-0.179-0.227-0.237-0.359c-0.034-0.076-0.087-0.111-0.171-0.107
			c-0.031,0.004-0.064,0.002-0.097,0.002c-2.69,0-5.381,0-8.071,0c-0.048,0-0.096,0-0.141-0.025
			C0.35,17.855,0.324,17.799,0.312,17.734z"/>
		<path fill="#888888" d="M10.195,18.764c-0.001,0.004-0.001,0.006,0,0.01c-0.08,0-0.159,0-0.239,0c0.002-0.004,0.001-0.006,0-0.01
			C10.036,18.764,10.115,18.764,10.195,18.764z"/>
		<path fill="#D1D1D1" d="M2.902,1.228c0,0.002,0,0.006,0,0.008c-0.064,0.002-0.13,0.002-0.194,0.002
			c-0.009-0.004-0.01-0.006-0.001-0.01C2.771,1.228,2.837,1.228,2.902,1.228z"/>
		<path fill="#CFCFCF" d="M17.161,1.238c0.003-0.004,0.003-0.008,0.003-0.01c0.064,0,0.128,0,0.193,0
			c0.002,0.002,0.004,0.004,0.008,0.006c-0.004,0-0.006,0.002-0.01,0.002C17.29,1.238,17.227,1.243,17.161,1.238z"/>
		<path fill="#878787" d="M2.707,1.228c0,0.004,0,0.006,0.001,0.01c-0.051-0.002-0.104,0.01-0.152-0.01
			C2.605,1.228,2.656,1.228,2.707,1.228z"/>
		<path fill="#858585" d="M17.355,1.236c0-0.002,0.002-0.006,0.002-0.008c0.047,0,0.096,0,0.141,0
			C17.453,1.247,17.404,1.236,17.355,1.236z"/>
		<path fill="#FEFEFE" d="M9.998,17.051c-0.047-0.016-0.09-0.029-0.132-0.045c-0.59-0.209-1.192-0.371-1.805-0.496
			c-0.465-0.1-0.932-0.18-1.401-0.248c-0.359-0.051-0.72-0.096-1.08-0.135c-0.37-0.041-0.74-0.074-1.111-0.102
			C4.172,16,3.875,15.982,3.577,15.963c-0.348-0.02-0.695-0.033-1.044-0.049c-0.054-0.004-0.108-0.004-0.162-0.006
			c-0.042-0.004-0.042-0.004-0.044-0.043c0-0.018,0-0.033,0-0.049c0-4.057,0-10.05,0-14.106c0-0.014,0-0.03,0-0.049
			c0.002-0.04,0.003-0.042,0.046-0.042c0.184,0.004,0.368,0.008,0.552,0.015c0.131,0.002,0.263,0.01,0.394,0.016
			c0.233,0.012,0.466,0.031,0.698,0.051c0.244,0.021,0.488,0.046,0.731,0.077c0.325,0.043,0.65,0.093,0.974,0.151
			c0.624,0.115,1.239,0.265,1.844,0.456C8.109,2.559,8.64,2.767,9.151,3.023c0.27,0.135,0.533,0.283,0.78,0.455
			c0.014,0.01,0.026,0.02,0.04,0.028c0.026,0.016,0.036,0.039,0.034,0.066c-0.002,0.017,0,0.03,0,0.045c0,3.799,0,9.542-0.001,13.34
			C10.005,16.986,10.008,17.016,9.998,17.051z"/>
		<path fill="#FEFEFE" d="M10.413,17.045c-0.006-0.018-0.004-0.039-0.004-0.059c0-3.816,0-9.578-0.001-13.395
			c0-0.065,0.02-0.111,0.065-0.151c0.083-0.073,0.175-0.132,0.269-0.186c0.27-0.16,0.55-0.293,0.837-0.418
			c0.424-0.188,0.854-0.357,1.295-0.504c0.476-0.158,0.959-0.287,1.448-0.386c0.412-0.084,0.83-0.149,1.253-0.2
			c0.403-0.046,0.807-0.079,1.213-0.099c0.222-0.01,0.444-0.018,0.667-0.022c0.059,0,0.115-0.002,0.178-0.004
			c0.049,0,0.049,0.002,0.051,0.053c0,0.012,0,0.022,0,0.032c0,4.06,0,10.059,0,14.119c0,0.086,0,0.086-0.088,0.088
			c-0.345,0.012-0.688,0.031-1.031,0.053c-0.234,0.016-0.469,0.029-0.703,0.049c-0.266,0.021-0.532,0.047-0.797,0.07
			c-0.277,0.025-0.555,0.057-0.83,0.09c-0.346,0.043-0.691,0.09-1.034,0.148c-0.376,0.061-0.753,0.127-1.123,0.207
			c-0.425,0.094-0.845,0.197-1.252,0.342c-0.136,0.047-0.269,0.1-0.391,0.174C10.429,17.049,10.424,17.051,10.413,17.045z"/>
		<path fill="#178DBE" d="M7.335,16.783c-0.03,0.012-0.051,0.008-0.07,0.006c-0.27-0.012-0.54-0.027-0.811-0.043
			c-0.218-0.012-0.436-0.023-0.654-0.033c-0.23-0.01-0.462-0.02-0.692-0.031c-0.243-0.014-0.487-0.021-0.73-0.031
			c-0.259-0.014-0.517-0.025-0.774-0.035c-0.177-0.006-0.354-0.012-0.53-0.021c-0.296-0.012-0.592-0.023-0.888-0.031
			c-0.189-0.01-0.379-0.02-0.568-0.021c-0.011-0.002-0.021-0.002-0.032-0.002c-0.034-0.004-0.044-0.014-0.047-0.049
			c-0.002-0.016-0.001-0.035-0.001-0.053c0-4.049,0-10.041,0-14.087c0-0.014-0.001-0.03,0-0.044C1.54,2.26,1.551,2.246,1.602,2.25
			c0.07,0.004,0.141,0.006,0.212,0.006c0.026,0.002,0.054,0,0.08,0.002c0.041,0.004,0.049,0.015,0.052,0.055
			c0.002,0.026,0.001,0.054,0.001,0.08c0,3.882,0,9.703,0,13.585c0,0.031,0.001,0.064,0,0.098c-0.002,0.072,0.033,0.123,0.091,0.164
			c0.048,0.031,0.103,0.053,0.162,0.053c0.119-0.002,0.238,0.008,0.357,0.012c0.203,0.008,0.407,0.021,0.611,0.031
			c0.154,0.006,0.311,0.014,0.465,0.023C3.756,16.365,3.878,16.377,4,16.383c0.165,0.014,0.331,0.027,0.497,0.041
			c0.212,0.02,0.424,0.037,0.637,0.059c0.307,0.029,0.613,0.064,0.919,0.104c0.41,0.055,0.819,0.115,1.227,0.189
			C7.295,16.775,7.309,16.777,7.335,16.783z"/>
		<path fill="#178DBE" d="M12.975,16.773c0.02-0.004,0.035-0.012,0.051-0.014c0.479-0.084,0.955-0.152,1.438-0.215
			c0.355-0.043,0.71-0.082,1.064-0.113c0.246-0.021,0.49-0.045,0.736-0.061c0.202-0.016,0.405-0.025,0.609-0.035
			c0.197-0.014,0.396-0.023,0.598-0.033c0.117-0.004,0.238-0.008,0.36-0.012c0.06-0.002,0.116-0.021,0.168-0.055
			c0.054-0.039,0.087-0.088,0.085-0.16c0-0.029,0-0.061,0-0.088c0-3.881,0-9.708,0-13.59c0-0.026,0-0.053,0-0.081
			c0.002-0.05,0.014-0.06,0.066-0.066c0.018-0.002,0.035-0.004,0.054-0.004c0.065,0,0.134,0,0.198,0c0.06,0,0.07,0.008,0.07,0.07
			c0,0.013,0,0.025,0,0.037c0,4.046,0,10.035,0,14.078c0,0.006,0,0.014,0,0.02c0,0.084-0.005,0.086-0.088,0.09
			c-0.263,0.008-0.527,0.016-0.789,0.025c-0.189,0.006-0.381,0.012-0.57,0.02c-0.27,0.01-0.537,0.023-0.805,0.035
			c-0.244,0.01-0.49,0.02-0.736,0.029c-0.256,0.014-0.51,0.027-0.768,0.041c-0.184,0.01-0.367,0.016-0.551,0.023
			c-0.17,0.008-0.338,0.021-0.505,0.029c-0.158,0.01-0.315,0.018-0.476,0.027c-0.037,0-0.072,0.004-0.105,0.004
			C13.044,16.777,13.012,16.783,12.975,16.773z"/>
	</g>
</g>
</svg>
