<?xml version="1.0" encoding="UTF-8"?>
<svg width="20px" height="20px" viewBox="0 0 20 20" version="1.1" xmlns="http://www.w3.org/2000/svg" xmlns:xlink="http://www.w3.org/1999/xlink">
    <!-- Generator: Sketch 46.2 (44496) - http://www.bohemiancoding.com/sketch -->
    <title>day-school-campaign-icon</title>
    <desc>Created with Sketch.</desc>
    <defs></defs>
    <g id="Page-1" stroke="none" stroke-width="1" fill="none" fill-rule="evenodd">
        <g id="4.-Admin-School-Profile-Copy" transform="translate(-337.000000, -203.000000)">
            <g id="day-school-campaign-icon" transform="translate(337.000000, 203.000000)">
                <g id="Group" fill-rule="nonzero" fill="#F3B322">
                    <path d="M2.634,5.35 C2.634,6.686 3.72,7.772 5.054,7.772 C6.389,7.772 7.475,6.686 7.475,5.35 C7.475,4.016 6.39,2.93 5.054,2.93 C3.72,2.93 2.634,4.016 2.634,5.35 Z" id="Shape"></path>
                    <g id="Shape">
                        <path d="M4.583,1.746 L4.583,0.99 C4.583,0.728 4.793,0.517 5.054,0.517 C5.318,0.517 5.527,0.728 5.527,0.99 L5.527,1.746 C5.527,2.006 5.318,2.217 5.054,2.217 C4.793,2.217 4.583,2.006 4.583,1.746 Z"></path>
                        <path d="M4.583,8.955 L4.583,9.709 C4.583,9.971 4.793,10.182 5.054,10.182 C5.318,10.182 5.527,9.971 5.527,9.709 L5.527,8.955 C5.527,8.693 5.318,8.482 5.054,8.482 C4.793,8.482 4.583,8.693 4.583,8.955 Z"></path>
                        <path d="M2.173,3.135 L1.638,2.6 C1.453,2.418 1.453,2.118 1.638,1.934 C1.823,1.75 2.121,1.75 2.306,1.934 L2.841,2.467 C3.024,2.651 3.024,2.951 2.841,3.135 C2.656,3.32 2.356,3.32 2.173,3.135 Z"></path>
                        <path d="M7.27,8.232 L7.803,8.765 C7.989,8.951 8.287,8.951 8.471,8.765 C8.656,8.581 8.656,8.283 8.471,8.099 L7.938,7.564 C7.754,7.38 7.454,7.38 7.27,7.564 C7.086,7.748 7.085,8.047 7.27,8.232 Z"></path>
                        <path d="M1.451,5.822 L0.694,5.822 C0.433,5.822 0.221,5.611 0.221,5.349 C0.221,5.087 0.432,4.876 0.694,4.876 L1.45,4.876 C1.71,4.876 1.923,5.087 1.923,5.349 C1.923,5.611 1.71,5.822 1.451,5.822 Z"></path>
                        <path d="M8.659,5.822 L9.415,5.822 C9.675,5.822 9.889,5.611 9.889,5.349 C9.889,5.087 9.675,4.877 9.415,4.877 L8.659,4.877 C8.398,4.877 8.186,5.088 8.186,5.35 C8.186,5.612 8.398,5.822 8.659,5.822 Z"></path>
                        <path d="M2.841,8.232 L2.306,8.766 C2.121,8.952 1.823,8.952 1.638,8.766 C1.453,8.582 1.453,8.284 1.638,8.1 L2.173,7.565 C2.356,7.381 2.656,7.381 2.841,7.565 C3.024,7.75 3.024,8.047 2.841,8.232 Z"></path>
                        <path d="M7.938,3.135 L8.471,2.6 C8.656,2.418 8.656,2.118 8.471,1.934 C8.286,1.75 7.989,1.75 7.803,1.934 L7.27,2.467 C7.086,2.651 7.086,2.951 7.27,3.135 C7.454,3.32 7.753,3.32 7.938,3.135 Z"></path>
                    </g>
                </g>
                <g id="Group" transform="translate(0.000000, 7.000000)">
                    <rect id="Rectangle-path" fill="#FFFFFF" x="8" y="8" width="4" height="4"></rect>
                    <path d="M15.899,12.422 C15.96,12.293 16,12.152 16,12 C16,11.447 15.553,11 15,11 L5,11 C4.448,11 4,11.447 4,12 C4,12.152 4.04,12.293 4.101,12.422 L15.899,12.422 Z" id="Shape" fill="#000000"></path>
                    <g>
                        <path d="M10.027,0.648 C10.042,0.648 10.058,0.648 10.074,0.648 C10.129,0.674 10.142,0.719 10.139,0.779 C10.159,0.779 10.174,0.779 10.19,0.779 C10.373,0.779 10.555,0.779 10.738,0.779 C10.81,0.779 10.841,0.809 10.841,0.88 C10.841,1.017 10.841,1.152 10.841,1.288 C10.841,1.378 10.815,1.403 10.723,1.403 C10.545,1.403 10.368,1.403 10.189,1.403 C10.174,1.403 10.16,1.403 10.143,1.403 C10.143,1.616 10.143,1.821 10.143,2.028 C10.154,2.028 10.16,2.03 10.165,2.03 C10.444,2.041 10.719,2.076 10.99,2.153 C11.282,2.237 11.559,2.356 11.797,2.553 C11.959,2.684 12.088,2.842 12.146,3.047 C12.158,3.083 12.17,3.091 12.208,3.091 C12.738,3.091 13.269,3.091 13.8,3.091 C13.909,3.091 13.967,3.15 13.967,3.261 C13.967,3.513 13.967,3.763 13.967,4.012 C13.967,4.026 13.967,4.04 13.967,4.059 C13.99,4.059 14.008,4.059 14.026,4.059 C14.512,4.059 15,4.061 15.488,4.059 C15.544,4.059 15.582,4.083 15.607,4.128 C15.616,4.149 15.628,4.169 15.632,4.19 C15.655,4.291 15.655,4.391 15.637,4.49 C15.624,4.572 15.575,4.605 15.492,4.607 C15.332,4.607 15.172,4.607 15.011,4.605 C14.979,4.602 14.967,4.613 14.967,4.647 C14.97,4.895 14.967,5.142 14.967,5.39 C14.967,5.452 14.967,5.452 15.027,5.452 C16.561,5.452 18.092,5.452 19.627,5.452 C19.642,5.452 19.657,5.452 19.673,5.452 C19.717,5.452 19.755,5.467 19.774,5.506 C19.793,5.54 19.809,5.584 19.809,5.625 C19.81,7.831 19.81,10.035 19.81,12.241 C19.81,12.362 19.753,12.416 19.636,12.416 C18.359,12.416 17.082,12.416 15.804,12.416 C15.794,12.416 15.781,12.416 15.769,12.416 C15.779,12.406 15.792,12.402 15.803,12.398 C15.883,12.36 15.936,12.299 15.94,12.207 C15.943,12.12 15.942,12.034 15.94,11.944 C15.937,11.818 15.824,11.707 15.696,11.707 C15.6,11.705 15.505,11.707 15.41,11.707 C15.397,11.707 15.382,11.705 15.367,11.705 C15.364,11.691 15.363,11.684 15.363,11.676 C15.361,11.581 15.361,11.486 15.359,11.393 C15.356,11.252 15.26,11.158 15.122,11.158 C14.099,11.158 13.074,11.158 12.051,11.158 C12.035,11.158 12.017,11.158 11.996,11.158 C11.996,11.135 11.996,11.118 11.996,11.097 C11.996,10.189 11.996,9.28 11.996,8.369 C11.996,8.26 11.93,8.193 11.823,8.193 C11.333,8.193 10.844,8.193 10.356,8.193 C10.34,8.193 10.325,8.193 10.309,8.197 C10.227,8.218 10.183,8.28 10.183,8.381 C10.183,9.288 10.183,10.196 10.183,11.104 C10.183,11.122 10.183,11.137 10.183,11.156 C10.103,11.156 10.029,11.156 9.95,11.156 C9.95,11.135 9.95,11.116 9.95,11.097 C9.95,10.197 9.95,9.298 9.95,8.398 C9.95,8.377 9.95,8.357 9.947,8.336 C9.936,8.25 9.872,8.193 9.787,8.193 C9.291,8.193 8.796,8.193 8.3,8.193 C8.245,8.193 8.2,8.217 8.169,8.261 C8.141,8.296 8.138,8.338 8.138,8.38 C8.138,9.287 8.138,10.193 8.138,11.101 C8.138,11.117 8.138,11.134 8.138,11.157 C8.117,11.157 8.099,11.157 8.08,11.157 C7.069,11.157 6.057,11.157 5.044,11.157 C4.923,11.157 4.82,11.244 4.811,11.365 C4.803,11.468 4.809,11.568 4.807,11.671 C4.807,11.682 4.807,11.692 4.807,11.707 C4.789,11.707 4.776,11.707 4.762,11.707 C4.666,11.707 4.571,11.707 4.476,11.707 C4.415,11.707 4.368,11.729 4.329,11.774 C4.282,11.821 4.259,11.884 4.259,11.951 C4.258,12.026 4.261,12.1 4.258,12.173 C4.254,12.289 4.301,12.37 4.41,12.412 C4.411,12.412 4.411,12.416 4.412,12.416 C3.075,12.416 1.74,12.416 0.404,12.416 C0.394,12.416 0.386,12.416 0.376,12.416 C0.32,12.412 0.275,12.387 0.247,12.338 C0.238,12.326 0.232,12.31 0.226,12.298 C0.226,10.058 0.226,7.816 0.226,5.575 C0.258,5.477 0.327,5.449 0.425,5.449 C2.053,5.452 3.681,5.452 5.309,5.452 C5.361,5.452 5.361,5.452 5.361,5.4 C5.361,5.15 5.359,4.9 5.361,4.653 C5.361,4.615 5.351,4.605 5.315,4.605 C5.01,4.607 4.708,4.607 4.405,4.607 C4.325,4.605 4.281,4.576 4.272,4.496 C4.262,4.414 4.263,4.33 4.264,4.246 C4.265,4.211 4.279,4.174 4.291,4.142 C4.312,4.086 4.352,4.06 4.416,4.06 C4.991,4.062 5.566,4.06 6.143,4.06 C6.16,4.06 6.178,4.058 6.199,4.058 C6.199,4.039 6.199,4.027 6.199,4.011 C6.199,3.764 6.199,3.516 6.199,3.266 C6.199,3.247 6.199,3.229 6.204,3.213 C6.224,3.135 6.284,3.092 6.372,3.092 C6.883,3.092 7.393,3.092 7.901,3.092 C7.936,3.092 7.95,3.084 7.96,3.05 C7.984,2.951 8.031,2.863 8.092,2.781 C8.23,2.586 8.42,2.447 8.633,2.339 C9.002,2.153 9.398,2.065 9.807,2.036 C9.859,2.034 9.91,2.03 9.964,2.026 C9.964,2.007 9.964,1.99 9.964,1.973 C9.964,1.571 9.965,1.166 9.964,0.766 C9.964,0.71 9.979,0.675 10.027,0.648 Z M12.32,9.014 C12.32,9.209 12.32,9.407 12.32,9.602 C12.321,9.709 12.386,9.774 12.493,9.774 C12.84,9.774 13.188,9.774 13.537,9.774 C13.646,9.774 13.712,9.708 13.712,9.6 C13.713,9.209 13.712,8.819 13.712,8.427 C13.712,8.319 13.647,8.254 13.537,8.254 C13.191,8.254 12.843,8.254 12.497,8.254 C12.386,8.254 12.321,8.318 12.32,8.427 C12.32,8.625 12.32,8.82 12.32,9.014 Z M6.19,9.012 C6.19,9.207 6.19,9.403 6.19,9.6 C6.19,9.709 6.255,9.774 6.363,9.774 C6.712,9.774 7.06,9.774 7.409,9.774 C7.515,9.774 7.581,9.71 7.581,9.602 C7.581,9.211 7.581,8.819 7.581,8.425 C7.581,8.319 7.517,8.254 7.41,8.254 C7.062,8.254 6.713,8.254 6.365,8.254 C6.256,8.254 6.19,8.318 6.19,8.427 C6.19,8.621 6.19,8.816 6.19,9.012 Z M18.585,7.543 C18.585,7.372 18.585,7.2 18.585,7.031 C18.585,6.91 18.509,6.832 18.39,6.832 C18.046,6.832 17.704,6.832 17.363,6.832 C17.24,6.832 17.163,6.91 17.163,7.033 C17.163,7.374 17.163,7.717 17.163,8.058 C17.163,8.177 17.241,8.255 17.356,8.255 C17.702,8.257 18.046,8.257 18.394,8.255 C18.507,8.255 18.585,8.177 18.585,8.065 C18.585,7.892 18.585,7.717 18.585,7.543 Z M16.616,7.547 C16.616,7.37 16.618,7.19 16.616,7.013 C16.616,6.905 16.549,6.833 16.446,6.832 C16.1,6.832 15.755,6.832 15.41,6.832 C15.327,6.832 15.265,6.874 15.237,6.948 C15.227,6.976 15.223,7.007 15.223,7.037 C15.222,7.376 15.222,7.71 15.223,8.049 C15.223,8.072 15.225,8.095 15.23,8.117 C15.248,8.195 15.314,8.256 15.389,8.256 C15.747,8.258 16.106,8.256 16.463,8.256 C16.511,8.256 16.554,8.235 16.576,8.195 C16.596,8.157 16.613,8.11 16.614,8.069 C16.62,7.896 16.616,7.721 16.616,7.547 Z M9.109,6.837 C9.287,6.837 9.464,6.837 9.643,6.837 C9.747,6.837 9.806,6.779 9.806,6.675 C9.806,6.326 9.806,5.98 9.806,5.629 C9.806,5.512 9.74,5.445 9.621,5.445 C9.282,5.445 8.942,5.445 8.603,5.445 C8.481,5.445 8.415,5.511 8.415,5.634 C8.415,5.979 8.415,6.323 8.415,6.67 C8.415,6.778 8.474,6.836 8.586,6.836 C8.76,6.837 8.935,6.837 9.109,6.837 Z M11.054,6.837 C11.235,6.837 11.413,6.837 11.594,6.837 C11.686,6.837 11.744,6.783 11.744,6.691 C11.744,6.335 11.744,5.974 11.744,5.615 C11.744,5.535 11.692,5.444 11.57,5.446 C11.229,5.448 10.887,5.446 10.545,5.446 C10.425,5.446 10.354,5.518 10.354,5.637 C10.354,5.978 10.354,6.316 10.354,6.657 C10.354,6.776 10.415,6.838 10.533,6.838 C10.706,6.837 10.881,6.837 11.054,6.837 Z M12.32,6.152 C12.32,6.33 12.32,6.506 12.321,6.686 C12.321,6.779 12.378,6.836 12.467,6.836 C12.827,6.836 13.187,6.836 13.548,6.836 C13.649,6.834 13.712,6.769 13.712,6.67 C13.712,6.327 13.712,5.984 13.712,5.642 C13.712,5.515 13.642,5.445 13.517,5.445 C13.18,5.445 12.843,5.445 12.508,5.445 C12.38,5.445 12.321,5.506 12.32,5.634 C12.32,5.809 12.32,5.979 12.32,6.152 Z M2.011,8.224 C2.185,8.224 2.358,8.224 2.531,8.224 C2.646,8.224 2.71,8.162 2.71,8.045 C2.71,7.704 2.71,7.361 2.71,7.024 C2.71,6.894 2.648,6.833 2.52,6.833 C2.369,6.833 2.214,6.833 2.063,6.833 C1.875,6.833 1.689,6.833 1.501,6.833 C1.387,6.834 1.318,6.897 1.318,7.008 C1.316,7.357 1.316,7.705 1.318,8.054 C1.318,8.162 1.385,8.225 1.493,8.225 C1.665,8.224 1.838,8.224 2.011,8.224 Z M4.11,8.224 C4.283,8.224 4.457,8.224 4.63,8.224 C4.742,8.224 4.807,8.16 4.807,8.047 C4.807,7.702 4.807,7.358 4.807,7.013 C4.807,6.903 4.745,6.833 4.634,6.833 C4.285,6.832 3.936,6.832 3.588,6.832 C3.54,6.832 3.496,6.846 3.462,6.882 C3.421,6.923 3.414,6.971 3.414,7.024 C3.414,7.294 3.414,7.561 3.414,7.83 C3.414,7.902 3.413,7.976 3.414,8.052 C3.416,8.162 3.481,8.225 3.592,8.225 C3.765,8.224 3.938,8.224 4.11,8.224 Z M7.581,6.152 C7.581,5.979 7.581,5.804 7.581,5.629 C7.581,5.512 7.515,5.445 7.395,5.445 C7.055,5.445 6.716,5.445 6.377,5.445 C6.256,5.445 6.189,5.511 6.189,5.633 C6.189,5.98 6.189,6.324 6.189,6.673 C6.189,6.779 6.248,6.837 6.355,6.837 C6.475,6.837 6.596,6.837 6.715,6.837 C6.949,6.837 7.185,6.837 7.419,6.837 C7.519,6.837 7.579,6.777 7.579,6.679 C7.581,6.501 7.581,6.328 7.581,6.152 Z M2.107,8.802 C1.925,8.802 1.745,8.802 1.562,8.802 C1.498,8.802 1.436,8.813 1.378,8.845 C1.337,8.866 1.315,8.899 1.315,8.946 C1.317,9.16 1.316,9.375 1.315,9.589 C1.315,9.631 1.332,9.665 1.36,9.692 C1.42,9.745 1.485,9.775 1.564,9.775 C1.682,9.775 1.798,9.775 1.918,9.775 C2.163,9.775 2.41,9.775 2.656,9.775 C2.784,9.775 2.871,9.688 2.871,9.561 C2.871,9.357 2.869,9.156 2.871,8.951 C2.872,8.889 2.845,8.848 2.79,8.83 C2.746,8.816 2.7,8.808 2.654,8.806 C2.473,8.802 2.29,8.802 2.107,8.802 Z M17.876,8.802 C17.697,8.802 17.517,8.802 17.339,8.802 C17.228,8.804 17.162,8.871 17.162,8.98 C17.162,9.186 17.162,9.391 17.162,9.598 C17.162,9.695 17.236,9.774 17.332,9.774 C17.693,9.774 18.056,9.774 18.419,9.774 C18.509,9.774 18.584,9.695 18.585,9.606 C18.585,9.391 18.587,9.173 18.584,8.956 C18.584,8.93 18.575,8.899 18.56,8.879 C18.523,8.823 18.47,8.803 18.407,8.803 C18.23,8.802 18.052,8.802 17.876,8.802 Z M4.105,8.802 C3.928,8.802 3.752,8.802 3.576,8.802 C3.477,8.802 3.423,8.855 3.414,8.951 C3.414,8.966 3.414,8.979 3.414,8.991 C3.414,9.185 3.414,9.378 3.414,9.571 C3.414,9.59 3.414,9.608 3.416,9.626 C3.428,9.721 3.486,9.773 3.582,9.773 C3.929,9.773 4.277,9.773 4.623,9.773 C4.738,9.773 4.807,9.704 4.807,9.589 C4.807,9.388 4.807,9.185 4.807,8.982 C4.807,8.863 4.746,8.801 4.625,8.801 C4.452,8.802 4.278,8.802 4.105,8.802 Z M15.927,8.802 C15.752,8.802 15.576,8.802 15.402,8.802 C15.29,8.802 15.224,8.865 15.224,8.976 C15.223,9.181 15.223,9.387 15.224,9.592 C15.225,9.707 15.294,9.774 15.411,9.774 C15.754,9.774 16.099,9.774 16.445,9.774 C16.556,9.774 16.617,9.712 16.617,9.598 C16.617,9.389 16.617,9.179 16.617,8.972 C16.617,8.862 16.56,8.802 16.451,8.802 C16.276,8.802 16.103,8.802 15.927,8.802 Z M10.655,3.446 C10.655,3.12 10.392,2.856 10.068,2.856 C9.745,2.857 9.482,3.12 9.482,3.442 C9.482,3.769 9.741,4.031 10.065,4.031 C10.393,4.033 10.654,3.771 10.655,3.446 Z" id="Shape" fill="#1CADF8" fill-rule="nonzero"></path>
                        <path d="M12.32,9.014 C12.32,8.821 12.32,8.625 12.32,8.427 C12.321,8.319 12.385,8.254 12.497,8.254 C12.843,8.254 13.191,8.254 13.537,8.254 C13.646,8.254 13.712,8.318 13.712,8.427 C13.712,8.819 13.713,9.209 13.712,9.6 C13.712,9.707 13.647,9.774 13.537,9.774 C13.188,9.774 12.84,9.774 12.493,9.774 C12.387,9.774 12.321,9.71 12.32,9.602 C12.32,9.406 12.32,9.209 12.32,9.014 Z" id="Shape" fill="#FFFFFF"></path>
                        <path d="M6.19,9.012 C6.19,8.817 6.19,8.621 6.19,8.427 C6.19,8.319 6.255,8.254 6.365,8.254 C6.713,8.254 7.062,8.254 7.41,8.254 C7.516,8.254 7.581,8.318 7.581,8.425 C7.581,8.819 7.581,9.211 7.581,9.602 C7.581,9.709 7.516,9.774 7.409,9.774 C7.06,9.774 6.712,9.774 6.363,9.774 C6.256,9.774 6.19,9.71 6.19,9.6 C6.19,9.402 6.19,9.207 6.19,9.012 Z" id="Shape" fill="#FFFFFF"></path>
                        <path d="M18.585,7.543 C18.585,7.717 18.585,7.892 18.585,8.065 C18.585,8.177 18.507,8.255 18.394,8.255 C18.046,8.257 17.702,8.257 17.356,8.255 C17.241,8.255 17.163,8.177 17.163,8.058 C17.163,7.716 17.163,7.373 17.163,7.033 C17.163,6.91 17.24,6.832 17.363,6.832 C17.705,6.832 18.047,6.832 18.39,6.832 C18.509,6.832 18.585,6.91 18.585,7.031 C18.585,7.2 18.585,7.372 18.585,7.543 Z" id="Shape" fill="#FFFFFF"></path>
                        <path d="M16.616,7.547 C16.616,7.721 16.62,7.896 16.615,8.069 C16.614,8.11 16.596,8.157 16.577,8.195 C16.555,8.235 16.512,8.256 16.464,8.256 C16.107,8.256 15.748,8.258 15.39,8.256 C15.315,8.256 15.248,8.195 15.231,8.117 C15.226,8.095 15.224,8.072 15.224,8.049 C15.223,7.71 15.223,7.376 15.224,7.037 C15.224,7.007 15.228,6.976 15.238,6.948 C15.266,6.874 15.328,6.832 15.411,6.832 C15.756,6.832 16.101,6.832 16.447,6.832 C16.55,6.833 16.617,6.904 16.617,7.013 C16.618,7.189 16.616,7.37 16.616,7.547 Z" id="Shape" fill="#FFFFFF"></path>
                        <path d="M9.109,6.837 C8.934,6.837 8.759,6.837 8.587,6.837 C8.475,6.837 8.416,6.779 8.416,6.671 C8.416,6.324 8.416,5.98 8.416,5.635 C8.416,5.512 8.482,5.446 8.604,5.446 C8.943,5.446 9.283,5.446 9.622,5.446 C9.74,5.446 9.807,5.512 9.807,5.63 C9.807,5.981 9.807,6.327 9.807,6.676 C9.807,6.78 9.748,6.838 9.644,6.838 C9.465,6.837 9.287,6.837 9.109,6.837 Z" id="Shape" fill="#FFFFFF"></path>
                        <path d="M11.054,6.837 C10.881,6.837 10.706,6.837 10.533,6.837 C10.415,6.837 10.354,6.775 10.354,6.656 C10.354,6.315 10.354,5.977 10.354,5.636 C10.354,5.517 10.425,5.445 10.545,5.445 C10.888,5.445 11.23,5.447 11.57,5.445 C11.692,5.443 11.744,5.534 11.744,5.614 C11.744,5.973 11.744,6.334 11.744,6.69 C11.744,6.783 11.685,6.836 11.594,6.836 C11.413,6.837 11.234,6.837 11.054,6.837 Z" id="Shape" fill="#FFFFFF"></path>
                        <path d="M12.32,6.152 C12.32,5.979 12.32,5.808 12.32,5.634 C12.321,5.505 12.38,5.445 12.508,5.445 C12.843,5.445 13.18,5.445 13.517,5.445 C13.642,5.445 13.712,5.515 13.712,5.642 C13.712,5.985 13.712,6.328 13.712,6.67 C13.712,6.769 13.649,6.834 13.548,6.836 C13.187,6.836 12.827,6.836 12.467,6.836 C12.378,6.836 12.321,6.778 12.321,6.686 C12.32,6.507 12.32,6.33 12.32,6.152 Z" id="Shape" fill="#FFFFFF"></path>
                        <path d="M2.011,8.224 C1.838,8.224 1.665,8.224 1.492,8.224 C1.385,8.224 1.317,8.162 1.317,8.053 C1.315,7.704 1.315,7.356 1.317,7.007 C1.317,6.897 1.385,6.833 1.5,6.832 C1.688,6.832 1.874,6.832 2.062,6.832 C2.213,6.832 2.368,6.832 2.519,6.832 C2.647,6.832 2.709,6.894 2.709,7.023 C2.709,7.361 2.709,7.704 2.709,8.044 C2.709,8.16 2.646,8.223 2.53,8.223 C2.357,8.224 2.185,8.224 2.011,8.224 Z" id="Shape" fill="#FFFFFF"></path>
                        <path d="M4.11,8.224 C3.937,8.224 3.764,8.224 3.591,8.224 C3.481,8.224 3.415,8.162 3.413,8.051 C3.412,7.976 3.413,7.902 3.413,7.829 C3.413,7.56 3.413,7.293 3.413,7.023 C3.413,6.97 3.42,6.922 3.461,6.881 C3.495,6.845 3.539,6.831 3.587,6.831 C3.935,6.831 4.284,6.831 4.633,6.832 C4.743,6.832 4.806,6.901 4.806,7.012 C4.806,7.357 4.806,7.701 4.806,8.046 C4.806,8.158 4.742,8.223 4.629,8.223 C4.457,8.224 4.283,8.224 4.11,8.224 Z" id="Shape" fill="#FFFFFF"></path>
                        <path d="M7.581,6.152 C7.581,6.328 7.581,6.501 7.581,6.678 C7.581,6.777 7.52,6.836 7.421,6.836 C7.187,6.836 6.951,6.836 6.717,6.836 C6.598,6.836 6.477,6.836 6.357,6.836 C6.25,6.836 6.191,6.778 6.191,6.672 C6.191,6.323 6.191,5.979 6.191,5.632 C6.191,5.511 6.257,5.444 6.379,5.444 C6.718,5.444 7.057,5.444 7.397,5.444 C7.516,5.444 7.583,5.51 7.583,5.628 C7.581,5.805 7.581,5.979 7.581,6.152 Z" id="Shape" fill="#FFFFFF"></path>
                        <path d="M2.107,8.802 C2.29,8.802 2.472,8.802 2.654,8.804 C2.7,8.806 2.746,8.815 2.79,8.828 C2.845,8.847 2.872,8.887 2.871,8.949 C2.869,9.154 2.871,9.355 2.871,9.559 C2.871,9.686 2.784,9.773 2.656,9.773 C2.41,9.773 2.163,9.773 1.918,9.773 C1.799,9.773 1.683,9.773 1.564,9.773 C1.485,9.773 1.419,9.743 1.36,9.69 C1.332,9.664 1.315,9.629 1.315,9.587 C1.316,9.373 1.317,9.158 1.315,8.944 C1.315,8.897 1.337,8.864 1.378,8.843 C1.436,8.811 1.497,8.8 1.562,8.8 C1.745,8.802 1.926,8.802 2.107,8.802 Z" id="Shape" fill="#FFFFFF"></path>
                        <path d="M17.876,8.802 C18.052,8.802 18.23,8.802 18.406,8.802 C18.469,8.802 18.522,8.823 18.559,8.878 C18.575,8.899 18.583,8.929 18.583,8.955 C18.586,9.173 18.584,9.391 18.584,9.605 C18.583,9.694 18.508,9.773 18.418,9.773 C18.055,9.773 17.692,9.773 17.331,9.773 C17.235,9.773 17.161,9.694 17.161,9.597 C17.161,9.39 17.161,9.185 17.161,8.979 C17.161,8.871 17.226,8.803 17.338,8.801 C17.517,8.802 17.697,8.802 17.876,8.802 Z" id="Shape" fill="#FFFFFF"></path>
                        <path d="M4.105,8.802 C4.278,8.802 4.452,8.802 4.625,8.802 C4.746,8.802 4.807,8.864 4.807,8.983 C4.807,9.186 4.807,9.389 4.807,9.59 C4.807,9.704 4.739,9.774 4.623,9.774 C4.277,9.774 3.929,9.774 3.582,9.774 C3.486,9.774 3.428,9.721 3.416,9.627 C3.414,9.609 3.414,9.591 3.414,9.572 C3.414,9.379 3.414,9.186 3.414,8.992 C3.414,8.98 3.414,8.967 3.414,8.952 C3.423,8.855 3.477,8.803 3.576,8.803 C3.753,8.802 3.929,8.802 4.105,8.802 Z" id="Shape" fill="#FFFFFF"></path>
                        <path d="M15.927,8.802 C16.103,8.802 16.277,8.802 16.45,8.802 C16.559,8.802 16.616,8.862 16.616,8.972 C16.616,9.179 16.616,9.389 16.616,9.598 C16.616,9.711 16.555,9.774 16.444,9.774 C16.097,9.774 15.753,9.774 15.41,9.774 C15.294,9.774 15.224,9.708 15.223,9.592 C15.222,9.387 15.222,9.181 15.223,8.976 C15.223,8.866 15.288,8.802 15.401,8.802 C15.576,8.802 15.752,8.802 15.927,8.802 Z" id="Shape" fill="#FFFFFF"></path>
                        <circle id="Oval" fill="#FFFFFF" cx="10.069" cy="3.444" r="1"></circle>
                        <path d="M10.085,12.289 C8.224,12.289 6.362,12.289 4.502,12.289 C4.475,12.289 4.444,12.285 4.426,12.271 C4.406,12.257 4.389,12.229 4.388,12.205 C4.384,12.12 4.386,12.036 4.387,11.951 C4.388,11.905 4.418,11.875 4.467,11.868 C4.484,11.868 4.498,11.868 4.514,11.868 C8.205,11.868 11.897,11.868 15.586,11.868 C15.623,11.868 15.656,11.868 15.692,11.87 C15.74,11.872 15.772,11.899 15.773,11.947 C15.776,12.032 15.776,12.118 15.774,12.201 C15.773,12.265 15.744,12.289 15.672,12.289 C13.811,12.289 11.947,12.289 10.085,12.289 Z" id="Shape" fill="#FFFFFF"></path>
                        <path d="M10.085,11.707 C8.41,11.707 6.734,11.707 5.059,11.707 C5.044,11.707 5.029,11.709 5.013,11.707 C4.956,11.703 4.934,11.678 4.934,11.62 C4.933,11.553 4.933,11.483 4.934,11.415 C4.934,11.331 4.977,11.288 5.059,11.288 C8.386,11.288 11.715,11.288 15.044,11.288 C15.074,11.288 15.103,11.29 15.132,11.29 C15.185,11.292 15.222,11.324 15.223,11.377 C15.225,11.468 15.225,11.557 15.225,11.645 C15.225,11.676 15.208,11.698 15.179,11.702 C15.158,11.708 15.136,11.708 15.115,11.708 C13.437,11.707 11.762,11.707 10.085,11.707 Z" id="Shape" fill="#FFFFFF"></path>
                    </g>
                </g>
            </g>
        </g>
    </g>
</svg>