<?xml version="1.0" encoding="UTF-8"?>
<svg width="20px" height="18px" viewBox="0 0 20 18" version="1.1" xmlns="http://www.w3.org/2000/svg" xmlns:xlink="http://www.w3.org/1999/xlink">
    <!-- Generator: Sketch 46.2 (44496) - http://www.bohemiancoding.com/sketch -->
    <title>grade-campaign-icon</title>
    <desc>Created with Sketch.</desc>
    <defs></defs>
    <g id="Page-1" stroke="none" stroke-width="1" fill="none" fill-rule="evenodd">
        <g id="4.-Admin-School-Profile-Copy" transform="translate(-270.000000, -232.000000)" fill-rule="nonzero">
            <g id="grade-campaign-icon" transform="translate(270.000000, 231.000000)">
                <path d="M17.534,7.539 L10.281,10.442 L3.03,7.581 L2.617,12.553 C2.598,12.715 2.652,12.882 2.764,12.994 C2.876,13.109 3.033,13.161 3.187,13.14 C3.585,13.078 3.99,13.049 4.395,13.049 C6.804,13.049 8.96,14.119 9.759,15.714 C9.846,15.89 10.017,15.997 10.204,15.997 L10.359,15.997 C10.546,15.997 10.716,15.89 10.803,15.714 C11.604,14.118 13.758,13.049 16.169,13.049 C16.572,13.049 16.979,13.079 17.376,13.14 C17.398,13.144 17.45,13.146 17.452,13.146 C17.728,13.146 17.973,12.926 17.954,12.619 C17.952,12.575 17.534,7.539 17.534,7.539 Z" id="Shape" fill="#1CADF8"></path>
                <path d="M19.425,4.55 L10.46,1.008 C10.346,0.961 10.22,0.961 10.106,1.008 L1.116,4.558 C0.919,4.636 0.791,4.833 0.791,5.052 L0.791,13.457 L1.918,13.457 L1.918,5.844 L10.106,9.079 C10.22,9.122 10.346,9.122 10.46,9.079 L19.426,5.537 C19.622,5.459 19.751,5.262 19.751,5.042 C19.751,4.823 19.621,4.628 19.425,4.55 Z" id="Shape" fill="#1CADF8"></path>
                <path d="M0.253,18.417 C0.237,18.568 0.284,18.715 0.378,18.828 C0.475,18.938 0.61,19 0.752,19 L1.953,19 C2.096,19 2.231,18.938 2.327,18.828 C2.422,18.715 2.469,18.568 2.453,18.417 L2.124,14.376 L0.582,14.376 L0.253,18.417 Z" id="Shape" fill="#F3B322"></path>
            </g>
        </g>
    </g>
</svg>