<?xml version="1.0" encoding="utf-8"?>
<!-- Generator: Adobe Illustrator 16.0.0, SVG Export Plug-In . SVG Version: 6.00 Build 0)  -->
<!DOCTYPE svg PUBLIC "-//W3C//DTD SVG 1.1//EN" "http://www.w3.org/Graphics/SVG/1.1/DTD/svg11.dtd">
<svg version="1.1" id="Layer_1" xmlns="http://www.w3.org/2000/svg" xmlns:xlink="http://www.w3.org/1999/xlink" x="0px" y="0px"
	 width="20px" height="20px" viewBox="0 0 20 20" enable-background="new 0 0 20 20" xml:space="preserve">
<g>
	<g>
		<path fill="#1E3F75" d="M17.534,7.539l-7.253,2.903L3.03,7.581l-0.413,4.972c-0.019,0.162,0.035,0.329,0.147,0.441
			c0.112,0.115,0.269,0.167,0.423,0.146c0.398-0.062,0.803-0.091,1.208-0.091c2.409,0,4.565,1.07,5.364,2.665
			c0.087,0.176,0.258,0.283,0.445,0.283h0.155c0.187,0,0.357-0.107,0.444-0.283c0.801-1.596,2.955-2.665,5.366-2.665
			c0.403,0,0.81,0.03,1.207,0.091c0.022,0.004,0.074,0.006,0.076,0.006c0.276,0,0.521-0.22,0.502-0.527
			C17.952,12.575,17.534,7.539,17.534,7.539z"/>
		<path fill="#1E3F75" d="M19.425,4.55L10.46,1.008c-0.114-0.047-0.24-0.047-0.354,0l-8.99,3.55
			C0.919,4.636,0.791,4.833,0.791,5.052v8.405h1.127V5.844l8.188,3.235c0.114,0.043,0.24,0.043,0.354,0l8.966-3.542
			c0.196-0.078,0.325-0.275,0.325-0.495C19.751,4.823,19.621,4.628,19.425,4.55z"/>
		<path fill="#178DBE" d="M0.253,18.417c-0.016,0.151,0.031,0.298,0.125,0.411C0.475,18.938,0.61,19,0.752,19h1.201
			c0.143,0,0.278-0.062,0.374-0.172c0.095-0.113,0.142-0.26,0.126-0.411l-0.329-4.041H0.582L0.253,18.417z"/>
	</g>
</g>
</svg>
