<?xml version="1.0" encoding="utf-8"?>
<!-- Generator: Adobe Illustrator 16.0.0, SVG Export Plug-In . SVG Version: 6.00 Build 0)  -->
<!DOCTYPE svg PUBLIC "-//W3C//DTD SVG 1.1//EN" "http://www.w3.org/Graphics/SVG/1.1/DTD/svg11.dtd">
<svg version="1.1" id="Layer_1" xmlns="http://www.w3.org/2000/svg" xmlns:xlink="http://www.w3.org/1999/xlink" x="0px" y="0px"
	 width="50px" height="50px" viewBox="0 0 50 50" enable-background="new 0 0 50 50" xml:space="preserve">
<path fill="#178DBE" d="M24.903,19.267c-3.146,0-5.703,2.549-5.703,5.699c0,3.148,2.557,5.704,5.703,5.704
	c3.149,0,5.705-2.556,5.705-5.704C30.607,21.816,28.053,19.267,24.903,19.267z"/>
<g>
	<path fill="#178DBE" d="M47.117,0.25H2.884C1.43,0.25,0.25,1.43,0.25,2.883v44.234c0,1.453,1.18,2.633,2.634,2.633h44.233
		c1.453,0,2.633-1.18,2.633-2.633V2.883C49.748,1.43,48.57,0.25,47.117,0.25z M42.157,32.09c0,5.452-4.388,9.865-9.806,9.865H17.646
		c-5.412,0-9.803-4.413-9.803-9.865V17.911c0-5.447,4.391-9.866,9.803-9.866h14.706c5.418,0,9.807,4.419,9.807,9.866L42.157,32.09
		L42.157,32.09z"/>
	<path fill="#178DBE" d="M30.967,10.978H18.984c-5.583,0-7.992,2.257-7.992,8.137v11.695c0,5.401,2.449,8.143,7.992,8.143h11.983
		c5.598,0,7.98-2.852,7.98-8.143V19.115C38.947,13.452,36.191,10.978,30.967,10.978z M24.903,33.729
		c-4.839,0-8.759-3.92-8.759-8.763s3.92-8.757,8.759-8.757c4.839,0,8.765,3.915,8.765,8.757
		C33.668,29.809,29.742,33.729,24.903,33.729z M34.061,17.951c-1.164,0-2.11-0.947-2.11-2.111s0.946-2.111,2.11-2.111
		s2.105,0.948,2.105,2.111S35.225,17.951,34.061,17.951z"/>
</g>
</svg>
