<?xml version="1.0" encoding="utf-8"?>
<!-- Generator: Adobe Illustrator 16.0.0, SVG Export Plug-In . SVG Version: 6.00 Build 0)  -->
<!DOCTYPE svg PUBLIC "-//W3C//DTD SVG 1.1//EN" "http://www.w3.org/Graphics/SVG/1.1/DTD/svg11.dtd">
<svg version="1.1" id="Layer_1" xmlns="http://www.w3.org/2000/svg" xmlns:xlink="http://www.w3.org/1999/xlink" x="0px" y="0px"
	 width="50px" height="50px" viewBox="0 0 50 50" enable-background="new 0 0 50 50" xml:space="preserve">
<g>
	<path fill="#178DBE" d="M47.119,0.25H2.884c-1.453,0-2.634,1.181-2.634,2.634v44.233c0,1.451,1.181,2.633,2.634,2.633h44.233
		c1.455,0,2.633-1.182,2.633-2.633V2.884C49.752,1.43,48.574,0.25,47.119,0.25z M14.16,44.591H6.022V18.419h8.136L14.16,44.591
		L14.16,44.591z M10.096,14.842c-2.607,0-4.718-2.113-4.718-4.717c0-2.601,2.112-4.715,4.718-4.715c2.602,0,4.713,2.113,4.713,4.715
		C14.808,12.728,12.695,14.842,10.096,14.842z M44.625,44.589h-8.127V31.863c0-3.035-0.059-6.939-4.229-6.939
		c-4.229,0-4.881,3.307-4.881,6.723V44.59h-8.13V18.419h7.804v3.576h0.107c1.088-2.058,3.738-4.227,7.693-4.227
		c8.236,0,9.758,5.419,9.758,12.464L44.625,44.589L44.625,44.589z"/>
</g>
</svg>
