<?xml version="1.0" encoding="utf-8"?>
<!-- Generator: Adobe Illustrator 16.0.0, SVG Export Plug-In . SVG Version: 6.00 Build 0)  -->
<!DOCTYPE svg PUBLIC "-//W3C//DTD SVG 1.1//EN" "http://www.w3.org/Graphics/SVG/1.1/DTD/svg11.dtd">
<svg version="1.1" id="Layer_1" xmlns="http://www.w3.org/2000/svg" xmlns:xlink="http://www.w3.org/1999/xlink" x="0px" y="0px"
	 width="188.031px" height="203.368px" viewBox="0 0 188.031 203.368" enable-background="new 0 0 188.031 203.368"
	 xml:space="preserve">
<g id="blue">
	<g>
		<path fill="#1D3F75" d="M165.693,35.064L106.281,0L72.524,6.577L11.84,41.617L0,73.596v69.734l22.788,25.854l58.13,34.183
			l33.75-5.693l60.662-33.766l12.701-32.865V61.771L165.693,35.064z M105.163,6.301l55.604,32.8v76.647l-16.729,8.662V47.283
			L81.881,10.84L105.163,6.301z M16.688,45.706l56.858-32.831l64.658,37.918l-0.108,18.494L95.055,44.432l-2.291-1.397L72.35,30.584
			L8.66,67.414L16.688,45.706z M138.064,76.168v51.434l-44.543,25.715L48.983,127.61V76.168l44.545-25.721L138.064,76.168z
			 M21.709,84.965v73.973L5.972,141.077V75.865l66.29-38.334l15.416,9.398L44.512,71.854L21.709,84.965z M82.065,197.127
			l-54.383-31.992V88.4l15.329-8.8v49.727l-0.005,0.002v27.108l56.605,33.541l5.494,3.254L82.065,197.127z M170.541,159.735
			l-56.85,31.641l-11.356-6.727l-53.352-31.617v-18.527l64.837,37.424l2.923,0.021h0.021l0,0l1.459-0.812l61.049-33.996
			L170.541,159.735z M182.059,128.745l-66.72,37.166l-15.841-9.152l42.986-24.816l24.254-12.559V45.622l15.32,18.327V128.745
			L182.059,128.745z"/>
	</g>
</g>
</svg>
