<?xml version="1.0" encoding="utf-8"?>
<!-- Generator: Adobe Illustrator 16.0.0, SVG Export Plug-In . SVG Version: 6.00 Build 0)  -->
<!DOCTYPE svg PUBLIC "-//W3C//DTD SVG 1.1//EN" "http://www.w3.org/Graphics/SVG/1.1/DTD/svg11.dtd">
<svg version="1.1" id="Layer_1" xmlns="http://www.w3.org/2000/svg" xmlns:xlink="http://www.w3.org/1999/xlink" x="0px" y="0px"
	 width="714.234px" height="203.368px" viewBox="0 0 714.234 203.368" enable-background="new 0 0 714.234 203.368"
	 xml:space="preserve">
<g id="coloured_white">
	<g>
		
			<linearGradient id="SVGID_1_" gradientUnits="userSpaceOnUse" x1="10" y1="65.9565" x2="146.5885" y2="65.9565" gradientTransform="matrix(1 0 0 -1 -6 108.3682)">
			<stop  offset="0" style="stop-color:#188EBF"/>
			<stop  offset="0.2459" style="stop-color:#1D7AAA"/>
			<stop  offset="0.7761" style="stop-color:#1C5184"/>
			<stop  offset="1" style="stop-color:#1D3F75"/>
		</linearGradient>
		<polygon fill="url(#SVGID_1_)" points="15.169,44.127 4,74.316 72.662,34.613 93.69,47.434 140.765,74.614 140.912,49.504 
			73.908,10.209 		"/>
		
			<linearGradient id="SVGID_2_" gradientUnits="userSpaceOnUse" x1="196.8633" y1="54.0454" x2="127.9895" y2="-63.9688" gradientTransform="matrix(1 0 0 -1 -6 108.3682)">
			<stop  offset="0" style="stop-color:#F68B1F"/>
			<stop  offset="1" style="stop-color:#FFCF01"/>
		</linearGradient>
		<polygon fill="url(#SVGID_2_)" points="163.25,117.336 140.765,128.983 93.69,156.165 115.268,168.629 184.342,130.163 
			184.342,63.148 163.25,37.922 		"/>
		
			<linearGradient id="SVGID_3_" gradientUnits="userSpaceOnUse" x1="92.2236" y1="-101.4985" x2="25.2819" y2="18.4544" gradientTransform="matrix(1 0 0 -1 -6 108.3682)">
			<stop  offset="0" style="stop-color:#6CBE45"/>
			<stop  offset="1" style="stop-color:#0D9046"/>
		</linearGradient>
		<polygon fill="url(#SVGID_3_)" points="25.506,86.729 25.506,166.145 81.766,199.237 113.611,193.866 46.607,154.157 
			46.607,128.983 46.607,74.614 		"/>
		
			<linearGradient id="SVGID_4_" gradientUnits="userSpaceOnUse" x1="107.9985" y1="113.8979" x2="174.5499" y2="-4.8876" gradientTransform="matrix(1 0 0 -1 -6 108.3682)">
			<stop  offset="0" style="stop-color:#F68B1F"/>
			<stop  offset="1" style="stop-color:#FFCF01"/>
		</linearGradient>
		<polygon fill="url(#SVGID_4_)" points="73.908,10.209 140.912,49.504 140.765,74.614 140.765,128.983 163.25,117.336 
			163.25,37.922 105.75,4 		"/>
		
			<linearGradient id="SVGID_5_" gradientUnits="userSpaceOnUse" x1="3.5352" y1="-41.5586" x2="72.4761" y2="77.3451" gradientTransform="matrix(1 0 0 -1 -6 108.3682)">
			<stop  offset="0" style="stop-color:#6CBE45"/>
			<stop  offset="0.2554" style="stop-color:#67B945"/>
			<stop  offset="0.5116" style="stop-color:#59AE45"/>
			<stop  offset="0.7672" style="stop-color:#40A046"/>
			<stop  offset="1" style="stop-color:#0D9046"/>
		</linearGradient>
		<polygon fill="url(#SVGID_5_)" points="4,74.316 4,141.745 25.506,166.145 25.506,86.729 46.607,74.614 93.69,47.434 
			72.667,34.613 		"/>
		
			<linearGradient id="SVGID_6_" gradientUnits="userSpaceOnUse" x1="191.686" y1="-53.647" x2="52.3961" y2="-52.8733" gradientTransform="matrix(1 0 0 -1 -6 108.3682)">
			<stop  offset="0" style="stop-color:#188EBF"/>
			<stop  offset="0.2459" style="stop-color:#1D7AAA"/>
			<stop  offset="0.7761" style="stop-color:#1C5184"/>
			<stop  offset="1" style="stop-color:#1D3F75"/>
		</linearGradient>
		<polygon fill="url(#SVGID_6_)" points="46.602,154.157 113.617,193.866 172.351,161.176 184.337,130.154 115.268,168.629 
			93.69,156.165 46.602,128.993 		"/>
	</g>
	<g>
		<g>
			<polygon fill="#FFFFFF" points="218.295,63.378 227.97,63.378 250.325,92.758 250.325,63.378 260.689,63.378 260.689,111.096 
				251.762,111.096 228.653,80.766 228.653,111.096 218.295,111.096 			"/>
			<path fill="#FFFFFF" d="M265.941,87.371v-0.135c0-13.562,10.7-24.674,25.426-24.674c14.723,0,25.284,10.976,25.284,24.539v0.135
				c0,13.564-10.702,24.679-25.42,24.679C276.506,111.915,265.941,100.935,265.941,87.371 M305.681,87.371v-0.135
				c0-8.18-5.999-14.994-14.449-14.994c-8.457,0-14.319,6.679-14.319,14.859v0.135c0,8.182,6.003,15.005,14.455,15.005
				C299.822,102.241,305.681,95.557,305.681,87.371"/>
			<polygon fill="#FFFFFF" points="314.747,63.378 326.335,63.378 338.811,96.984 351.287,63.378 362.597,63.378 343.312,111.438 
				334.039,111.438 			"/>
			<path fill="#FFFFFF" d="M375.422,63.041h9.675l20.449,48.055h-10.977l-4.355-10.701H370.03l-4.359,10.701H354.97L375.422,63.041z
				 M386.465,91.125l-6.345-15.473l-6.337,15.473H386.465z"/>
			<path fill="#FFFFFF" d="M425.184,63.378h19.489c11.385,0,18.27,6.75,18.27,16.497v0.135c0,11.043-8.585,16.775-19.29,16.775
				h-7.975v14.311h-10.494V63.378L425.184,63.378z M443.998,87.443c5.241,0,8.311-3.137,8.311-7.227V80.08
				c0-4.706-3.271-7.227-8.519-7.227h-8.112v14.589L443.998,87.443L443.998,87.443z"/>
			<rect x="467.101" y="63.378" fill="#FFFFFF" width="10.498" height="47.718"/>
			<path fill="#FFFFFF" d="M483.327,87.371v-0.135c0-13.562,10.701-24.674,25.425-24.674c14.726,0,25.29,10.976,25.29,24.539v0.135
				c0,13.564-10.7,24.679-25.426,24.679C493.89,111.915,483.327,100.935,483.327,87.371 M523.067,87.371v-0.135
				c0-8.18-5.999-14.994-14.451-14.994c-8.455,0-14.313,6.679-14.313,14.859v0.135c0,8.182,5.999,15.005,14.449,15.005
				C517.203,102.241,523.067,95.557,523.067,87.371"/>
			<polygon fill="#FFFFFF" points="539.294,63.378 548.975,63.378 571.33,92.758 571.33,63.378 581.688,63.378 581.688,111.096 
				572.761,111.096 549.652,80.766 549.652,111.096 539.294,111.096 			"/>
			<polygon fill="#FFFFFF" points="589.054,63.378 625.047,63.378 625.047,72.719 599.481,72.719 599.481,82.402 621.979,82.402 
				621.979,91.736 599.481,91.736 599.481,101.758 625.385,101.758 625.385,111.096 589.054,111.096 			"/>
			<polygon fill="#FFFFFF" points="630.635,63.378 666.626,63.378 666.626,72.719 641.066,72.719 641.066,82.402 663.561,82.402 
				663.561,91.736 641.066,91.736 641.066,101.758 666.973,101.758 666.973,111.096 630.635,111.096 			"/>
			<path fill="#FFFFFF" d="M672.22,63.378h21.812c6.065,0,10.769,1.705,13.905,4.841c2.66,2.66,4.095,6.409,4.095,10.909v0.135
				c0,7.7-4.157,12.541-10.229,14.791l11.66,17.042h-12.275l-10.225-15.269h-8.244v15.269H672.22V63.378z M693.347,86.557
				c5.112,0,8.052-2.727,8.052-6.75v-0.135c0-4.495-3.137-6.817-8.254-6.817h-10.427v13.702H693.347z"/>
		</g>
		<g>
			<path fill="#FFFFFF" d="M217.68,149.013l2.222-2.664c1.54,1.265,3.149,2.069,5.103,2.069c1.54,0,2.472-0.612,2.472-1.61v-0.045
				c0-0.954-0.585-1.449-3.447-2.179c-3.443-0.881-5.665-1.836-5.665-5.229v-0.049c0-3.101,2.492-5.154,5.983-5.154
				c2.494,0,4.623,0.783,6.351,2.171l-1.953,2.834c-1.517-1.05-3.007-1.683-4.447-1.683c-1.439,0-2.2,0.655-2.2,1.489v0.05
				c0,1.125,0.735,1.489,3.694,2.25c3.465,0.899,5.424,2.151,5.424,5.13v0.05c0,3.397-2.594,5.3-6.283,5.3
				C222.345,151.743,219.73,150.84,217.68,149.013"/>
			<path fill="#FFFFFF" d="M233.239,142.991v-0.046c0-4.858,3.663-8.846,8.919-8.846c3.227,0,5.152,1.08,6.745,2.642l-2.397,2.764
				c-1.318-1.201-2.66-1.93-4.373-1.93c-2.885,0-4.961,2.389-4.961,5.326v0.044c0,2.931,2.025,5.374,4.961,5.374
				c1.952,0,3.152-0.777,4.5-1.999l2.392,2.419c-1.763,1.879-3.716,3.055-7.015,3.055
				C236.979,151.793,233.239,147.907,233.239,142.991"/>
			<polygon fill="#FFFFFF" points="251.536,134.396 255.298,134.396 255.298,141.165 262.238,141.165 262.238,134.396 
				266.003,134.396 266.003,151.497 262.238,151.497 262.238,144.629 255.298,144.629 255.298,151.497 251.536,151.497 			"/>
			<path fill="#FFFFFF" d="M268.856,142.991v-0.046c0-4.858,3.835-8.846,9.117-8.846c5.273,0,9.059,3.938,9.059,8.802v0.044
				c0,4.86-3.829,8.849-9.112,8.849C272.646,151.793,268.856,147.86,268.856,142.991 M283.104,142.991v-0.046
				c0-2.933-2.15-5.37-5.184-5.37c-3.029,0-5.126,2.389-5.126,5.326v0.044c0,2.931,2.151,5.374,5.18,5.374
				C281.003,148.319,283.104,145.926,283.104,142.991"/>
			<path fill="#FFFFFF" d="M289.135,142.991v-0.046c0-4.858,3.837-8.846,9.115-8.846c5.275,0,9.062,3.938,9.062,8.802v0.044
				c0,4.86-3.833,8.849-9.111,8.849C292.923,151.793,289.135,147.86,289.135,142.991 M303.376,142.991v-0.046
				c0-2.933-2.141-5.37-5.175-5.37c-3.028,0-5.129,2.389-5.129,5.326v0.044c0,2.931,2.149,5.374,5.178,5.374
				S303.376,145.926,303.376,142.991"/>
			<polygon fill="#FFFFFF" points="310.167,134.396 313.934,134.396 313.934,148.077 322.461,148.077 322.461,151.497 
				310.167,151.497 			"/>
			<path fill="#FFFFFF" d="M323.632,149.013l2.222-2.664c1.54,1.265,3.155,2.069,5.108,2.069c1.538,0,2.466-0.612,2.466-1.61v-0.045
				c0-0.954-0.585-1.449-3.442-2.179c-3.447-0.881-5.666-1.836-5.666-5.229v-0.049c0-3.101,2.488-5.154,5.984-5.154
				c2.489,0,4.618,0.783,6.351,2.171l-1.953,2.834c-1.516-1.05-3.009-1.683-4.45-1.683c-1.44,0-2.196,0.655-2.196,1.489v0.05
				c0,1.125,0.733,1.489,3.69,2.25c3.47,0.899,5.423,2.151,5.423,5.13v0.05c0,3.397-2.588,5.3-6.283,5.3
				C328.302,151.743,325.683,150.84,323.632,149.013"/>
			<polygon fill="#FFFFFF" points="346.792,134.396 359.816,134.396 359.816,137.816 350.554,137.816 350.554,141.454 
				358.712,141.454 358.712,144.877 350.554,144.877 350.554,151.497 346.792,151.497 			"/>
			<path fill="#FFFFFF" d="M361.572,142.991v-0.046c0-4.858,3.832-8.846,9.115-8.846c5.273,0,9.062,3.938,9.062,8.802v0.044
				c0,4.86-3.839,8.849-9.112,8.849C365.36,151.793,361.572,147.86,361.572,142.991 M375.817,142.991v-0.046
				c0-2.933-2.149-5.37-5.18-5.37c-3.034,0-5.135,2.389-5.135,5.326v0.044c0,2.931,2.155,5.374,5.185,5.374
				S375.817,145.926,375.817,142.991"/>
			<path fill="#FFFFFF" d="M382.609,134.396h7.814c2.175,0,3.862,0.608,4.987,1.737c0.952,0.955,1.462,2.295,1.462,3.906v0.045
				c0,2.764-1.49,4.5-3.663,5.311l4.18,6.102h-4.396l-3.667-5.472h-2.962v5.472h-3.757L382.609,134.396L382.609,134.396z
				 M390.183,142.704c1.831,0,2.885-0.98,2.885-2.422v-0.044c0-1.61-1.13-2.444-2.956-2.444h-3.744v4.91H390.183z"/>
			<rect x="406.792" y="134.396" fill="#FFFFFF" width="3.762" height="17.101"/>
			<polygon fill="#FFFFFF" points="414.342,134.396 417.812,134.396 425.827,144.926 425.827,134.396 429.54,134.396 
				429.54,151.497 426.341,151.497 418.054,140.625 418.054,151.497 414.342,151.497 			"/>
			<polygon fill="#FFFFFF" points="433.152,134.396 436.622,134.396 444.641,144.926 444.641,134.396 448.349,134.396 
				448.349,151.497 445.149,151.497 436.864,140.625 436.864,151.497 433.152,151.497 			"/>
			<path fill="#FFFFFF" d="M451.206,142.991v-0.046c0-4.858,3.84-8.846,9.113-8.846c5.282,0,9.065,3.938,9.065,8.802v0.044
				c0,4.86-3.837,8.849-9.116,8.849C454.991,151.793,451.206,147.86,451.206,142.991 M465.448,142.991v-0.046
				c0-2.933-2.146-5.37-5.18-5.37c-3.027,0-5.129,2.389-5.129,5.326v0.044c0,2.931,2.149,5.374,5.18,5.374
				C463.348,148.319,465.448,145.926,465.448,142.991"/>
			<polygon fill="#FFFFFF" points="469.674,134.396 473.828,134.396 478.302,146.443 482.773,134.396 486.828,134.396 
				479.917,151.62 476.586,151.62 			"/>
			<path fill="#FFFFFF" d="M492.396,134.275h3.474l7.326,17.222h-3.935l-1.563-3.834h-7.229l-1.568,3.834h-3.834L492.396,134.275z
				 M496.359,144.342l-2.276-5.549l-2.272,5.549H496.359z"/>
			<polygon fill="#FFFFFF" points="507.128,137.861 501.927,137.861 501.927,134.396 516.093,134.396 516.093,137.861 
				510.89,137.861 510.89,151.497 507.128,151.497 			"/>
			<path fill="#FFFFFF" d="M516.996,142.991v-0.046c0-4.858,3.839-8.846,9.112-8.846c5.278,0,9.071,3.938,9.071,8.802v0.044
				c0,4.86-3.839,8.849-9.115,8.849C520.789,151.793,516.996,147.86,516.996,142.991 M531.243,142.991v-0.046
				c0-2.933-2.146-5.37-5.179-5.37c-3.028,0-5.132,2.389-5.132,5.326v0.044c0,2.931,2.146,5.374,5.176,5.374
				C529.143,148.319,531.243,145.926,531.243,142.991"/>
			<path fill="#FFFFFF" d="M538.033,134.396h7.816c2.174,0,3.86,0.608,4.99,1.737c0.946,0.955,1.463,2.295,1.463,3.906v0.045
				c0,2.764-1.488,4.5-3.667,5.311l4.175,6.102h-4.391l-3.669-5.472h-2.955v5.472h-3.764L538.033,134.396L538.033,134.396z
				 M545.611,142.704c1.828,0,2.876-0.98,2.876-2.422v-0.044c0-1.61-1.12-2.444-2.957-2.444h-3.733v4.91H545.611z"/>
			<path fill="#FFFFFF" d="M554.031,149.013l2.228-2.664c1.543,1.265,3.149,2.069,5.108,2.069c1.538,0,2.461-0.612,2.461-1.61
				v-0.045c0-0.954-0.58-1.449-3.442-2.179c-3.442-0.881-5.665-1.836-5.665-5.229v-0.049c0-3.101,2.489-5.154,5.983-5.154
				c2.494,0,4.618,0.783,6.354,2.171l-1.956,2.834c-1.512-1.05-3.003-1.683-4.446-1.683c-1.44,0-2.196,0.655-2.196,1.489v0.05
				c0,1.125,0.729,1.489,3.682,2.25c3.479,0.899,5.433,2.151,5.433,5.13v0.05c0,3.397-2.593,5.3-6.277,5.3
				C558.702,151.743,556.088,150.84,554.031,149.013"/>
			<path fill="#FFFFFF" d="M586.724,149.836c-1.395,1.147-3.031,1.906-5.009,1.906c-3.273,0-5.74-1.906-5.74-4.936v-0.045
				c0-2.18,1.17-3.717,3.314-4.698c-0.827-1.17-1.191-2.246-1.191-3.42V138.6c0-2.35,1.882-4.5,5.182-4.5
				c2.905,0,4.813,1.908,4.813,4.302v0.05c0,2.295-1.472,3.641-3.597,4.469l2.272,2.275c0.562-0.881,1.125-1.879,1.665-2.933
				l2.758,1.517c-0.661,1.191-1.39,2.467-2.25,3.613l2.521,2.52l-2.758,1.926L586.724,149.836z M584.623,147.689l-3.277-3.33
				c-1.125,0.595-1.587,1.423-1.587,2.255v0.049c0,1.197,1.002,1.998,2.397,1.998C583.007,148.661,583.835,148.301,584.623,147.689
				 M584.816,138.67v-0.043c0-0.981-0.658-1.594-1.616-1.594c-0.998,0-1.661,0.711-1.661,1.736v0.046
				c0,0.754,0.298,1.322,1.004,2.123C584.037,140.381,584.816,139.747,584.816,138.67"/>
			<polygon fill="#FFFFFF" points="600.552,134.396 604.311,134.396 604.311,148.077 612.837,148.077 612.837,151.497 
				600.552,151.497 			"/>
			<polygon fill="#FFFFFF" points="615.183,134.396 628.085,134.396 628.085,137.745 618.921,137.745 618.921,141.209 
				626.98,141.209 626.98,144.558 618.921,144.558 618.921,148.148 628.209,148.148 628.209,151.497 615.183,151.497 			"/>
			<path fill="#FFFFFF" d="M636.927,134.275h3.474l7.33,17.222h-3.94l-1.558-3.834H635l-1.566,3.834H629.6L636.927,134.275z
				 M640.887,144.342l-2.271-5.549l-2.273,5.549H640.887z"/>
			<path fill="#FFFFFF" d="M649.878,134.396h6.669c5.372,0,9.085,3.69,9.085,8.506v0.044c0,4.816-3.713,8.551-9.085,8.551h-6.669
				V134.396z M656.547,148.104c3.076,0,5.156-2.079,5.156-5.104v-0.056c0-3.026-2.08-5.151-5.156-5.151h-2.907v10.311H656.547z"/>
			<polygon fill="#FFFFFF" points="668.489,134.396 681.391,134.396 681.391,137.745 672.233,137.745 672.233,141.209 
				680.292,141.209 680.292,144.558 672.233,144.558 672.233,148.148 681.512,148.148 681.512,151.497 668.489,151.497 			"/>
			<path fill="#FFFFFF" d="M684.37,134.396h7.82c2.178,0,3.855,0.608,4.98,1.737c0.954,0.955,1.468,2.295,1.468,3.906v0.045
				c0,2.764-1.494,4.5-3.663,5.311l4.178,6.102h-4.402l-3.663-5.472h-2.951v5.472h-3.767V134.396z M691.947,142.704
				c1.827,0,2.88-0.98,2.88-2.422v-0.044c0-1.61-1.125-2.444-2.955-2.444h-3.735v4.91H691.947z"/>
			<path fill="#FFFFFF" d="M700.371,149.013l2.224-2.664c1.54,1.265,3.15,2.069,5.104,2.069c1.538,0,2.47-0.612,2.47-1.61v-0.045
				c0-0.954-0.583-1.449-3.441-2.179c-3.446-0.881-5.664-1.836-5.664-5.229v-0.049c0-3.101,2.487-5.154,5.984-5.154
				c2.483,0,4.612,0.783,6.344,2.171l-1.947,2.834c-1.518-1.05-3.012-1.683-4.445-1.683c-1.444,0-2.2,0.655-2.2,1.489v0.05
				c0,1.125,0.732,1.489,3.689,2.25c3.465,0.899,5.423,2.151,5.423,5.13v0.05c0,3.397-2.593,5.3-6.282,5.3
				C705.034,151.743,702.424,150.84,700.371,149.013"/>
		</g>
	</g>
</g>
</svg>
