<svg xmlns="http://www.w3.org/2000/svg">
  <symbol id="quote-mark" viewBox="0 0 18.958 15.693">
  	<path d="M6.192,8.209c0.477,0.287,2.334,1,2.334,3.574c0,2.047-1.619,3.81-4.048,3.81c-2.096,0-4.238-1.953-4.238-5.239
  		c0-5.621,4.856-9.287,6.047-10.049c0.62-0.333,1.144-0.19,1.239-0.047c0.095,0.19,0.095,0.57-0.143,0.857
  		c-0.809,1.096-2.476,3-2.476,5.38C4.907,7.686,5.812,8.163,6.192,8.209z M16.385,8.209c0.475,0.287,2.332,1,2.332,3.574
  		c0,2.047-1.619,3.81-4.048,3.81c-2.094,0-4.238-1.953-4.238-5.239c0-5.621,4.858-9.287,6.049-10.049
  		c0.619-0.333,1.142-0.19,1.237-0.047c0.095,0.19,0.095,0.57-0.142,0.857c-0.811,1.096-2.478,3-2.478,5.38
  		C15.098,7.686,16.003,8.163,16.385,8.209z"/>
  </symbol>
</svg>  
