<?xml version="1.0" encoding="utf-8"?>
<!-- Generator: Adobe Illustrator 16.0.0, SVG Export Plug-In . SVG Version: 6.00 Build 0)  -->
<!DOCTYPE svg PUBLIC "-//W3C//DTD SVG 1.1//EN" "http://www.w3.org/Graphics/SVG/1.1/DTD/svg11.dtd">
<svg version="1.1" id="Layer_1" xmlns="http://www.w3.org/2000/svg" xmlns:xlink="http://www.w3.org/1999/xlink" x="0px" y="0px"
	 width="500.953px" height="323.781px" viewBox="0 0 500.953 323.781" enable-background="new 0 0 500.953 323.781"
	 xml:space="preserve">
<g>
	<g>
		
			<linearGradient id="SVGID_1_" gradientUnits="userSpaceOnUse" x1="166.751" y1="186.3691" x2="303.3398" y2="186.3691" gradientTransform="matrix(1 0 0 -1 -6 228.7812)">
			<stop  offset="0" style="stop-color:#188EBF"/>
			<stop  offset="0.2459" style="stop-color:#1D7AAA"/>
			<stop  offset="0.7761" style="stop-color:#1C5184"/>
			<stop  offset="1" style="stop-color:#1D3F75"/>
		</linearGradient>
		<polygon fill="url(#SVGID_1_)" points="171.92,44.124 160.751,74.319 229.411,34.611 250.439,47.433 297.514,74.616 
			297.664,49.502 230.657,10.208 		"/>
		
			<linearGradient id="SVGID_2_" gradientUnits="userSpaceOnUse" x1="353.6128" y1="174.4639" x2="284.7407" y2="56.4527" gradientTransform="matrix(1 0 0 -1 -6 228.7812)">
			<stop  offset="0" style="stop-color:#F68B1F"/>
			<stop  offset="1" style="stop-color:#FFCF01"/>
		</linearGradient>
		<polygon fill="url(#SVGID_2_)" points="320.001,117.33 297.514,128.977 250.439,156.155 272.019,168.621 341.093,130.155 
			341.093,63.147 320.001,37.919 		"/>
		
			<linearGradient id="SVGID_3_" gradientUnits="userSpaceOnUse" x1="248.9702" y1="18.9209" x2="182.0328" y2="138.8663" gradientTransform="matrix(1 0 0 -1 -6 228.7812)">
			<stop  offset="0" style="stop-color:#6CBE45"/>
			<stop  offset="1" style="stop-color:#0D9046"/>
		</linearGradient>
		<polygon fill="url(#SVGID_3_)" points="182.256,86.729 182.256,166.146 238.515,199.239 270.36,193.857 203.356,154.149 
			203.356,128.977 203.356,74.616 		"/>
		
			<linearGradient id="SVGID_4_" gradientUnits="userSpaceOnUse" x1="264.7485" y1="234.3115" x2="331.2985" y2="115.5286" gradientTransform="matrix(1 0 0 -1 -6 228.7812)">
			<stop  offset="0" style="stop-color:#F68B1F"/>
			<stop  offset="1" style="stop-color:#FFCF01"/>
		</linearGradient>
		<polygon fill="url(#SVGID_4_)" points="230.657,10.208 297.664,49.502 297.514,74.616 297.514,128.977 320.001,117.33 
			320.001,37.919 262.5,4 		"/>
		
			<linearGradient id="SVGID_5_" gradientUnits="userSpaceOnUse" x1="160.2847" y1="78.8521" x2="229.2271" y2="197.7583" gradientTransform="matrix(1 0 0 -1 -6 228.7812)">
			<stop  offset="0" style="stop-color:#6CBE45"/>
			<stop  offset="0.2554" style="stop-color:#67B945"/>
			<stop  offset="0.5116" style="stop-color:#59AE45"/>
			<stop  offset="0.7672" style="stop-color:#40A046"/>
			<stop  offset="1" style="stop-color:#0D9046"/>
		</linearGradient>
		<polygon fill="url(#SVGID_5_)" points="160.751,74.319 160.751,141.739 182.256,166.146 182.256,86.729 203.356,74.616 
			250.439,47.433 229.416,34.611 		"/>
		
			<linearGradient id="SVGID_6_" gradientUnits="userSpaceOnUse" x1="348.436" y1="66.7739" x2="209.1466" y2="67.5477" gradientTransform="matrix(1 0 0 -1 -6 228.7812)">
			<stop  offset="0" style="stop-color:#188EBF"/>
			<stop  offset="0.2459" style="stop-color:#1D7AAA"/>
			<stop  offset="0.7761" style="stop-color:#1C5184"/>
			<stop  offset="1" style="stop-color:#1D3F75"/>
		</linearGradient>
		<polygon fill="url(#SVGID_6_)" points="203.352,154.159 270.367,193.857 329.099,161.169 341.087,130.146 272.019,168.621 
			250.439,156.165 203.352,128.985 		"/>
	</g>
	<g>
		<polygon fill="#FFFFFF" points="3.341,233.188 13.015,233.188 35.371,262.573 35.371,233.188 45.735,233.188 45.735,280.904 
			36.808,280.904 13.699,250.577 13.699,280.904 3.341,280.904 		"/>
		<path fill="#FFFFFF" d="M50.985,257.182v-0.136c0-13.562,10.702-24.668,25.426-24.668c14.725,0,25.285,10.972,25.285,24.533v0.135
			c0,13.563-10.701,24.681-25.421,24.681C61.552,281.727,50.985,270.744,50.985,257.182 M90.727,257.182v-0.136
			c0-8.18-5.999-14.991-14.451-14.991c-8.455,0-14.319,6.678-14.319,14.856v0.135c0,8.183,6.005,15.004,14.455,15.004
			C84.866,272.05,90.727,265.371,90.727,257.182"/>
		<polygon fill="#FFFFFF" points="99.793,233.188 111.381,233.188 123.854,266.794 136.333,233.188 147.641,233.188 
			128.359,281.248 119.085,281.248 		"/>
		<path fill="#FFFFFF" d="M160.466,232.854h9.675l20.449,48.051h-10.977l-4.355-10.7h-20.182l-4.361,10.7h-10.701L160.466,232.854z
			 M171.51,260.936l-6.346-15.472l-6.335,15.472H171.51z"/>
		<path fill="#FFFFFF" d="M210.228,233.188h19.489c11.385,0,18.271,6.75,18.271,16.496v0.135c0,11.045-8.587,16.777-19.292,16.777
			h-7.974v14.309h-10.494V233.188L210.228,233.188z M229.042,257.254c5.243,0,8.312-3.133,8.312-7.229v-0.135
			c0-4.707-3.273-7.227-8.519-7.227h-8.114v14.589L229.042,257.254L229.042,257.254z"/>
		<rect x="252.145" y="233.188" fill="#FFFFFF" width="10.499" height="47.717"/>
		<path fill="#FFFFFF" d="M268.373,257.182v-0.136c0-13.562,10.701-24.668,25.426-24.668c14.723,0,25.289,10.972,25.289,24.533
			v0.135c0,13.563-10.701,24.681-25.426,24.681C278.934,281.727,268.373,270.744,268.373,257.182 M308.111,257.182v-0.136
			c0-8.18-5.997-14.991-14.449-14.991c-8.455,0-14.312,6.678-14.312,14.856v0.135c0,8.183,5.997,15.004,14.449,15.004
			C302.25,272.05,308.111,265.371,308.111,257.182"/>
		<polygon fill="#FFFFFF" points="324.337,233.188 334.019,233.188 356.375,262.573 356.375,233.188 366.732,233.188 
			366.732,280.904 357.804,280.904 334.699,250.577 334.699,280.904 324.337,280.904 		"/>
		<polygon fill="#FFFFFF" points="374.099,233.188 410.091,233.188 410.091,242.529 384.525,242.529 384.525,252.214 
			407.021,252.214 407.021,261.546 384.525,261.546 384.525,271.573 410.429,271.573 410.429,280.904 374.099,280.904 		"/>
		<polygon fill="#FFFFFF" points="415.681,233.188 451.669,233.188 451.669,242.529 426.111,242.529 426.111,252.214 
			448.607,252.214 448.607,261.546 426.111,261.546 426.111,271.573 452.019,271.573 452.019,280.904 415.681,280.904 		"/>
		<path fill="#FFFFFF" d="M457.263,233.188h21.812c6.066,0,10.77,1.709,13.904,4.842c2.66,2.664,4.096,6.408,4.096,10.908v0.136
			c0,7.702-4.158,12.546-10.229,14.796l11.658,17.035H486.23l-10.225-15.264h-8.244v15.264h-10.498V233.188L457.263,233.188z
			 M478.392,256.371c5.111,0,8.053-2.729,8.053-6.75v-0.135c0-4.5-3.139-6.821-8.256-6.821h-10.426v13.706H478.392z"/>
	</g>
	<g>
		<path fill="#FFFFFF" d="M2.724,318.823l2.223-2.664c1.539,1.271,3.15,2.069,5.104,2.069c1.538,0,2.47-0.612,2.47-1.61v-0.045
			c0-0.954-0.583-1.449-3.447-2.181c-3.441-0.881-5.665-1.834-5.665-5.227v-0.047c0-3.104,2.494-5.156,5.985-5.156
			c2.492,0,4.621,0.782,6.349,2.168l-1.953,2.836c-1.515-1.045-3.006-1.684-4.445-1.684c-1.439,0-2.2,0.656-2.2,1.494v0.045
			c0,1.125,0.733,1.494,3.694,2.25c3.465,0.9,5.424,2.152,5.424,5.131v0.053c0,3.395-2.594,5.303-6.283,5.303
			C7.39,321.561,4.776,320.648,2.724,318.823"/>
		<path fill="#FFFFFF" d="M18.285,312.802v-0.046c0-4.859,3.663-8.847,8.919-8.847c3.226,0,5.152,1.079,6.745,2.646l-2.397,2.764
			c-1.32-1.205-2.66-1.936-4.375-1.936c-2.885,0-4.959,2.395-4.959,5.328v0.044c0,2.937,2.024,5.374,4.959,5.374
			c1.952,0,3.154-0.773,4.5-1.999l2.394,2.423c-1.763,1.881-3.716,3.051-7.016,3.051C22.024,321.604,18.285,317.716,18.285,312.802"
			/>
		<polygon fill="#FFFFFF" points="36.582,304.206 40.344,304.206 40.344,310.977 47.282,310.977 47.282,304.206 51.049,304.206 
			51.049,321.307 47.282,321.307 47.282,314.439 40.344,314.439 40.344,321.307 36.582,321.307 		"/>
		<path fill="#FFFFFF" d="M53.901,312.802v-0.046c0-4.859,3.834-8.847,9.118-8.847c5.273,0,9.058,3.942,9.058,8.803v0.044
			c0,4.86-3.83,8.848-9.111,8.848C57.692,321.604,53.901,317.671,53.901,312.802 M68.149,312.802v-0.046
			c0-2.933-2.152-5.372-5.184-5.372c-3.029,0-5.127,2.396-5.127,5.328v0.044c0,2.936,2.152,5.374,5.181,5.374
			S68.149,315.736,68.149,312.802"/>
		<path fill="#FFFFFF" d="M74.179,312.802v-0.046c0-4.859,3.839-8.847,9.117-8.847c5.273,0,9.063,3.942,9.063,8.803v0.044
			c0,4.86-3.834,8.848-9.112,8.848C77.968,321.604,74.179,317.671,74.179,312.802 M88.422,312.802v-0.046
			c0-2.933-2.143-5.372-5.175-5.372c-3.029,0-5.131,2.396-5.131,5.328v0.044c0,2.936,2.151,5.374,5.18,5.374
			C86.325,318.13,88.422,315.736,88.422,312.802"/>
		<polygon fill="#FFFFFF" points="95.212,304.206 98.979,304.206 98.979,317.887 107.507,317.887 107.507,321.307 95.212,321.307 		
			"/>
		<path fill="#FFFFFF" d="M108.675,318.823l2.225-2.664c1.539,1.271,3.154,2.069,5.107,2.069c1.539,0,2.467-0.612,2.467-1.61v-0.045
			c0-0.954-0.586-1.449-3.443-2.181c-3.447-0.881-5.666-1.834-5.666-5.227v-0.047c0-3.104,2.489-5.156,5.985-5.156
			c2.489,0,4.616,0.782,6.35,2.168l-1.953,2.836c-1.517-1.045-3.011-1.684-4.45-1.684c-1.44,0-2.196,0.656-2.196,1.494v0.045
			c0,1.125,0.733,1.494,3.69,2.25c3.469,0.9,5.422,2.152,5.422,5.131v0.053c0,3.395-2.587,5.303-6.282,5.303
			C113.348,321.561,110.729,320.648,108.675,318.823"/>
		<polygon fill="#FFFFFF" points="131.838,304.206 144.86,304.206 144.86,307.626 135.6,307.626 135.6,311.264 143.758,311.264 
			143.758,314.689 135.6,314.689 135.6,321.307 131.838,321.307 		"/>
		<path fill="#FFFFFF" d="M146.616,312.802v-0.046c0-4.859,3.834-8.847,9.116-8.847c5.274,0,9.062,3.942,9.062,8.803v0.044
			c0,4.86-3.839,8.848-9.112,8.848C150.404,321.604,146.616,317.671,146.616,312.802 M160.863,312.802v-0.046
			c0-2.933-2.151-5.372-5.181-5.372c-3.032,0-5.135,2.396-5.135,5.328v0.044c0,2.936,2.155,5.374,5.185,5.374
			C158.761,318.13,160.863,315.736,160.863,312.802"/>
		<path fill="#FFFFFF" d="M167.653,304.206h7.815c2.175,0,3.862,0.612,4.987,1.737c0.954,0.953,1.462,2.295,1.462,3.906v0.043
			c0,2.765-1.488,4.5-3.663,5.312l4.18,6.103h-4.396l-3.667-5.472h-2.962v5.472h-3.757L167.653,304.206L167.653,304.206z
			 M175.227,312.514c1.831,0,2.884-0.98,2.884-2.421v-0.045c0-1.61-1.128-2.438-2.956-2.438h-3.744v4.904H175.227L175.227,312.514z"
			/>
		<rect x="191.836" y="304.206" fill="#FFFFFF" width="3.762" height="17.101"/>
		<polygon fill="#FFFFFF" points="199.388,304.206 202.857,304.206 210.871,314.736 210.871,304.206 214.584,304.206 
			214.584,321.307 211.385,321.307 203.1,310.436 203.1,321.307 199.388,321.307 		"/>
		<polygon fill="#FFFFFF" points="218.197,304.206 221.666,304.206 229.685,314.736 229.685,304.206 233.394,304.206 
			233.394,321.307 230.194,321.307 221.91,310.436 221.91,321.307 218.197,321.307 		"/>
		<path fill="#FFFFFF" d="M236.25,312.802v-0.046c0-4.859,3.84-8.847,9.113-8.847c5.283,0,9.068,3.942,9.068,8.803v0.044
			c0,4.86-3.839,8.848-9.118,8.848C240.035,321.604,236.25,317.671,236.25,312.802 M250.494,312.802v-0.046
			c0-2.933-2.146-5.372-5.181-5.372c-3.028,0-5.129,2.396-5.129,5.328v0.044c0,2.936,2.151,5.374,5.179,5.374
			C248.392,318.13,250.494,315.736,250.494,312.802"/>
		<polygon fill="#FFFFFF" points="254.72,304.206 258.873,304.206 263.346,316.257 267.819,304.206 271.875,304.206 264.96,321.434 
			261.632,321.434 		"/>
		<path fill="#FFFFFF" d="M277.439,304.09h3.475l7.325,17.217h-3.932l-1.565-3.834h-7.23l-1.568,3.834h-3.834L277.439,304.09z
			 M281.405,314.15l-2.278-5.543l-2.271,5.543H281.405z"/>
		<polygon fill="#FFFFFF" points="292.173,307.671 286.971,307.671 286.971,304.206 301.137,304.206 301.137,307.671 
			295.936,307.671 295.936,321.307 292.173,321.307 		"/>
		<path fill="#FFFFFF" d="M302.042,312.802v-0.046c0-4.859,3.838-8.847,9.111-8.847c5.277,0,9.072,3.942,9.072,8.803v0.044
			c0,4.86-3.84,8.848-9.117,8.848C305.835,321.604,302.042,317.671,302.042,312.802 M316.289,312.802v-0.046
			c0-2.933-2.146-5.372-5.18-5.372c-3.029,0-5.13,2.396-5.13,5.328v0.044c0,2.936,2.146,5.374,5.175,5.374
			C314.187,318.13,316.289,315.736,316.289,312.802"/>
		<path fill="#FFFFFF" d="M323.08,304.206h7.814c2.176,0,3.861,0.612,4.992,1.737c0.943,0.953,1.463,2.295,1.463,3.906v0.043
			c0,2.765-1.49,4.5-3.67,5.312l4.178,6.103h-4.393l-3.668-5.472h-2.957v5.472h-3.762v-17.101H323.08z M330.658,312.514
			c1.826,0,2.875-0.98,2.875-2.421v-0.045c0-1.61-1.121-2.438-2.957-2.438h-3.734v4.904H330.658L330.658,312.514z"/>
		<path fill="#FFFFFF" d="M339.076,318.823l2.229-2.664c1.543,1.271,3.148,2.069,5.105,2.069c1.539,0,2.463-0.612,2.463-1.61v-0.045
			c0-0.954-0.58-1.449-3.443-2.181c-3.441-0.881-5.666-1.834-5.666-5.227v-0.047c0-3.104,2.49-5.156,5.986-5.156
			c2.492,0,4.617,0.782,6.354,2.168l-1.959,2.836c-1.512-1.045-3-1.684-4.445-1.684c-1.439,0-2.195,0.656-2.195,1.494v0.045
			c0,1.125,0.729,1.494,3.682,2.25c3.479,0.9,5.432,2.152,5.432,5.131v0.053c0,3.395-2.592,5.303-6.277,5.303
			C343.748,321.561,341.132,320.648,339.076,318.823"/>
		<path fill="#FFFFFF" d="M371.769,319.65c-1.396,1.144-3.031,1.908-5.008,1.908c-3.275,0-5.742-1.908-5.742-4.94v-0.046
			c0-2.18,1.17-3.717,3.316-4.697c-0.828-1.171-1.191-2.241-1.191-3.421v-0.045c0-2.349,1.881-4.5,5.18-4.5
			c2.906,0,4.812,1.907,4.812,4.303v0.056c0,2.295-1.471,3.635-3.594,4.463l2.27,2.275c0.562-0.881,1.125-1.88,1.668-2.934
			l2.758,1.521c-0.66,1.186-1.391,2.465-2.25,3.608l2.521,2.521l-2.76,1.926L371.769,319.65z M369.667,317.5l-3.275-3.331
			c-1.125,0.595-1.59,1.422-1.59,2.261v0.045c0,1.196,1.004,1.998,2.398,1.998C368.05,318.473,368.88,318.111,369.667,317.5
			 M369.861,308.48v-0.045c0-0.979-0.656-1.592-1.617-1.592c-0.998,0-1.658,0.709-1.658,1.736v0.045
			c0,0.755,0.297,1.322,1.004,2.124C369.083,310.189,369.861,309.562,369.861,308.48"/>
		<polygon fill="#FFFFFF" points="385.597,304.206 389.355,304.206 389.355,317.887 397.882,317.887 397.882,321.307 
			385.597,321.307 		"/>
		<polygon fill="#FFFFFF" points="400.226,304.206 413.128,304.206 413.128,307.555 403.966,307.555 403.966,311.02 412.027,311.02 
			412.027,314.368 403.966,314.368 403.966,317.959 413.255,317.959 413.255,321.307 400.226,321.307 		"/>
		<path fill="#FFFFFF" d="M421.97,304.09h3.477l7.33,17.217h-3.943l-1.557-3.834h-7.23l-1.564,3.834h-3.836L421.97,304.09z
			 M425.931,314.15l-2.271-5.543l-2.271,5.543H425.931z"/>
		<path fill="#FFFFFF" d="M434.921,304.206h6.67c5.371,0,9.084,3.69,9.084,8.506v0.044c0,4.814-3.713,8.551-9.084,8.551h-6.67
			V304.206z M441.591,317.913c3.078,0,5.156-2.078,5.156-5.103v-0.056c0-3.022-2.078-5.147-5.156-5.147h-2.908v10.306H441.591z"/>
		<polygon fill="#FFFFFF" points="453.533,304.206 466.435,304.206 466.435,307.555 457.277,307.555 457.277,311.02 465.337,311.02 
			465.337,314.368 457.277,314.368 457.277,317.959 466.558,317.959 466.558,321.307 453.533,321.307 		"/>
		<path fill="#FFFFFF" d="M469.414,304.206h7.822c2.178,0,3.855,0.612,4.98,1.737c0.953,0.953,1.467,2.295,1.467,3.906v0.043
			c0,2.765-1.494,4.5-3.664,5.312l4.178,6.103h-4.402l-3.662-5.472h-2.951v5.472h-3.768V304.206z M476.994,312.514
			c1.826,0,2.879-0.98,2.879-2.421v-0.045c0-1.61-1.125-2.438-2.957-2.438h-3.734v4.904H476.994L476.994,312.514z"/>
		<path fill="#FFFFFF" d="M485.417,318.823l2.221-2.664c1.541,1.271,3.15,2.069,5.105,2.069c1.537,0,2.469-0.612,2.469-1.61v-0.045
			c0-0.954-0.584-1.449-3.443-2.181c-3.443-0.881-5.662-1.834-5.662-5.227v-0.047c0-3.104,2.486-5.156,5.982-5.156
			c2.484,0,4.613,0.782,6.346,2.168l-1.949,2.836c-1.516-1.045-3.01-1.684-4.445-1.684c-1.443,0-2.199,0.656-2.199,1.494v0.045
			c0,1.125,0.734,1.494,3.691,2.25c3.463,0.9,5.42,2.152,5.42,5.131v0.053c0,3.395-2.59,5.303-6.281,5.303
			C490.078,321.561,487.468,320.648,485.417,318.823"/>
	</g>
</g>
</svg>
