<?xml version="1.0" encoding="utf-8"?>
<!-- Generator: Adobe Illustrator 16.0.0, SVG Export Plug-In . SVG Version: 6.00 Build 0)  -->
<!DOCTYPE svg PUBLIC "-//W3C//DTD SVG 1.1//EN" "http://www.w3.org/Graphics/SVG/1.1/DTD/svg11.dtd">
<svg version="1.1" id="Layer_1" xmlns="http://www.w3.org/2000/svg" xmlns:xlink="http://www.w3.org/1999/xlink" x="0px" y="0px"
	 width="500.953px" height="323.781px" viewBox="0 0 500.953 323.781" enable-background="new 0 0 500.953 323.781"
	 xml:space="preserve">
<g>
	<path fill="#FFFFFF" d="M322.24,35.065L262.828,0l-33.759,6.578l-60.684,35.041l-11.841,31.978v69.734l22.789,25.856l58.129,34.183
		l33.75-5.693l60.662-33.767l12.701-32.865V61.772L322.24,35.065z M261.708,6.302l55.605,32.8v76.647l-16.73,8.663V47.283
		L238.427,10.84L261.708,6.302z M173.234,45.708l56.857-32.832l64.659,37.918l-0.108,18.495l-43.043-24.856l-2.29-1.396
		l-20.413-12.452l-63.691,36.83L173.234,45.708z M294.611,76.168v51.434l-44.545,25.715l-44.537-25.706V76.168l44.545-25.721
		L294.611,76.168z M178.255,84.966v73.973l-15.737-17.862V75.865l66.29-38.334l15.416,9.399l-43.167,24.924L178.255,84.966z
		 M238.61,197.129l-54.383-31.992V88.401l15.33-8.801v49.727l-0.006,0.001v27.109l56.607,33.542l5.493,3.254L238.61,197.129z
		 M327.087,159.736l-56.851,31.641l-11.356-6.727l-53.352-31.618v-18.528l64.836,37.424l2.924,0.022h0.021l0,0l1.459-0.812
		l61.049-33.997L327.087,159.736z M338.603,128.744l-66.721,37.168l-15.84-9.153l42.986-24.818l24.254-12.558v-73.76l15.32,18.326
		V128.744L338.603,128.744z"/>
	<g>
		<polygon fill="#FFFFFF" points="0.622,234.525 10.391,234.525 32.959,264.189 32.959,234.525 43.42,234.525 43.42,282.697 
			34.409,282.697 11.08,252.078 11.08,282.697 0.622,282.697 		"/>
		<path fill="#FFFFFF" d="M48.723,258.745v-0.136c0-13.691,10.802-24.902,25.666-24.902c14.866,0,25.527,11.074,25.527,24.768v0.135
			c0,13.693-10.803,24.914-25.664,24.914C59.389,283.523,48.723,272.438,48.723,258.745 M88.842,258.745v-0.136
			c0-8.256-6.058-15.137-14.59-15.137c-8.535,0-14.455,6.741-14.455,15.002v0.135c0,8.26,6.062,15.146,14.592,15.146
			C82.925,273.757,88.842,267.014,88.842,258.745"/>
		<polygon fill="#FFFFFF" points="97.992,234.525 109.691,234.525 122.284,268.45 134.881,234.525 146.297,234.525 126.831,283.041 
			117.469,283.041 		"/>
		<path fill="#FFFFFF" d="M159.243,234.188h9.769l20.643,48.511h-11.08l-4.397-10.804h-20.374l-4.401,10.804h-10.804
			L159.243,234.188z M170.394,262.535l-6.406-15.618l-6.396,15.618H170.394z"/>
		<path fill="#FFFFFF" d="M209.48,234.525h19.673c11.494,0,18.445,6.813,18.445,16.654v0.133c0,11.149-8.668,16.938-19.476,16.938
			h-8.049v14.444H209.48V234.525z M228.474,258.818c5.292,0,8.392-3.162,8.392-7.297v-0.136c0-4.751-3.305-7.297-8.601-7.297h-8.19
			v14.729H228.474z"/>
		<rect x="251.796" y="234.525" fill="#FFFFFF" width="10.599" height="48.172"/>
		<path fill="#FFFFFF" d="M268.178,258.745v-0.136c0-13.691,10.805-24.902,25.669-24.902c14.861,0,25.529,11.074,25.529,24.768
			v0.135c0,13.693-10.805,24.914-25.668,24.914C278.839,283.523,268.178,272.438,268.178,258.745 M308.296,258.745v-0.136
			c0-8.256-6.057-15.137-14.588-15.137c-8.535,0-14.449,6.741-14.449,15.002v0.135c0,8.26,6.054,15.146,14.588,15.146
			C302.376,273.757,308.296,267.014,308.296,258.745"/>
		<polygon fill="#FFFFFF" points="324.675,234.525 334.447,234.525 357.017,264.189 357.017,234.525 367.474,234.525 
			367.474,282.697 358.462,282.697 335.136,252.078 335.136,282.697 324.675,282.697 		"/>
		<polygon fill="#FFFFFF" points="374.912,234.525 411.246,234.525 411.246,243.955 385.437,243.955 385.437,253.732 
			408.148,253.732 408.148,263.152 385.437,263.152 385.437,273.275 411.587,273.275 411.587,282.697 374.912,282.697 		"/>
		<polygon fill="#FFFFFF" points="416.888,234.525 453.22,234.525 453.22,243.955 427.419,243.955 427.419,253.732 450.126,253.732 
			450.126,263.152 427.419,263.152 427.419,273.275 453.572,273.275 453.572,282.697 416.888,282.697 		"/>
		<path fill="#FFFFFF" d="M458.869,234.525h22.018c6.127,0,10.873,1.727,14.037,4.887c2.688,2.689,4.137,6.471,4.137,11.014v0.135
			c0,7.777-4.199,12.666-10.326,14.938l11.771,17.199h-12.395l-10.32-15.409h-8.322v15.409h-10.6V234.525L458.869,234.525z
			 M480.199,257.928c5.16,0,8.125-2.753,8.125-6.812v-0.137c0-4.543-3.166-6.889-8.332-6.889h-10.523v13.838H480.199z"/>
	</g>
	<g>
		<path fill="#FFFFFF" d="M0,320.975l2.244-2.688c1.553,1.282,3.181,2.089,5.152,2.089c1.553,0,2.493-0.617,2.493-1.626v-0.046
			c0-0.963-0.59-1.462-3.48-2.197c-3.475-0.892-5.72-1.854-5.72-5.277v-0.047c0-3.134,2.519-5.205,6.043-5.205
			c2.516,0,4.665,0.789,6.409,2.188l-1.971,2.86c-1.529-1.055-3.035-1.698-4.488-1.698c-1.453,0-2.222,0.662-2.222,1.508v0.046
			c0,1.137,0.74,1.51,3.73,2.271c3.498,0.908,5.475,2.173,5.475,5.181v0.054c0,3.426-2.617,5.352-6.343,5.352
			C4.712,323.736,2.072,322.818,0,320.975"/>
		<path fill="#FFFFFF" d="M15.71,314.895v-0.045c0-4.906,3.698-8.93,9.003-8.93c3.257,0,5.201,1.09,6.81,2.672l-2.42,2.789
			c-1.333-1.218-2.685-1.955-4.418-1.955c-2.911,0-5.004,2.418-5.004,5.379v0.045c0,2.963,2.044,5.424,5.004,5.424
			c1.973,0,3.187-0.779,4.544-2.016l2.417,2.445c-1.78,1.898-3.751,3.078-7.082,3.078C19.484,323.781,15.71,319.857,15.71,314.895"
			/>
		<polygon fill="#FFFFFF" points="34.181,306.219 37.979,306.219 37.979,313.053 44.982,313.053 44.982,306.219 48.785,306.219 
			48.785,323.48 44.982,323.48 44.982,316.549 37.979,316.549 37.979,323.48 34.181,323.48 		"/>
		<path fill="#FFFFFF" d="M51.665,314.895v-0.045c0-4.906,3.871-8.93,9.205-8.93c5.324,0,9.145,3.979,9.145,8.885v0.045
			c0,4.907-3.866,8.933-9.2,8.933C55.491,323.781,51.665,319.812,51.665,314.895 M66.048,314.895v-0.045
			c0-2.961-2.171-5.424-5.233-5.424c-3.058,0-5.173,2.418-5.173,5.379v0.045c0,2.963,2.171,5.424,5.229,5.424
			S66.048,317.857,66.048,314.895"/>
		<path fill="#FFFFFF" d="M72.135,314.895v-0.045c0-4.906,3.876-8.93,9.204-8.93c5.324,0,9.149,3.979,9.149,8.885v0.045
			c0,4.907-3.87,8.933-9.198,8.933S72.135,319.812,72.135,314.895 M86.514,314.895v-0.045c0-2.961-2.163-5.424-5.224-5.424
			c-3.057,0-5.181,2.418-5.181,5.379v0.045c0,2.963,2.173,5.424,5.229,5.424C84.397,320.273,86.514,317.857,86.514,314.895"/>
		<polygon fill="#FFFFFF" points="93.369,306.219 97.173,306.219 97.173,320.029 105.78,320.029 105.78,323.48 93.369,323.48 		"/>
		<path fill="#FFFFFF" d="M106.961,320.975l2.245-2.688c1.555,1.282,3.185,2.089,5.155,2.089c1.554,0,2.491-0.617,2.491-1.626
			v-0.046c0-0.963-0.591-1.462-3.478-2.197c-3.479-0.892-5.718-1.854-5.718-5.277v-0.047c0-3.134,2.512-5.205,6.041-5.205
			c2.513,0,4.66,0.789,6.41,2.188l-1.972,2.86c-1.531-1.055-3.04-1.698-4.493-1.698s-2.217,0.662-2.217,1.508v0.046
			c0,1.137,0.741,1.51,3.725,2.271c3.503,0.908,5.475,2.173,5.475,5.181v0.054c0,3.426-2.612,5.352-6.342,5.352
			C111.677,323.736,109.033,322.818,106.961,320.975"/>
		<polygon fill="#FFFFFF" points="130.344,306.219 143.49,306.219 143.49,309.672 134.141,309.672 134.141,313.346 142.377,313.346 
			142.377,316.805 134.141,316.805 134.141,323.48 130.344,323.48 		"/>
		<path fill="#FFFFFF" d="M145.262,314.895v-0.045c0-4.906,3.872-8.93,9.203-8.93c5.325,0,9.15,3.979,9.15,8.885v0.045
			c0,4.907-3.876,8.933-9.199,8.933C149.087,323.781,145.262,319.812,145.262,314.895 M159.645,314.895v-0.045
			c0-2.961-2.171-5.424-5.229-5.424c-3.062,0-5.184,2.418-5.184,5.379v0.045c0,2.963,2.176,5.424,5.232,5.424
			C157.522,320.273,159.645,317.857,159.645,314.895"/>
		<path fill="#FFFFFF" d="M166.5,306.219h7.891c2.193,0,3.897,0.62,5.033,1.754c0.965,0.963,1.477,2.316,1.477,3.943v0.045
			c0,2.79-1.503,4.544-3.698,5.361l4.22,6.158h-4.438l-3.701-5.523h-2.991v5.523H166.5V306.219z M174.145,314.605
			c1.85,0,2.913-0.99,2.913-2.445v-0.045c0-1.625-1.14-2.461-2.985-2.461h-3.78v4.951H174.145L174.145,314.605z"/>
		<rect x="190.912" y="306.219" fill="#FFFFFF" width="3.798" height="17.262"/>
		<polygon fill="#FFFFFF" points="198.536,306.219 202.039,306.219 210.129,316.85 210.129,306.219 213.876,306.219 213.876,323.48 
			210.647,323.48 202.284,312.506 202.284,323.48 198.536,323.48 		"/>
		<polygon fill="#FFFFFF" points="217.525,306.219 221.026,306.219 229.122,316.85 229.122,306.219 232.866,306.219 232.866,323.48 
			229.637,323.48 221.273,312.506 221.273,323.48 217.525,323.48 		"/>
		<path fill="#FFFFFF" d="M235.75,314.895v-0.045c0-4.906,3.876-8.93,9.199-8.93c5.335,0,9.153,3.979,9.153,8.885v0.045
			c0,4.907-3.874,8.933-9.202,8.933C239.571,323.781,235.75,319.812,235.75,314.895 M250.13,314.895v-0.045
			c0-2.961-2.168-5.424-5.229-5.424c-3.058,0-5.179,2.418-5.179,5.379v0.045c0,2.963,2.173,5.424,5.228,5.424
			C248.007,320.273,250.13,317.857,250.13,314.895"/>
		<polygon fill="#FFFFFF" points="254.396,306.219 258.589,306.219 263.104,318.385 267.619,306.219 271.714,306.219 
			264.733,323.607 261.373,323.607 		"/>
		<path fill="#FFFFFF" d="M277.332,306.102h3.506l7.396,17.379h-3.969l-1.58-3.869h-7.3l-1.584,3.869h-3.869L277.332,306.102z
			 M281.335,316.259l-2.301-5.597l-2.291,5.597H281.335L281.335,316.259z"/>
		<polygon fill="#FFFFFF" points="292.205,309.719 286.953,309.719 286.953,306.219 301.253,306.219 301.253,309.719 
			296.001,309.719 296.001,323.48 292.205,323.48 		"/>
		<path fill="#FFFFFF" d="M302.169,314.895v-0.045c0-4.906,3.875-8.93,9.197-8.93c5.33,0,9.16,3.979,9.16,8.885v0.045
			c0,4.907-3.877,8.933-9.207,8.933C305.998,323.781,302.169,319.812,302.169,314.895 M316.55,314.895v-0.045
			c0-2.961-2.166-5.424-5.229-5.424c-3.057,0-5.18,2.418-5.18,5.379v0.045c0,2.963,2.168,5.424,5.227,5.424
			S316.55,317.857,316.55,314.895"/>
		<path fill="#FFFFFF" d="M323.406,306.219h7.891c2.195,0,3.898,0.62,5.037,1.754c0.955,0.963,1.479,2.316,1.479,3.943v0.045
			c0,2.79-1.504,4.544-3.703,5.361l4.219,6.158h-4.438l-3.703-5.523h-2.982v5.523h-3.799V306.219L323.406,306.219z M331.054,314.605
			c1.846,0,2.904-0.99,2.904-2.445v-0.045c0-1.625-1.133-2.461-2.984-2.461h-3.77v4.951H331.054L331.054,314.605z"/>
		<path fill="#FFFFFF" d="M339.554,320.975l2.25-2.688c1.559,1.282,3.182,2.089,5.154,2.089c1.555,0,2.486-0.617,2.486-1.626v-0.046
			c0-0.963-0.586-1.462-3.477-2.197c-3.475-0.892-5.719-1.854-5.719-5.277v-0.047c0-3.134,2.512-5.205,6.041-5.205
			c2.518,0,4.664,0.789,6.416,2.188l-1.979,2.86c-1.523-1.055-3.029-1.698-4.486-1.698c-1.455,0-2.217,0.662-2.217,1.508v0.046
			c0,1.137,0.734,1.51,3.715,2.271c3.51,0.908,5.484,2.173,5.484,5.181v0.054c0,3.426-2.619,5.352-6.338,5.352
			C344.271,323.736,341.63,322.818,339.554,320.975"/>
		<path fill="#FFFFFF" d="M372.558,321.811c-1.408,1.154-3.061,1.926-5.055,1.926c-3.309,0-5.797-1.926-5.797-4.987v-0.046
			c0-2.197,1.18-3.751,3.348-4.741c-0.836-1.181-1.203-2.264-1.203-3.453v-0.045c0-2.373,1.898-4.543,5.229-4.543
			c2.938,0,4.861,1.927,4.861,4.345v0.053c0,2.317-1.484,3.672-3.629,4.506l2.291,2.3c0.566-0.89,1.137-1.897,1.684-2.962
			l2.785,1.535c-0.668,1.197-1.406,2.49-2.273,3.644l2.545,2.545l-2.785,1.944L372.558,321.811z M370.437,319.639l-3.307-3.361
			c-1.137,0.6-1.605,1.437-1.605,2.281v0.043c0,1.211,1.016,2.018,2.422,2.018C368.806,320.618,369.644,320.256,370.437,319.639
			 M370.632,310.533v-0.043c0-0.99-0.662-1.609-1.631-1.609c-1.008,0-1.674,0.721-1.674,1.755v0.046c0,0.762,0.299,1.334,1.01,2.144
			C369.847,312.26,370.632,311.625,370.632,310.533"/>
		<polygon fill="#FFFFFF" points="386.519,306.219 390.312,306.219 390.312,320.029 398.921,320.029 398.921,323.48 386.519,323.48 
					"/>
		<polygon fill="#FFFFFF" points="401.287,306.219 414.312,306.219 414.312,309.602 405.062,309.602 405.062,313.098 
			413.201,313.098 413.201,316.477 405.062,316.477 405.062,320.104 414.441,320.104 414.441,323.48 401.287,323.48 		"/>
		<path fill="#FFFFFF" d="M423.24,306.102h3.508l7.4,17.379h-3.982l-1.572-3.869h-7.297l-1.582,3.869h-3.871L423.24,306.102z
			 M427.236,316.259l-2.293-5.597l-2.295,5.597H427.236L427.236,316.259z"/>
		<path fill="#FFFFFF" d="M436.312,306.219h6.734c5.42,0,9.168,3.725,9.168,8.586v0.045c0,4.861-3.748,8.631-9.168,8.631h-6.734
			V306.219z M443.046,320.057c3.105,0,5.207-2.1,5.207-5.15v-0.057c0-3.052-2.102-5.195-5.207-5.195h-2.936v10.402H443.046z"/>
		<polygon fill="#FFFFFF" points="455.103,306.219 468.126,306.219 468.126,309.602 458.882,309.602 458.882,313.098 
			467.017,313.098 467.017,316.477 458.882,316.477 458.882,320.104 468.25,320.104 468.25,323.48 455.103,323.48 		"/>
		<path fill="#FFFFFF" d="M471.132,306.219h7.898c2.197,0,3.893,0.62,5.027,1.754c0.963,0.963,1.48,2.316,1.48,3.943v0.045
			c0,2.79-1.51,4.544-3.699,5.361l4.217,6.158h-4.441l-3.699-5.523h-2.979v5.523h-3.805V306.219L471.132,306.219z M478.785,314.605
			c1.842,0,2.908-0.99,2.908-2.445v-0.045c0-1.625-1.139-2.461-2.986-2.461h-3.771v4.951H478.785L478.785,314.605z"/>
		<path fill="#FFFFFF" d="M487.289,320.975l2.242-2.688c1.555,1.282,3.182,2.089,5.154,2.089c1.553,0,2.492-0.617,2.492-1.626
			v-0.046c0-0.963-0.59-1.462-3.477-2.197c-3.479-0.892-5.717-1.854-5.717-5.277v-0.047c0-3.134,2.51-5.205,6.041-5.205
			c2.506,0,4.654,0.789,6.404,2.188l-1.967,2.86c-1.531-1.055-3.041-1.698-4.49-1.698c-1.457,0-2.221,0.662-2.221,1.508v0.046
			c0,1.137,0.742,1.51,3.727,2.271c3.498,0.908,5.473,2.173,5.473,5.181v0.054c0,3.426-2.615,5.352-6.342,5.352
			C491.996,323.736,489.359,322.818,487.289,320.975"/>
	</g>
</g>
</svg>
