<?xml version="1.0" encoding="utf-8"?>
<!-- Generator: Adobe Illustrator 16.0.0, SVG Export Plug-In . SVG Version: 6.00 Build 0)  -->
<!DOCTYPE svg PUBLIC "-//W3C//DTD SVG 1.1//EN" "http://www.w3.org/Graphics/SVG/1.1/DTD/svg11.dtd">
<svg version="1.1" xmlns="http://www.w3.org/2000/svg" xmlns:xlink="http://www.w3.org/1999/xlink" x="0px" y="0px"
	 width="278.549px" height="278.628px" viewBox="0 0 278.549 278.628" enable-background="new 0 0 278.549 278.628"
	 xml:space="preserve">
<g id="flare" display="none">
	<rect display="inline" fill="#EE222E" width="278.549" height="278.628"/>
</g>
<g id="logo">
	<g>
		<defs>
			<rect id="SVGID_1_" x="-13.124" y="-5.65" width="304.871" height="290.12"/>
		</defs>
		<clipPath id="SVGID_2_">
			<use xlink:href="#SVGID_1_"  overflow="visible"/>
		</clipPath>
		<path clip-path="url(#SVGID_2_)" fill="#133C57" d="M139.311,276.923c-36.757,0-71.315-14.312-97.306-40.305
			c-25.99-25.99-40.304-60.547-40.304-97.306c0-36.756,14.314-71.313,40.304-97.304c25.991-25.992,60.549-40.305,97.306-40.305
			c36.757,0,71.314,14.313,97.306,40.305c25.991,25.991,40.305,60.548,40.305,97.304c0,36.759-14.313,71.315-40.305,97.306
			C210.625,262.61,176.068,276.923,139.311,276.923"/>
		<path clip-path="url(#SVGID_2_)" fill="#6CC8C0" d="M139.311,3.406c75.06,0,135.907,60.848,135.907,135.907
			c0,75.061-60.847,135.909-135.907,135.909S3.403,214.374,3.403,139.313C3.403,64.254,64.25,3.406,139.311,3.406 M139.311,0
			c-18.806,0-37.051,3.684-54.228,10.949c-16.59,7.017-31.489,17.062-44.282,29.855S17.962,68.495,10.947,85.085
			c-7.265,17.178-10.949,35.422-10.949,54.228c0,18.805,3.684,37.051,10.949,54.229c7.016,16.59,17.061,31.488,29.854,44.281
			s27.692,22.838,44.282,29.855c17.177,7.264,35.422,10.949,54.228,10.949s37.051-3.686,54.228-10.949
			c16.59-7.018,31.488-17.062,44.282-29.855c12.793-12.793,22.837-27.691,29.854-44.281c7.266-17.178,10.949-35.424,10.949-54.229
			c0-18.806-3.684-37.05-10.949-54.228c-7.017-16.589-17.061-31.488-29.854-44.281c-12.794-12.793-27.692-22.838-44.282-29.855
			C176.362,3.684,158.117,0,139.311,0"/>
	</g>
	<g>
		<path fill="#FFFFFF" d="M23.082,96.52l1.953-4.515l10.702-1.364c1.507-0.196,3.772-0.185,3.772-0.185l0.022-0.051
			c0,0-2.052-0.646-3.199-1.143l-8.519-3.685l1.931-4.463l18.234,7.888l-1.941,4.488l-10.688,1.402
			c-1.507,0.196-3.772,0.184-3.772,0.184l-0.022,0.052c0,0,2.053,0.645,3.199,1.141l8.493,3.673l-1.931,4.464L23.082,96.52z"/>
	</g>
	<g>
		<path fill="#FFFFFF" d="M41.446,62.601c3.652-4.761,9.854-5.538,14.372-2.071c4.63,3.552,5.571,9.81,1.919,14.571
			c-3.654,4.762-9.941,5.471-14.571,1.918C38.647,73.552,37.792,67.363,41.446,62.601z M54.209,72.395
			c1.81-2.359,1.236-5.812-1.453-7.875c-2.579-1.979-5.975-1.571-7.783,0.788c-1.811,2.359-1.325,5.743,1.254,7.722
			C48.917,75.093,52.399,74.754,54.209,72.395z"/>
	</g>
	<g>
		<path fill="#FFFFFF" d="M53.222,49.292l4.052-3.384l9.936,6.438c1.101,0.71,2.624,1.972,2.624,1.972l0.043-0.036
			c0,0-0.97-1.724-1.473-2.934l-4.518-10.961l3.988-3.33l7.357,19.738l-3.882,3.241L53.222,49.292z"/>
	</g>
	<g>
		<path fill="#FFFFFF" d="M93.215,40.674L87.7,43.5l0.838,4.254l-4.452,2.28l-3.05-20.76l4.551-2.331l15.068,14.603l-4.452,2.28
			L93.215,40.674z M85.352,32.153c0,0,0.593,2.131,0.841,3.409l0.747,3.957l3.486-1.787l-2.75-2.931
			c-0.892-0.948-2.275-2.674-2.275-2.674L85.352,32.153z"/>
	</g>
	<g>
	</g>
	<g>
		<path fill="#FFFFFF" d="M112.819,17.332l8.143-1.341c3.811-0.628,6.849,1.744,7.499,5.692c0.649,3.948-1.458,7.224-5.269,7.852
			l-3.345,0.551l0.998,6.059l-4.799,0.79L112.819,17.332z M121.528,25.585c1.672-0.275,2.31-1.535,2.053-3.098
			c-0.258-1.563-1.257-2.497-2.847-2.235l-2.439,0.402l0.876,5.319L121.528,25.585z"/>
	</g>
	<g>
		<path fill="#FFFFFF" d="M139.083,14.618l4.862,0.086l-0.35,19.863l-4.862-0.085L139.083,14.618z"/>
	</g>
	<g>
		<path fill="#FFFFFF" d="M166.719,17.37c5.853,1.33,9.15,6.637,7.889,12.192c-1.293,5.69-6.584,9.161-12.437,7.832
			c-5.853-1.329-9.124-6.746-7.832-12.436C155.601,19.403,160.866,16.041,166.719,17.37z M163.155,33.058
			c2.9,0.659,5.797-1.305,6.548-4.61c0.72-3.17-1.069-6.084-3.969-6.743c-2.898-0.658-5.771,1.197-6.491,4.368
			C158.493,29.377,160.257,32.4,163.155,33.058z"/>
	</g>
	<g>
		<path fill="#FFFFFF" d="M189.31,24.923l4.348,2.299L194.183,38c0.077,1.518-0.111,3.775-0.111,3.775l0.049,0.025
			c0,0,0.803-1.995,1.388-3.1l4.339-8.205l4.299,2.273l-9.288,17.562l-4.323-2.286l-0.562-10.764
			c-0.078-1.519,0.111-3.776,0.111-3.776l-0.049-0.026c0,0-0.804,1.995-1.389,3.101l-4.325,8.18l-4.299-2.273L189.31,24.923z"/>
	</g>
	<g>
		<path fill="#FFFFFF" d="M215.766,41.12l9.376,8.188l-2.742,3.141l-5.714-4.99l-2.376,2.721l4.563,3.984l-2.742,3.14l-4.563-3.984
			l-2.467,2.825l6.007,5.245l-2.742,3.14l-9.669-8.443L215.766,41.12z"/>
	</g>
	<g>
		<path fill="#FFFFFF" d="M234.045,58.994l7.492,9.94l-3.329,2.51l-4.566-6.059l-2.884,2.174l3.646,4.838l-3.329,2.508l-3.646-4.837
			l-2.996,2.258l4.8,6.368l-3.329,2.509l-7.726-10.251L234.045,58.994z"/>
	</g>
	<g>
		<path fill="#FFFFFF" d="M248.41,80.383l2.854,6.304c0.836,1.848,1.111,2.791,1.163,3.713c0.144,2.406-1.119,4.533-3.752,5.726
			c-1.924,0.871-4.438,0.91-6.163-0.474l-0.05,0.022c0,0-0.214,0.402-0.779,1.176l-4.735,6.384l-2.235-4.936l4.645-5.977
			l-0.94-2.076l-6.101,2.763l-2.005-4.43L248.41,80.383z M243.085,90.451c0.642,1.418,1.828,1.948,3.271,1.295
			c1.367-0.619,1.947-1.492,0.938-3.72l-0.676-1.493l-4.404,1.994L243.085,90.451z"/>
	</g>
	<g>
		<path fill="#FFFFFF" d="M37.46,180.118l0.925,2.066l-6.672,2.989l1.544,3.448l-1.771,0.793l-2.47-5.515L37.46,180.118z"/>
	</g>
	<g>
		<path fill="#FFFFFF" d="M41.284,188.273l2.802,5.075l-1.699,0.938l-1.708-3.093l-1.472,0.812l1.363,2.47l-1.7,0.938l-1.364-2.47
			l-1.528,0.844l1.795,3.251l-1.7,0.938l-2.889-5.233L41.284,188.273z"/>
	</g>
	<g>
		<path fill="#FFFFFF" d="M42.462,204.306l-1.614-2.392l-1.921,0.623l-1.302-1.93l9.429-2.566l1.331,1.973l-5.912,7.781
			l-1.302-1.932L42.462,204.306z M45.963,200.196c0,0-0.953,0.394-1.53,0.579l-1.788,0.566l1.02,1.513l1.202-1.436
			c0.389-0.465,1.11-1.201,1.11-1.201L45.963,200.196z"/>
	</g>
	<g>
		<path fill="#FFFFFF" d="M51.828,204.802l2.045,2.49c0.599,0.729,0.836,1.121,0.972,1.528c0.355,1.065,0.044,2.175-0.996,3.029
			c-0.761,0.624-1.886,0.945-2.829,0.531l-0.021,0.017c0,0-0.048,0.206-0.208,0.622l-1.359,3.443l-1.601-1.949l1.367-3.25
			l-0.673-0.82l-2.41,1.979l-1.437-1.749L51.828,204.802z M50.649,209.973c0.46,0.56,1.057,0.655,1.627,0.188
			c0.54-0.443,0.695-0.906-0.027-1.787l-0.484-0.59l-1.74,1.429L50.649,209.973z"/>
	</g>
	<g>
		<path fill="#FFFFFF" d="M58.645,212.844l1.624,1.617l-1.235,4.869c-0.172,0.687-0.563,1.666-0.563,1.666l0.019,0.02
			c0,0,0.63-0.779,1.041-1.191l3.05-3.062l1.604,1.598l-6.528,6.556l-1.614-1.606l1.215-4.871c0.173-0.686,0.564-1.666,0.564-1.666
			l-0.019-0.02c0,0-0.63,0.78-1.041,1.193l-3.04,3.053l-1.604-1.598L58.645,212.844z"/>
	</g>
	<g>
	</g>
	<g>
		<path fill="#FFFFFF" d="M71.001,226.572l-2.245-1.687l1.166-1.553l6.301,4.731l-1.166,1.553l-2.245-1.686l-4.39,5.846l-1.811-1.36
			L71.001,226.572z"/>
	</g>
	<g>
		<path fill="#FFFFFF" d="M82.258,231.721c2.391,1.449,3.067,4.279,1.692,6.547c-1.408,2.325-4.257,3.08-6.647,1.632
			c-2.39-1.448-3.039-4.322-1.63-6.647C77.047,230.985,79.868,230.274,82.258,231.721z M78.375,238.129
			c1.185,0.717,2.753,0.275,3.571-1.074c0.785-1.295,0.423-2.846-0.762-3.562c-1.184-0.718-2.725-0.32-3.51,0.974
			C76.857,235.817,77.192,237.412,78.375,238.129z"/>
	</g>
	<g>
		<path fill="#FFFFFF" d="M89.212,235.845l2.977,1.393c2.638,1.233,3.608,3.559,2.375,6.195s-3.656,3.419-6.293,2.186l-2.977-1.393
			L89.212,235.845z M89.011,243.822c1.418,0.663,2.68,0.225,3.431-1.381c0.745-1.594,0.226-2.836-1.156-3.483l-0.844-0.395
			l-2.274,4.864L89.011,243.822z"/>
	</g>
	<g>
		<path fill="#FFFFFF" d="M101.485,248.877l-2.721-0.96l-1.171,1.646l-2.196-0.775l6.044-7.678l2.245,0.792l-0.113,9.771
			l-2.197-0.775L101.485,248.877z M101.849,243.491c0,0-0.531,0.883-0.884,1.375l-1.099,1.521l1.721,0.606l0.11-1.868
			c0.035-0.604,0.176-1.626,0.176-1.626L101.849,243.491z"/>
	</g>
	<g>
		<path fill="#FFFFFF" d="M109.252,249.298l-1.596-6.05l2.494,0.642l0.459,2.417c0.13,0.688,0.207,1.43,0.207,1.43l0.025,0.006
			c0,0,0.425-0.612,0.871-1.151l1.558-1.898l2.493,0.643l-4.318,4.527l-0.945,3.671l-2.193-0.564L109.252,249.298z"/>
	</g>
	<g>
	</g>
	<g>
		<path fill="#FFFFFF" d="M121.981,251.995c0.17-1.322,1.372-2.25,2.693-2.08c1.322,0.171,2.251,1.372,2.081,2.694
			c-0.17,1.321-1.373,2.25-2.695,2.079C122.738,254.518,121.811,253.315,121.981,251.995z"/>
	</g>
	<g>
	</g>
	<g>
		<path fill="#FFFFFF" d="M135.597,247.723l2.264,0.036l-0.119,7.31l3.778,0.062l-0.031,1.941l-6.042-0.098L135.597,247.723z"/>
	</g>
	<g>
		<path fill="#FFFFFF" d="M144.622,247.677l5.782-0.415l0.14,1.937l-3.524,0.253l0.12,1.677l2.814-0.202l0.139,1.937l-2.813,0.202
			l0.125,1.742l3.704-0.266l0.139,1.937l-5.962,0.428L144.622,247.677z"/>
	</g>
	<g>
		<path fill="#FFFFFF" d="M159.659,253.337l-2.849,0.46l-0.239,2.004l-2.3,0.372l1.627-9.635l2.351-0.38l4.581,8.631l-2.3,0.372
			L159.659,253.337z M157.397,248.433c0,0-0.043,1.029-0.117,1.631l-0.236,1.86l1.801-0.292l-0.797-1.693
			c-0.26-0.548-0.625-1.511-0.625-1.511L157.397,248.433z"/>
	</g>
	<g>
		<path fill="#FFFFFF" d="M164.038,245.056l3.177-0.842c2.814-0.745,5.05,0.416,5.795,3.23c0.746,2.815-0.611,4.968-3.426,5.713
			l-3.177,0.842L164.038,245.056z M169,251.305c1.514-0.4,2.2-1.547,1.746-3.261c-0.45-1.701-1.646-2.321-3.121-1.931l-0.9,0.239
			l1.375,5.191L169,251.305z"/>
	</g>
	<g>
	</g>
	<g>
		<path fill="#FFFFFF" d="M181.8,241.404l-2.588,1.089l-0.753-1.79l7.264-3.056l0.752,1.79l-2.588,1.089l2.836,6.738l-2.088,0.878
			L181.8,241.404z"/>
	</g>
	<g>
		<path fill="#FFFFFF" d="M191.924,234.273c2.455-1.336,5.24-0.495,6.508,1.835c1.299,2.387,0.518,5.229-1.938,6.564
			s-5.266,0.448-6.564-1.939C188.663,238.405,189.469,235.609,191.924,234.273z M195.504,240.854
			c1.217-0.662,1.625-2.239,0.87-3.626c-0.724-1.329-2.245-1.798-3.461-1.136c-1.216,0.661-1.649,2.193-0.926,3.523
			C192.743,241.002,194.29,241.516,195.504,240.854z"/>
	</g>
	<g>
		<path fill="#FFFFFF" d="M199.396,230.102l2.009-1.418l3.354,2.417c0.512,0.367,1.26,0.979,1.26,0.979l0.021-0.015
			c0,0-0.326-0.91-0.5-1.516l-1.153-3.969l2.009-1.417l5.947,7.126l-1.85,1.305l-2.635-3.239c-0.445-0.542-0.895-1.269-0.895-1.269
			l-0.021,0.015c0,0,0.306,0.971,0.473,1.567l0.75,2.748l-1.586,1.12l-2.337-1.628c-0.505-0.357-1.317-0.97-1.317-0.97l-0.021,0.015
			c0,0,0.534,0.667,0.895,1.269l2.17,3.568l-1.861,1.313L199.396,230.102z"/>
	</g>
	<g>
		<path fill="#FFFFFF" d="M212.821,219.53c2.083-1.865,4.988-1.686,6.757,0.29c1.813,2.025,1.705,4.97-0.378,6.834
			c-2.082,1.864-5.02,1.646-6.833-0.378C210.598,224.3,210.739,221.394,212.821,219.53z M217.819,225.112
			c1.032-0.924,1.066-2.553,0.014-3.729c-1.01-1.127-2.598-1.234-3.63-0.31c-1.03,0.923-1.101,2.514-0.091,3.642
			C215.165,225.891,216.789,226.035,217.819,225.112z"/>
	</g>
	<g>
		<path fill="#FFFFFF" d="M218.788,214.069l2.167-2.384c0.635-0.699,0.987-0.991,1.373-1.183c1.001-0.506,2.145-0.359,3.141,0.546
			c0.727,0.661,1.209,1.729,0.936,2.721l0.02,0.018c0,0,0.211,0.017,0.646,0.115l3.604,0.844l-1.697,1.868l-3.412-0.881
			l-0.714,0.785l2.308,2.097l-1.523,1.676L218.788,214.069z M224.075,214.484c0.487-0.536,0.495-1.141-0.05-1.637
			c-0.518-0.47-0.998-0.556-1.764,0.287l-0.514,0.564l1.666,1.514L224.075,214.484z"/>
	</g>
	<g>
		<path fill="#FFFFFF" d="M225.741,206.145l1.931-2.579c0.565-0.756,0.889-1.08,1.255-1.308c0.948-0.599,2.101-0.561,3.178,0.246
			c0.787,0.589,1.367,1.605,1.189,2.62l0.021,0.016c0,0,0.212-0.003,0.655,0.054l3.667,0.498l-1.513,2.02l-3.481-0.553l-0.635,0.849
			l2.496,1.869l-1.357,1.813L225.741,206.145z M231.043,206.057c0.434-0.58,0.385-1.184-0.206-1.625
			c-0.56-0.418-1.046-0.458-1.728,0.453l-0.457,0.61l1.801,1.349L231.043,206.057z"/>
	</g>
	<g>
		<path fill="#FFFFFF" d="M233.948,193.95c1.436-2.397,4.263-3.088,6.539-1.724c2.33,1.396,3.1,4.241,1.664,6.639
			c-1.438,2.397-4.309,3.061-6.639,1.664C233.236,199.165,232.51,196.348,233.948,193.95z M240.374,197.801
			c0.712-1.188,0.263-2.754-1.092-3.565c-1.299-0.778-2.848-0.41-3.559,0.778c-0.711,1.187-0.307,2.728,0.992,3.506
			C238.069,199.331,239.663,198.988,240.374,197.801z"/>
	</g>
	<g>
		<path fill="#FFFFFF" d="M237.742,187.798l0.966-2.176l5.759,1.283c0.568,0.125,0.936,0.288,0.936,0.288l0.01-0.023
			c0,0-0.361-0.175-0.824-0.537l-4.708-3.648l0.74-1.667l5.849,1.083c0.578,0.101,0.95,0.252,0.95,0.252l0.011-0.023
			c0,0-0.367-0.163-0.84-0.501l-4.771-3.506l0.95-2.141l7.505,5.896l-1.024,2.306l-4.741-0.833
			c-0.602-0.111-1.067-0.275-1.067-0.275l-0.01,0.023c0,0,0.433,0.235,0.919,0.607l3.797,2.959l-1.035,2.33L237.742,187.798z"/>
	</g>
	<g>
		<defs>
			<rect id="SVGID_3_" x="-13.124" y="-5.65" width="304.871" height="290.12"/>
		</defs>
		<clipPath id="SVGID_4_">
			<use xlink:href="#SVGID_3_"  overflow="visible"/>
		</clipPath>
		<path clip-path="url(#SVGID_4_)" fill="#FFFFFF" d="M139.31,231.966c-24.748,0-48.016-9.639-65.515-27.139
			c-17.499-17.498-27.136-40.766-27.136-65.514c0-24.748,9.637-48.015,27.136-65.514c17.499-17.5,40.767-27.137,65.515-27.137
			s48.016,9.637,65.516,27.137c17.499,17.499,27.136,40.766,27.136,65.514c0,24.749-9.637,48.014-27.136,65.514
			C187.326,222.327,164.058,231.966,139.31,231.966"/>
		<path clip-path="url(#SVGID_4_)" fill="#6CC8C0" d="M139.31,48.389c50.217,0,90.924,40.708,90.924,90.924
			c0,50.215-40.707,90.924-90.924,90.924s-90.924-40.709-90.924-90.924C48.386,89.097,89.093,48.389,139.31,48.389 M139.31,44.934
			c-12.739,0-25.1,2.496-36.738,7.418C91.333,57.106,81.24,63.91,72.574,72.577c-8.667,8.666-15.471,18.759-20.225,29.998
			c-4.922,11.638-7.418,23.998-7.418,36.738c0,12.739,2.496,25.1,7.418,36.737c4.754,11.24,11.558,21.334,20.225,30
			c8.666,8.666,18.759,15.471,29.998,20.225c11.638,4.922,23.999,7.418,36.738,7.418c12.74,0,25.101-2.496,36.738-7.418
			c11.239-4.754,21.332-11.559,29.998-20.225c8.667-8.666,15.471-18.76,20.225-30c4.922-11.637,7.418-23.998,7.418-36.737
			c0-12.74-2.496-25.1-7.418-36.738c-4.754-11.239-11.558-21.332-20.225-29.998c-8.666-8.667-18.759-15.471-29.998-20.225
			C164.411,47.43,152.05,44.934,139.31,44.934"/>
		<path clip-path="url(#SVGID_4_)" fill="#FFFFFF" d="M139.31,220.495c-44.765,0-81.183-36.418-81.183-81.182
			s36.418-81.182,81.183-81.182s81.184,36.418,81.184,81.182S184.075,220.495,139.31,220.495"/>
		<path clip-path="url(#SVGID_4_)" fill="#053552" d="M139.31,59.834c43.896,0,79.48,35.584,79.48,79.479
			c0,43.897-35.584,79.481-79.48,79.481c-43.896,0-79.48-35.584-79.48-79.481C59.83,95.418,95.414,59.834,139.31,59.834
			 M139.31,56.428c-11.188,0-22.044,2.192-32.264,6.515c-9.87,4.174-18.734,10.15-26.345,17.761s-13.587,16.475-17.762,26.345
			c-4.323,10.221-6.515,21.076-6.515,32.264s2.192,22.043,6.515,32.264c4.175,9.869,10.151,18.734,17.762,26.346
			c7.611,7.609,16.475,13.586,26.345,17.762c10.22,4.322,21.076,6.514,32.264,6.514c11.188,0,22.043-2.191,32.265-6.514
			c9.869-4.176,18.733-10.152,26.345-17.762c7.61-7.611,13.586-16.477,17.761-26.346c4.323-10.221,6.515-21.076,6.515-32.264
			s-2.191-22.043-6.515-32.264c-4.175-9.87-10.15-18.734-17.761-26.345c-7.611-7.611-16.476-13.587-26.345-17.761
			C161.353,58.62,150.499,56.428,139.31,56.428"/>
		<path clip-path="url(#SVGID_4_)" fill="none" stroke="#6CC8C0" stroke-width="3.406" stroke-miterlimit="10" d="M250.94,157.761
			c0,0,4.568-17.604-0.672-37.492"/>
		<polyline clip-path="url(#SVGID_4_)" fill="none" stroke="#6CC8C0" stroke-width="3.406" stroke-miterlimit="10" points="
			247.69,145.022 252.171,150.642 257.926,144.886 		"/>
		<polyline clip-path="url(#SVGID_4_)" fill="none" stroke="#6CC8C0" stroke-width="3.406" stroke-miterlimit="10" points="
			247.835,134.184 252.735,139.443 258.031,133.262 		"/>
		<polyline clip-path="url(#SVGID_4_)" fill="none" stroke="#6CC8C0" stroke-width="3.406" stroke-miterlimit="10" points="
			246.594,124.544 252.026,129.253 256.635,122.544 		"/>
		<path clip-path="url(#SVGID_4_)" fill="none" stroke="#6CC8C0" stroke-width="3.406" stroke-miterlimit="10" d="M27.881,157.761
			c0,0-4.569-17.604,0.672-37.492"/>
		<polyline clip-path="url(#SVGID_4_)" fill="none" stroke="#6CC8C0" stroke-width="3.406" stroke-miterlimit="10" points="
			31.131,145.022 26.65,150.642 20.896,144.886 		"/>
		<polyline clip-path="url(#SVGID_4_)" fill="none" stroke="#6CC8C0" stroke-width="3.406" stroke-miterlimit="10" points="
			30.986,134.184 26.086,139.443 20.791,133.262 		"/>
		<polyline clip-path="url(#SVGID_4_)" fill="none" stroke="#6CC8C0" stroke-width="3.406" stroke-miterlimit="10" points="
			32.227,124.544 26.795,129.253 22.186,122.544 		"/>
		
			<line clip-path="url(#SVGID_4_)" fill="none" stroke="#053552" stroke-width="3.334" stroke-miterlimit="10" x1="218.492" y1="139.41" x2="59.296" y2="139.41"/>
		
			<line clip-path="url(#SVGID_4_)" fill="none" stroke="#053552" stroke-width="3.334" stroke-miterlimit="10" x1="138.894" y1="219.009" x2="138.894" y2="59.812"/>
		<path clip-path="url(#SVGID_4_)" fill="none" stroke="#053552" stroke-width="3.406" stroke-miterlimit="10" d="M173.64,117.489
			c-3.937-2.975-6.617-7.516-7.089-12.707c-5.65,2.844-9.583,8.569-9.886,15.252c1.921,0.699,3.984,1.1,6.146,1.1
			C166.882,121.134,170.625,119.767,173.64,117.489z"/>
		<path clip-path="url(#SVGID_4_)" fill="none" stroke="#053552" stroke-width="3.406" stroke-miterlimit="10" d="M180.771,103.953
			c-0.25,5.533-2.985,10.404-7.131,13.536c3.016,2.278,6.758,3.646,10.827,3.646c2.907,0,5.644-0.706,8.074-1.929
			C191.901,112.15,187.186,106.288,180.771,103.953z"/>
		<path clip-path="url(#SVGID_4_)" fill="none" stroke="#053552" stroke-width="3.406" stroke-miterlimit="10" d="M166.469,103.135
			c0,0.556,0.033,1.103,0.082,1.647c2.431-1.223,5.168-1.928,8.072-1.928c2.163,0,4.227,0.401,6.146,1.1
			c0.013-0.274,0.042-0.543,0.042-0.819c0-5.87-2.823-11.069-7.172-14.354C169.292,92.066,166.469,97.265,166.469,103.135z"/>
		<path clip-path="url(#SVGID_4_)" fill="none" stroke="#053552" stroke-width="3.406" stroke-miterlimit="10" d="M166.551,104.782
			c0.472,5.191,3.152,9.733,7.089,12.707c4.146-3.131,6.881-8.003,7.13-13.535c-1.92-0.699-3.982-1.1-6.146-1.1
			C171.719,102.854,168.981,103.559,166.551,104.782z"/>
		
			<polygon clip-path="url(#SVGID_4_)" fill="none" stroke="#053552" stroke-width="3.203" stroke-linejoin="bevel" stroke-miterlimit="10" points="
			105.958,180.034 118.722,175.665 105.958,171.294 101.767,156.886 97.58,171.253 84.682,175.665 97.58,180.077 101.767,193.571 		
			"/>
		<path clip-path="url(#SVGID_4_)" fill="#053552" d="M177.113,160.8c1.553,2.578,2.746,5.096,2.746,6.545
			c0,3.496-3.115,5.068-5.327,5.068c-1.642,0-3.782-0.895-4.775-2.836c2.26-1.033,4.733-2.98,6.333-6.357
			C176.487,162.384,176.825,161.573,177.113,160.8 M175.317,152.29c0,0,0.268,4.045-2.304,9.471
			c-2.452,5.172-7.214,5.418-7.214,5.418c0,5.35,4.408,8.641,8.732,8.641s8.733-3.223,8.733-8.475S175.317,152.29,175.317,152.29"/>
		<path clip-path="url(#SVGID_4_)" fill="#053552" d="M168.499,156.72c-1.67,2.693-2.337,7.611-2.337,8.012
			c0,0,3.01-0.459,4.847-3.285C169.239,159.288,168.565,157.286,168.499,156.72"/>
		
			<line clip-path="url(#SVGID_4_)" fill="none" stroke="#053552" stroke-width="3.334" stroke-miterlimit="10" x1="166.399" y1="179.417" x2="182.652" y2="179.417"/>
		<path clip-path="url(#SVGID_4_)" fill="#053552" d="M176.754,181.085l-2.069,10.086l-2.068-10.086h4.201 M180.93,177.751h-12.489
			l3.605,17.502h5.278L180.93,177.751z"/>
		<path clip-path="url(#SVGID_4_)" fill="none" stroke="#053552" stroke-width="3.203" stroke-miterlimit="10" d="M101.56,115.269
			c0,0,2.788-1.596,8.053-1.596s8.141,1.596,8.141,1.596V93.923c0,0-2.661-1.641-8.098-1.641c-5.435,0-8.096,1.641-8.096,1.641
			s-2.661-1.641-8.097-1.641s-8.096,1.641-8.096,1.641v21.345c0,0,2.788-1.596,8.052-1.596
			C98.684,113.672,101.56,115.269,101.56,115.269z"/>
		
			<line clip-path="url(#SVGID_4_)" fill="none" stroke="#053552" stroke-width="2.917" stroke-miterlimit="10" x1="101.179" y1="93.568" x2="101.179" y2="115.239"/>
		<path clip-path="url(#SVGID_4_)" fill="none" stroke="#053552" stroke-width="3.689" stroke-miterlimit="10" d="M83.756,121.16
			h14.118c0,0,1.319,1.339,3.68,1.339c2.361,0,3.721-1.339,3.721-1.339h14.285"/>
	</g>
	<g>
	</g>
	<g>
	</g>
	<g>
	</g>
	<g>
	</g>
	<g>
	</g>
	<g>
	</g>
</g>
</svg>
