<?xml version="1.0" encoding="utf-8"?>
<!-- Generator: Adobe Illustrator 16.0.0, SVG Export Plug-In . SVG Version: 6.00 Build 0)  -->
<!DOCTYPE svg PUBLIC "-//W3C//DTD SVG 1.1//EN" "http://www.w3.org/Graphics/SVG/1.1/DTD/svg11.dtd">
<svg version="1.1" id="Layer_1" xmlns="http://www.w3.org/2000/svg" xmlns:xlink="http://www.w3.org/1999/xlink" x="0px" y="0px"
	 width="156.873px" height="49.802px" viewBox="0 0.599 156.873 49.802" enable-background="new 0 0.599 156.873 49.802"
	 xml:space="preserve">
<g>
	<path fill="#133B55" d="M47.151,0.6H2.649C1.187,0.6,0,1.786,0,3.249v44.502C0,49.214,1.187,50.4,2.649,50.4h44.502
		c1.463,0,2.649-1.187,2.649-2.649V3.249C49.801,1.786,48.614,0.6,47.151,0.6z M35.458,11.918l-3.828,0.002
		c-3.001,0-3.582,1.426-3.582,3.519v4.615h7.158l-0.002,7.229h-7.156v18.549h-7.465V27.283h-6.242v-7.229h6.242v-5.331
		c0-6.186,3.779-9.555,9.297-9.555l5.578,0.009V11.918z"/>
</g>
<g>
	<path fill="#133B55" d="M100.688,0.599H56.185c-1.463,0-2.649,1.187-2.649,2.649v44.503c0,1.463,1.187,2.649,2.649,2.649h44.503
		c1.463,0,2.649-1.187,2.649-2.649V3.248C103.337,1.786,102.152,0.599,100.688,0.599z M99.032,12.944
		c-1.124,1.684-2.517,3.138-4.141,4.326c0.013,0.327,0.019,0.653,0.019,0.983c0,11.822-8.996,24.05-24.051,24.05
		c-4.603,0-9.083-1.313-12.958-3.798c-0.081-0.051-0.116-0.152-0.083-0.242c0.032-0.09,0.124-0.146,0.217-0.135
		c0.651,0.077,1.315,0.116,1.976,0.116c3.58,0,6.97-1.107,9.837-3.207c-3.438-0.29-6.391-2.616-7.453-5.933
		c-0.022-0.07-0.006-0.144,0.042-0.199c0.048-0.054,0.122-0.077,0.192-0.065c0.952,0.18,1.919,0.192,2.854,0.041
		c-3.544-1.102-6.036-4.422-6.036-8.201l0.001-0.111c0.001-0.072,0.041-0.137,0.102-0.172c0.062-0.036,0.14-0.037,0.202-0.001
		c0.923,0.513,1.947,0.843,2.996,0.968c-2.037-1.624-3.233-4.084-3.233-6.716c0-1.52,0.403-3.014,1.163-4.318
		c0.034-0.058,0.094-0.096,0.162-0.1c0.067-0.007,0.132,0.022,0.174,0.076c4.169,5.113,10.302,8.262,16.858,8.666
		c-0.11-0.55-0.165-1.118-0.165-1.689c0-4.736,3.853-8.586,8.586-8.586c2.329,0,4.577,0.957,6.189,2.628
		c1.818-0.37,3.548-1.038,5.147-1.987c0.074-0.043,0.166-0.037,0.232,0.016c0.066,0.054,0.092,0.142,0.066,0.223
		c-0.542,1.695-1.599,3.173-3.018,4.241c1.337-0.233,2.635-0.627,3.869-1.173c0.083-0.039,0.181-0.015,0.239,0.055
		C99.078,12.768,99.083,12.868,99.032,12.944z"/>
</g>
<g>
	<path fill="#133B55" d="M154.225,0.599H109.72c-1.462,0-2.649,1.187-2.649,2.649v44.504c0,1.462,1.187,2.649,2.649,2.649h44.504
		c1.463,0,2.648-1.188,2.648-2.649V3.248C156.873,1.785,155.688,0.599,154.225,0.599z M121.065,45.209h-8.185v-26.33h8.184
		L121.065,45.209L121.065,45.209z M116.975,15.279c-2.623,0-4.746-2.126-4.746-4.745c0-2.616,2.125-4.743,4.746-4.743
		c2.617,0,4.743,2.126,4.743,4.743C121.717,13.153,119.591,15.279,116.975,15.279z M151.716,45.208h-8.177V32.405
		c0-3.054-0.057-6.982-4.254-6.982c-4.256,0-4.91,3.326-4.91,6.76v13.025h-8.178V18.879h7.85v3.598h0.109
		c1.094-2.07,3.763-4.253,7.742-4.253c8.287,0,9.817,5.453,9.817,12.542V45.208L151.716,45.208z"/>
</g>
</svg>
